<svg xmlns="http://www.w3.org/2000/svg" width="600" height="600"><path fill="#A8B1BC" d="M91 195c-24 6-54-1-76 9-5 6-11 6-14 13L0 538l65 6c1-14 20-22 17-30 14-14 29-18 42-31 41-23 80-7 109-21 20-7 39-29 62-26 11-6 2-27 9-41 1-32-20-63-15-94 29 4 41 40 66 45 86-12 44-38 6-17-4-29 8-29-10-50 0 15-5 5-4 8-1 4-21-27-25-30-10 11-16 36-20 25v-42c4-12-22-5-15-8-6 9-14 22-17 39 1-13-10-32 2-43-7-7-34 17-47 35 4-20 12-39 28-50-46-15-98-7-158-13 4 2-2-2-3-6"/><path fill="#DDE3EB" d="M0 0v214c7-7 16-12 26-13 22-4 43-3 64-6 61 8 130 10 192 16 10-5 28-7 13-10-11-3-19 1-27 4-6-22 19-9 22-24 16-5 10 15 16 20l33-10c-7-14-23-20-29-32 9 11 19-6 27-2 5 10 4 21 6 31 13-5 24-10 38-9-5-12-16-19-25-28-1-7 1-11 5-13 11 0 14-17 22-10 9 16 3 33 0 47 11-9 24-17 36-7-6-13-11-28-24-27 19-5 32-15 50-15 2-6 5-11 8-14-16-19-33-34-50-47-23 14-38 34-49 53 2-17 6-32 11-47 7-8 17-19 28-15-8-6-14-12-21-15-33 8-59 32-85 49 12-18 18-41 38-53 10-11 28-11 37-1-10-8-21-14-33-17-27 18-35 54-68 70 11-17 7-41 22-57 6-10 13-16 21-19l-21-3c-9 30-16 59-30 84-3-16-13-29-8-44 1-17 10-32 25-38-10 1-19 5-26 11-5 16-17 30-20 46-2-14-8-28-6-44 1-12 4-20 13-25C153-3 64 3 2 4"/><path fill="#5A574C" d="M331 370c-19 4-18 16-29 19 3 4 1 41-7 46-4 0-3-1-1 2-28 0-39 20-55 26-33 14-73-1-114 22-14 13-28 15-41 28 2 9-18 18-18 31-22 0-44-2-65-3 33 1 54 6 83 7-18-2-19 10-27 15-12-4 2-10-4-10-14 5-20 12-19-2-16 14 11 28 9 28-18-3-14-14-20-22-4 4-12-6-22-9 3 1-5 32 0 49 199 0 414 3 606 0-13-41-1-87-25-72-2-13 8-2 11-13-3-3-6 1-10 2-1-8-10-8-3-15 0 12-16 11-23 10 2-32 21-20 21-31-42 24-15 23-49 34-2-6-10-24 0-22-16 3-28 21-40 29-3 7 5 3 6 5-15 5-6 18-18 25-1 9 8-6 11-3 0 8-9 11-10 18 3-1 2-8 7-9-10 12 12 13 2 25-10-3-12-4-20-2-2-10 1-13 7-14-10 0-8 9-8 16-14-2-29 2-33-14 1 4 4 7 6 10-6-1-13 3-16-1 11-12 2-41 24-57-2 2-4 5-7 6 10-11-10-3-4-13 6 10 16-11 24-10-7 6-16 8-25 3 0-6-6-4-1-15-5 8-3 30-3 36-6-3-20 19-20 21-7 0-15-1-18 2-1 5 6 18 5 22-48-4-110-8-142-14 9-6-11-11 14-25-15 4-24 11-31 17 18-12 24-29 42-32 2-5 0-2-9 0 18-5 2-15 6-21-9 4-13 9-14-3 11-8 11 2 20 0-10-3 2-6-10-7 3-2 5-8 9-8-12 13-21 9-30 11 33-7 13-19 33-21-12-10 12-11-12-12 11-9 28-8 18-18 14 2 12 15 22 20 3-2 3-4 5-1-4 8 4 6-4 13 3-3 6-1 8-7 8 9 12 8 14 20-3-1 3-5 5-4 0 3-2 5-3 7 15-6 23 2 29 0-2-3-12-10-17-10-4-10 0-13-4-19-21 9-14-7-21-5 10-9 1-22 14-25 2 3 5 0 18 1-8-4-4-11-6-18-13-4-10 7-14 13-7-5-2-11-1-16-8 12-25 9-31 21-5-19 3-11 12-12-8-3-6-2-6-9l11 7c7-3 7-8 10-9 4-10-4-16-12-15-3-1-3 4-1 1-3 20 1 2 15 13-13 11-17 9-24-1l1 4-2-3c4-13 7-17 11-25 7 7 6-7 14 0 4-13-1-7-4-9"/><path fill="#312826" d="M446 284c-8 1-13 12-20 12-1 9-13 29-23 39a80 80 0 0 1-42 15c-29-2-41-43-70-49-3 21 3 36 6 51-1-9-5-29-3-42 10 14 23 28 28 37-9 6-2 16-8 19-11 2-14-3-14-10 5 10 1 22 3 32 3-6 33-25 33-18-7 12-18 2-19 20 2-4 7-2 13-1 5 5 6 10 4 15-3 4-7 9-11 10-7-3-12-7-12-12-1 3 6 11 0 9 6 1 4 3 10 3 17-7 7 10 15-8 0 10-5 14 1 16 5-5 1-18 13-14 6 7 0 14 9 18-23 4-12-7-26 6-1 10-6 15-10 21 8 1 1 10 19 2 2 6-7 7-6 8 6-3 7-6 10-9-13 16 24 23 24 31-9-3-22 0-29-2-6-10-22-27-34-30 14-9 17-17 25-28-3-2-11 5-18 5 2-7-6-15 3-12-6-1-8-2-10-5 6 17-1 14 5 31-15 5-9-5-11-9-13 8-4 12-22 16 6 4 3 12 7 16-16 10-12 12-35 20 17 3 30-14 27 0-20 20-29 33-57 52-8-3 3-2 4-8-11 13-2-4-8-6 7-9 6-13 23-31-20 3 7-13-19 0 19-10 13-16 22-26-24 6-10 17-34 7 15-1-3 14 15 8-11 4-9 6-10 7-28 5 14-10-16-5 22-2-5-13 14-12-43 12-25-9-85 14-9 10-18 12-38 24 37-6-3 18 34 3-4 4-15 7-4 11-21 10-37 7-42 17 26 3 126 11 154 11 22-12 6-1 35-25-9 14-16 17-2 20-29 12-5-9-23 6 7 0 7 1 18-4 0 13 98 13 135 20-1-9-1-18-4-23 5 0 14-3 19 1 2-4 13-25 21-23 1-6-3-26 1-34 2-15 11-23 20-40 7-32 13-72 18-118-3-18-2-42-21-49"/><path fill="#4E571C" d="M536 90c-1 34-29 19-26 43-6-9-1-20 10-26-6-1-10 1-13 6-9 10-1 22-4 31 16-10 35-17 57-14 13 1 22 4 22 17-2 5-7 5-7 10 1-21-14 0-3-23-25 4-8 19-29 13 3 2 9 2 11 5-9-2-16-2-22-5 9 7 17 8 27 13-24-9-32-1-31-7-3 4-5 6-4 10-4-6-2-10-5-15 2 4-9 1-8 8 0-5 1-12-6-9-2 5-1 10-3 14 32 16 35 11 72 24 0 24-23 26-32 39 2 17 17-6 10 20-16-22-36-43-38-71-1 5 1 9 1 14-4-4-8-8-10-13-6 0-10 0-14 2-4-5 7-4 10-6 0-6-3-11-3-16-3 4 0 10 1 14-4-1-4-5-5-8 3 11-8 15-18 16 8 0 7 2 12-2-2 18 1 3 12 1 13 29 44 62 61 94 0 9-2 16-1 25-7-5-6-12-6-17-15 23-8 2-25 21 22-15 6 11 36 2l-44 5c-9-13 6-21 6-32-2-6-4-16-8-16-14 11-16 11-22 24 6 2 13 6 17 12 2 12-14 2-17 15 7-1 16-6 20-5-16 5-31 13-45 18 7 0 13-6 20-8l4 16c-14 3-18 16-23 21-4 3-2 9 2 10-4-16 37-6 40-17 1-3 2-9 1-13 9 5 20-1 25 9-25 3 7 7-20 11 6 10 7 23 2 29 22-6 39 2 49-13-1-5 6-13 1-19 13-6 11 17 26 5-1-9-15-5-20-10 16-12 7-22 18-24l2-29c-4 14-19-3-23-9 4-2 13-5 11 4 7-4 4-9 7-11-4 3-12 2-19 4 0-19-11-7-22-30 1-7 9-3 13-7 3 6-1 10-5 11 2 9 8 0 12 5 2-6 0-11 4-15 20-1 11 5 19-2 1-7-10-8-15-11-5 3-14 5-21 8 24-24 4-15 37-42-22-1-2-4-24 10 6-15 1-19 5-28-4-3-7-7-13-8 11 1 22 9 26 17-3-8-7-10-12-15 6 1 9-9 11-13 10 0-1 14 8 7-14-18 0-40 0-33-19-13-37-26-59-25 18-3 33 8 51-4-15-8-39-3-54-6"/><path fill="#465110" d="M375 0c-6 6-4 19-3 28 4-8 12-11 19-19 6 5 6-5 16 4-8 12-6 29 0 40 9-12 19-25 20-42 20 3 37 8 51 21-3 17 5 48-9 57 17-8 1 22 11 28a87 87 0 0 1-23-48c-3 12 15 41-1 37-33-29-60-55-95-75 12 9 27 15 38 28-15-7-21 5-31 14-4 14-10 24-11 37 11-19 25-36 43-47 21 13 39 28 55 46-4 6-5 12-7 18-14 3-26 4-36 10 6 2 12 1 19 1-16 11-2 22-13 30-11 0-19 4-27 8-2 40-36 100-25 147 24-42 26-55 33-92 10-3 12-11 19-11l-9 7c26 8 17-17 33 6 3-7 3-18 8-18-6 4-21 1-29 6 7-5 18-5 25-15-48 11-30 7-63 26 26-27 62-45 89-57-6 2-4-5-2-9 10-20 22-2 23-15-5 2-11-3-15-5 14 5 17 0 16-3 0-13-15-16-13-31 0-10 8-16 12-24-17-6-10 25-15 14-5-13 1-20 12-19-4-8-8-3-11 0-1-18 0-32 3-46C502 4 601-4 500 1c-9 7-11 20-16 35-4-12-5-23-4-36 0 10-1 23 1 32-6-13-12-29-28-30-49-1-53 4-73-2"/><path fill="#5B6737" d="M540 131c-13 1-24 7-34 12-3-2-2-6-4-8 2 16-11 3-9 15-14-3-22-10-31-6l-7 2c-6 6-12 10-16 16-10 0-17 8-23 11-10 8-30 32-35 47 1-21 37-33 20-32 29 5-1-20 35-12-8 0-8-5-11-6 38 18 4-15 43 3-11-6-18-10-28-9 4-7 9-12 13-17 13-8 26-2 35 3 4 0 5-2 6-2-14 9 4 11-15 31-16-7-57 28-85 36-1 6-13 18-17 25 0 2 16-29 33-17-21 14-11 34-22 50 5 8 15 3 41-9-9 7-14 16-25 13 6 7 12 1 21 3-8 2-11 7-17 7-4 9 21 5 14-4-12 18 3 10-5 22 0 2-8 7-9 2 3 4 3 9 7 11 1-7 17-19 9-22 11-3 20-21 32-8-7-9-5-5-16-14 12 7 7-5 16-9 2-15 0-18 2-33 10 6 21 2 24 3 3-15-9-21-19-30 17-6 41 33 34 8 16 19-8 9-5 25 3-3 10-1 13-5 13 12-1 16 15 20-4 3-4 7-8 9l7-7c5 7 8 12 10 18-2-10 10-20 1-20 2-3 6-2 9-2-2-4-6-3-10-4 6 0 13-3 17 1-23-17-46-62-63-56 16-9 5-25 46-15-10-6-17-5-24-6-5-9-2-17-1-24 14 9-2-3 6 14-4-10 10-10 8-15 5 6 3 10 5 16l1-10c5 12 14-7 33 10-9-7-20-7-28-14 17-3 30 17 35 0 2 17 5 13 21 26-2-2-4-2-3-3 5-6 10-8 7-12 10 0-2 11 9 8-5-5-5-52-6-5l-8 7c-14-2-14-9-15-18 5-22 4 11 6 2-1-4-4-13-1-18 4 5 11 10 5 15 5-6-2-11-1-15h-1l-3-1c-10-3-21-4-33-3"/><path fill="#495514" d="M539 403c1 8-21 9-20 3-2 7 0 13-7 15-7-1-12-8-6-10-16 5-33 2-43 17 12-2 28-21 40-8-3 10-16 6-16 17-6 9 2 12-2 21 12-4 17-17 24-25 6 5 4 19 8 20 5-9 9-17 18-17 1-6 0-11-5-11-9 4-7 10-12 16 1-10-8-13 2-18 35-19 8 18 30 1 1 23-38 17-24 44-19 17-19 2-22 2-11 25 8-3 16 19-30-5-30-4-55 2 3 2 12-1 16 5-6-11-35 18-43 17-7 8 12-2 1 10 11-7 21-16 33-21-1 12-14 19-11 32 33-33 40-36 60-41 5 1 5 13 7 21 21-18 43-38 68-48-1 16-32 16-40 31 8 16 27 8 36 15 0 10-10 3-12 10 35-13-8 15 15 1 3-34 2-38 4-80-5 2-6 8-12 6 32-26-5-35-9-8-24 12 2-31-16-18 2 14-3 23-14 38 6-11 4-23 3-34-10-8 2-21-3-23l-7-2"/><path fill="#453832" d="M243 465c-6 22-17 23-17 32-2-2 7-5 16-5-14 16-17 19-27 39 3-1 4-5 7-6-20 16 3 4-4 15l8-6c-13 8-4 19-2 17-21-3-63 2-71 2 13-2-18-8 12-21-10 1-33 12-23 0 43-3-19-11 27-9-42 4-58-9-77-8-2-6 0-5 0-9 10 0 17 4 24 1l-22 1c14-8 27-15 36-24 16 1 7 4 13 4-21-2 5 9-23 14 17 10 44-4 52 8-31 0 18-18-8-10 14-10 23-9 15-16h5v2l1-1-7-2c-11-2-7 6-20 11 6-8-18-8-19-13 12-6 20-3 25-10-1 17 22-1 22 12 7-2-5-1-1-8 4-2 13-2 20-3 9 2-12 5 9 8-10 2-13 6-20 3l16 1c-1 3-7 4-5 8 17-5 6-12 33-25"/><path fill="#C6CDD8" d="M561 0c-20 4-39 10-56 20-9 5-15 11-20 18-7 15-3 36-4 38 6-6 13 2 15 5l-2-10c8-9 12-1 16-5 3 7-4 10-6 14l14 4c-1-3-6-6-4-11 19-19 17-6 22-7-4-7-11-8-15-12 18-2 22-12 35 1 3-6 3-11 6-14 30-7 8 20 37 12 1-32 9-69-40-50"/><path fill="#69734D" d="m579 346-3 1c3 10-6 22 3 5 6 7 6 11 2 16-11-6-2 2-12 1-14 14-36 1-44 25 15-17 0 13 26-11-9 25 13 11 15 17-12 8-30-2-46 8 9 11 20-15 31-2-6 4-1 13-1 17-2 3-3 4-5 4-2-7-11-9-9-14-4 4-7 11-21 13 5 2 0 10 1 12 4-5 10-16 20-12-3 14-16 15-17 29-6-6-7-15-7-22-9 10-15 23-26 27 2-11-6-14-1-21 2-11 11-12 18-14v-2l-2-2c-3-6-8-7-12-3-10 4-18 6-25 11 4-6 9-12 16-15 6 0 6 0 2-1-10 5-16 11-23 16 0-14 3-17 4-30-3 16-7 20-7 31 2 12-18 44-23 56 4-13 24-32 22-49 9-11 22-13 31-18 8-6 12 0 16 3-7 5-15 6-17 15-6 9 2 12-1 21l1 2h1c11-3 17-16 22-24 6 5 3 11 6 18-6 9 1 9-13 17-5 18-12 5-9 16 7 0 23-5 24 2-8-13-8 1-16-8 4-7 4 0-1-9 10-5 10-1 7 5l4-1-3 1c0-7 7-13 10-19 5 0 6 4 7 7-11-25 26-19 23-40 5 10 10 24 0 32 12-12 16-21 15-36 20-12-8 30 16 13-1-4 1-5 10-7-3 4-19 4-9-4 15-7 10 8 18-3-3-2-8 0-12-2 3-2 9-3 12-1-14-4 2-10-10-12-3-14 7-3 12-11-25 1-1-10-23-8-3 4 8 1 9 5-11 2-17 7-16 15h-2l-1-1 3-6c-21 2-12-4-11-14l-6 1v-4l1 1 2 2 2 1c4-1 10-4 15-2-5-3-10 1-16 1 6-6 9-6 12-15 9 10 7 9 23 12-4-2-14-9-5-13 6 10 6 5 12 14-4-8-2-9 1-20-8-2-15 0-18-8 28 1 9 6-2-9"/><path fill="#DADFE6" d="M490 419c-17 9-24 11-29 18 7 11-30 41-23 65 32-14 33-11 73-37-7 0-12 3-17 2 1-8 10-7 8-14 7-1 9-2 10 6 0-7-4-12-2-20-7 11-15 21-28 24-13-18 11-37 15-45"/><path fill="#C8CDD7" d="M429 12c0 19-15 32-21 48 20 14 40 41 53 43-5-10-7-6-3-20-7-1-13-2-18-1 4-10 22-1 13-16-7 0-14 2-20 3 3-7 18-9 19-11-11-1-19-5-26-5 7-4 13-7 20-5-33-12 5-7-17-17 4-23 15 9 16-6 6 4-4 8 0 15 1-6 6-10 9-15 4 9-11 16-4 24 1-10 13-13 18-19 3 14-17 19-14 29 4-14 29-4 23-22-12-15-29-20-45-24"/><path fill="#F0F3F7" d="M464 205c10 8 24 16 20 31-2 14-14-5-25-2 5 17-11 43-2 53 6-8 26-13 13-17 15-6 8 1 13 5-6-19 21-1 32-18-10-13-8-11-7-21-7 2-12 3-17 6-8-8 3-24 5-17a61 61 0 0 0-28-20"/><path fill="#B0B7BA" d="M564 41c-8 26-24-3-40 16 4 0 9 2 15 5-10-4-16 4-24 9l-1 2v1l1 2v1c1 3 4 4 5 8-6-2-11-3-16-2 1-7 7-10 8-14-6 3-9-6-16 0-1 6 1 9 4 12-5-12-30 2-17-10-10 17 7-4 9 13-12 5-12 1-13 9 5-6 10-9 18-7l-15 22 8-10c2 5-2 10-2 16v3c4-6 11-10 16-16 4 2 0 4-1 8 11-13 8 1 26-4l4-10c-5-4-12-2-15-7-6 3-10 8-13 10l-16 18c1-11 3-20 9-27 15-4 20-1 34-4-1-21-12 6-16-7 6-21 15-2 25-14-4-5-13-6-14-9 16-4 15-8 29 3 7-6 2-16 11-17 13 0 9 10 12 18 6-2 11-3 17-3-6 11-17 15-25 25l-4-22c-2-1-4 2-8-1-4 9 1 18 4 24-9 5-19-1-22 5 39 21-22-20 33 9v1l-3-1c-2-8-2-15 6-19 1 4 1 6-1 9 8 4 14-2 22-1-4-23 8-33-12-29 5-9-19-3-5-15-4 2-9 2-12 0l-2 1h-1"/><path fill="#414F0C" d="M386 177c-13 10-33 14-38 29a95 95 0 0 0-1 74c22-30 16-74 38-103"/><path fill="#B2BAC2" d="M503 503c-10 4-2 14-17 14v2l1 3c10 4-10 19-13 29 13-5 17-4 1 11 9-22-41 4-34-19 10 0 22-5 29-14-4 3-12 14-10 2 0-13 8-17 11-28 3 3-24 12-33 26-6 18-8 36-14 42 4 6 9 3 12 6-5-1-11-12-3-9 5 13 20 9 32 11-1-9 0-17 11-16 3-5 8-9 11-11 0-9-7 2-11 2 11-8 3-26 19-26-4-3-9-3-9-8 10-4 11-7 17-17"/><path fill="#797E52" d="m533 306 1-1c20-1 39 3 56 6-9 4-17 9-26 8 5 6 12 13 13 23l-29 3c-17-21 14-19 7-29-3 23-14-8-23 12-10-19-45-12-2-23-3 6-1 11-2 15l3-12"/><path fill="#B8C0C2" d="M481 362c-30 52-32 81 27 39 1 5 18 5 37-1l11 9c1-6 12-2 8-11-5-1-4 6-10 4-10-5 8-17-11-14-18 25-2-19-22 14 1-12 9-17 15-22-6 0-13 7-15-3-36 12 23 2-23 28 3-7-17 3-11-27-4 9 1 13-2 19-3-3-15-4-17-1-5-21 18-25 11-25"/><path fill="#52641A" d="M549 531h1c6 3 7 11 14 11-10 10-25 9-29 20 7-9 19-12 28-16 55 7 2 11-6 9 0 0 6 0 10 4-27 1-25 25-46 24 16-22 14-35 27-49"/><path fill="#817163" d="M380 360c-15 5-20 1-27 28-1 19 8-14 9-12 8 3 7 13 10 12-4 8-5-1-6-4-4 4-7 0-6 10-1 13 16 3 18 22 5-9-13-12 0-44-2 3 22-4 29 10l1 2-1 2c-7-9-19-8-25 1-4 6-2 14 5 15 11 2 21-6 19-16 4 3 4 6 2 9 13-3 8-5 13-9-20-17-36-23-41-26"/><path fill="#3B470E" d="M316 200c-14 14-53 10-59 13a73 73 0 0 0-30 44c9-17 32-28 48-39-10 15-8 31-5 48 3-16 12-31 21-45 8-10 15-17 25-19"/><path fill="#50550C" d="M304 16c-5 2-10 7-15 10-16 18-15 40-24 59 20-15 58-62 47-72"/><path fill="#695A54" d="m379 356 1 2c7 8 23 9 44 30-8 0-3 7-16 8 1-6 0-15-5-17-9-5-16-7-23-4-2 9-7 16-7 26 3 3 7 3 10 4-7 9-15-7-20-2-2-9-6-12-2-17 0 8 6-9 10 7-23-33 1-32 6-32"/><path fill="#BAC1B7" d="M580 505c-13 33-37 19-67 53-3-3-6-3-9-4 8-22 23-12 26-34 31-1-3-4 47-11"/><path fill="#E4E8F1" d="M527 174c-22 9 4 32 7 44 16 1 14-13 21-10-12-5-3-15-4-23 17 0 9 22 13 19-2-7 1-14 6-17-19-14-34 3-40-12"/><path fill="#D2D9E2" d="M392 273c-7 19-21 34-26 54 17-11 29 3 49-7-8-13-18-28-21-45"/><path fill="#D2D8E1" d="M369 183c-10 0-18 8-26 12-13 20-18 41-27 61v3l1-3c12 0 18 21 29 31-8-23-13-53-2-76-1-19 32-30 30-28"/><path fill="#67483E" d="M441 295c8-4 21 2 22 19 5 15 3 20 0 31-4-4-1-9-2-20-3 7-1 14-6 20-14 0-5-9-17-10 0-3 7-14 8-17-2 0-3-4-11-1 4-4 7-4 10-4-17-1 10-4-10-7 5-5 10-7 6-10"/><path fill="#475A0C" d="M550 532c-18 16 0 28-36 49 31 6 6-14 36-8 6-8-6-8-8-11 24 1 81-19 13-15 13-3-3-8-4-15"/><path fill="#3D4A10" d="M346 191c-32 7-15 10-37 28-5 21-9 41-4 62 15-31 18-67 41-92"/><path fill="#D9DFE6" d="M386 178c-21 29-16 73-38 103 3 0 4-10 14 14 7-37 20-74 24-115"/><path fill="#CBD1DB" d="M331 0c-1 4-4 8-3 13 16 5 29 13 42 20-1-10-4-23 1-32l-37-1"/><path fill="#5C473C" d="M167 480c26 5 13 15-4 16-2 3 3 1 14 2-10 4-27-1-11 8-15 1-35 4-42-5 16-8 8-10 25-17 9 3 7 9 3 8 5-5 30-7 17-8"/><path fill="#4B530F" d="m339 32-6 3c-21 8-24 32-42 48 10-19 104-48 50-52"/><path fill="#55580F" d="M283 7c-4 4-21 11-24 17 2-3 3 4 11 4-16 0 3 5-11 11-2 6 6 2 7 3-14-1-4 19-21 9 3 4 1 18 9 38 14-26 19-57 30-83"/><path fill="#4B3A34" d="m114 520-1-2c51 15-8 13 9 8-4 6 1 10 14 6-30 6-17 2-23 8l25-3c-23 9-50 11-59 4-5-8 27-7 38-18"/><path fill="#6D4D42" d="M443 294c-4 9-2 19 1 17-2 3-4 1-7 5 27 0-11 5 13 6-20 3 0 14-11 13 12-1 3 11 14 9 6-7 5-12 7-19 3 8 1 18-1 20 6-11 8-16 4-31-4-12-10-26-22-16"/><path fill="#6F774C" d="M552 251c-14 7-15 30-30 34 13-7 10 1 15 3-7-5-14 15-19 5 0 3-2 7 1 9 14 1 28-1 41 1-29 8-8-22-33 2 3-9 6-13 10-16 7 3 5 0 15-13 4 6 1 13 6 18 5-34 3-19-8-43"/><path fill="#717839" d="M540 305c7 5 4 5 13 11-10 5-9 16-8 25 10 3 19 0 30 2-18-29 0-21-9-36-6 1-10 0-25-1"/><path fill="#CBD2DB" d="M496 508c-20 12-30 38-57 35 11 4-3 6 4 10 21-6 32 0 30 11-1-1 11-44 24-55"/><path fill="#3A3B40" d="M-2 544c27 12 27 12 38 37 3-1-17-17-4-28 14 2-8 6 4 16 8-9 18 0 25 2-8-3-17-15-24-6-4-9 8-2 3-12 13-3 17-1 13 9 10-3 12-19 31-10-29-4-49-9-83-10"/><path fill="#5D6037" d="M235 0c-7 3-14 8-13 15-2 4-2 5-1 7-5 55 9 40 21-2 11-4 23-12 37-10 2 6 0 9-1 13 3-4 1-10 4-14 12 0 20 2 29 3-8 1-16 6-22 13 8-5 12-13 26-10 12 2-4 9-4 13 3-4 7-9 12-11-2-2-4-3-7-2 2-3-23-7-31-7-5 1-2 4-4 4-7-4 3-5-3-4-15 1-26 7-37 13-7 0-1 7-8 5 1-7-9-2-11-9 4-1 8-1 10 2-15-14 15-10 2-18 6 5 9 4 13 5-2-5-5-8-10-5"/><path fill="#664D44" d="M300 309c-14 6 4 51-1 48 5 16 18 4 18 6-1-4-1-4-6-6 5-4 9-2 12-1-9-5 14-8-11-11 17-2-7-6 12-7-5-3-9 1-14-1-7-8 0-17-10-23"/><path fill="#524742" d="M265 507c7 8-8 12-24 26 12-5-16 14-7 26-11 1-24-3-36-3 9-2 21-1 27 0-2-3 2-9-5-8 26-26 10-17 29-35 4-2 6 6 9-5"/><path fill="#475307" d="M513 354c-8 3-16 3-22 8-5 12-4 26 1 38 15-9 14-32 21-47"/><path fill="#3D480F" d="M543 50c0 6-7 6-10 5 2 3 14 5 9 11-12 13-16-3-23 6-1 10 18-8 17 17 5-13 16-3 24-7-9-11 3-28-17-28"/><path fill="#465216" d="M374 134c-7 4-17 4-15 14 6 10 16 15 21 24 2-9 6-16 5-25 0-13-8-6-12-11"/><path fill="#E1E6EA" d="M578 510c-21 1-35 20-43 13-3 27-23 6-28 31 34-23 40-21 74-44"/><path fill="#5C4539" d="M164 518c-6 13-1-2-19 9 9 0 8-5 18-1-21 7-22 13-56 15 10-3-1-7 31-7-16 3-23-2-28-5 12 7 25-4 45-9"/><path fill="#8F7E61" d="M392 379c15-4 22 17 5 22-6 6-13 2-17-2-4-11 1-14 7-17l1-2 2 1 1-1"/><path fill="#48590E" d="M503 526c-6 1-11 8-16 7 13-3 1 20 2 22 7 5 1 9 1 13-10 0-9-6-5-12-2 13-22 4-17 20 6-6 24 12 20-7 9-4 15 1 19-9-5-1-11 7-15-4 5-15 15-14 11-27"/><path fill="#6B7450" d="M576 445c3 8 31 2 16 22-6-11-27 3-34 11 12-15 1-13 16-31h-2v-2l2 1"/><path fill="#D9DFE6" d="M485 283c-4 12-8 11-10 35 13-5 18-12 30-20-2-10-11-21-11-2-4-5-8-8-9-12"/><path fill="#5C6A46" d="M596 196c-35 27-7 13-41 39 27-14 16 3 41-18 3-6 3-12 3-18"/><path fill="#525512" d="M235 0c14 12-16 4-1 20-4-2-7-4-12-4 2 4 6 5 10 4-8 4 5 11-9 10 2 6-4 7-1 13 10 0 2-8-1-11 5 0 5 3 7 5 27-22 46-40 5-31"/><path fill="#828857" d="m558 346 3-3c2 21 15 7-4 33-3-11-13-7-18-7 11-8 2-21 18-21"/><path fill="#C5CCD6" d="M583 72c-6 5-16 12-11 22 8 2 18 8 27 7-9 5-17 6-24 9 4 10 11-8 23 6l1-12V87c-10-2-15 5-22 1 1-6-2-11 5-14"/><path fill="#4B5A1D" d="M502 524c9 17-4 16-9 30 4 14 10 1 15 4-4 12-11 9-18 11-4-11 7-32-5-34 6 0 8-9 14-8"/><path fill="#818868" d="M578 241c-4 4-2 9-4 16-11 3-14-5-13-8 8-18 4 9 6-7-23-1-3 29 3 12-1 12 0 7 2 22 11-2 16-1 20-6 0 6 3 10-3 14-1-6-7-6-12-5-2 10 8-11 11 8l2-2 1-1v-3c11-10 4-22 4-32-7 4 3 10 1 19-5-7-10-16-17-2-3-9 5-16 10-17-11-4-2 4-11 9l-3-11c8-11 21 3 23-4-7 2-4 0-19-3"/><path fill="#425522" d="M416 238c41 1-4 19-21 15 3-8 2-8 7-13 1 11 2-4 13-1"/><path fill="#4C5610" d="M542 131c60-1-9 14-20 16-1-10 6-15 15-14l7-2"/><path fill="#CAD1DB" d="M516 89c-2 5-7 7-10 10-6 9-13 13-18 18-1-9 2-18 7-26l-12 18c-1 15 11 20 16 31 2-3 4-18-6-17 12-4 13-22 27-20-7-1-11 1-16 8-2-6 2-7 1-9 14-18 44 4 10-13"/><path fill="#455113" d="M549 384c24 4 0 9 6 15 4 1 4-5 9-5 2 7 2 17 11 14-20 2-28 12 11 6 0-15-20 3-18-14 6-17 25 0 32-12-19 10-29-10-46-1"/><path fill="#57651D" d="M437 161c35 6-5 10-6 8-20 14-16 15-36 29 4-12 17-23 29-31 6-3 9-4 14-3"/><path fill="#C5CBD6" d="M392 11c-7 7-17 14-18 24l30 23c-2-10-7-18-4-29-1 7 0 15-3 21-10-6-7-10-15-15-2-8 7-7 2-13 8 6 9-4 16 6 0-7 3-10 4-14-5-3-6 4-10-2"/><path fill="#3E511F" d="M430 266c-11 4-21 5-31 13 0 10 7 20 10 29 21-7-4-16 21-19-6-9-8 10-24 4 0-11 11-9 19-14-8 0-16 6-23 1 12-2 18-9 26-13"/><path fill="#C5CCD7" d="M487 365c-11 3-21 20-19 29 3-1 15-2 16 2l2-30"/><path fill="#C9D1DA" d="M319 203c-18 2-27 22-36 35 2-4 7-7 7-7 8 1 12 6 12 12 3-13 4-28 16-38"/><path fill="#3F490F" d="M564 44c-10 18 16 6 6 36 8-10 17-15 23-22-4 1-9 1-12 4-7-7-3-20-15-18"/><path fill="#A59574" d="M390 381c5 0 17-1 17 9-6 6-9 14-18 14-4-3-9-4-7-9 7-7 10 6 14-6-4-6-7-2-11-1-1-4 1-6 2-6"/><path fill="#63641F" d="M269 14c-10 5-18 14-20 25-6 8 2 16-4 15 1 9 1 17 4 23-4-11 2-15-5-19 14-2 8-8 19-15l2-30"/><path fill="#6B723B" d="M521 333c-15 22 3 5-7 24-5 3 0 6-5 11 8 5 12-9 20 1-7 5-17 9-21 6 1 17-16 25-17 26 12-8 12 11 28-17-5 1-7 1-10 5 0-4-3-7-1-10 12-7 15 5 25 0-4 2-9 4-11-3 3-1 2-5 5-4-4-8-3-12-2-19-9 0-11 21-14 4 7-4 14-6 10-10 30-5 16-3 2 0-3-3-9-9-4-13"/><path fill="#3D3535" d="M330 420c7 7-10 24-18 28-4-8 0-15-5-18 3 0 16-1 23-7"/><path fill="#CFD6DE" d="M286 0c0 12 27 6 37 12 1-5-1-8-1-11l-32-1"/><path fill="#44500F" d="M478 277c5 7-18-1-14 14l8 22c4-14 6-30 9-35"/><path fill="#B5BBC2" d="m493 416-29 14-2 1-1 1-4 1c1 16-9 28-17 43 14-21 22-31 22-43 7-9 14-3 21-2 4 5-5 8 0 11-6-16 28-14 13-24"/><path fill="#3E511E" d="m418 239-14 2c-6 4-5 5-8 12 9 3 59-14 25-13"/><path fill="#444F07" d="M548 132c-11 1-26 2-27 12 8-1 77-13 26-12"/><path fill="#465824" d="M430 217c19-4 20 5 9 15-2-2 2-8 4-12-41 6 4 5-35 11 6-10 13-12 22-14"/><path fill="#726A53" d="M434 23c10 20-6 11 16 26-7-1-14 0-18 2 4 2 8 3 13 2s7 3 8 5c-1 6-11 1-14 8 10-9 23 10 14-4 9 0 24-16 25-9 2-8-20 1-21 8l-2 1-1-1-2-3c-6-8 17-12 14-25-12 3-11 18-19 21 2-6-1-19 8-25-5 3-8 7-9 12-8-4-1-10 1-15l-5 10-6-11"/><path fill="#5D4438" d="M167 531c-21 11-20 12-16 16-6-5-29-2-41-2 14-4 35-8 48-13"/><path fill="#A69375" d="M321 390c-7 1-6 5-9 10 2 7 6 10 11 11 7-3 7-9 8-15-3-4-5-6-9-5"/><path fill="#CBD0D9" d="M482 0c-1 12 0 20 1 31-4-20 45-37-3-30"/><path fill="#C8D0D4" d="M521 387c10 1-4 7-2 12 8-7 19-11 11 8-10-4-21-4-27 0l15-19"/><path fill="#A4ABA3" d="M549 408c8 3 4 11 14 17-12 7 5 17-8 22 0-14-4-24-7-35"/><path fill="#5D6742" d="M557 162c9 5 16 8 23 14-10 3 5 18 3 22 7 1 6-11 15-5-7-7-4-20-17-14-6-9-13-13-21-15"/><path fill="#BBC3CD" d="M386 22c-7 19 2 15 9 27-7-3-14-8-20-12-1-5-1-5-2-1l29 21-8-5c3-40 8-3 6-21-8-10-7-4-13-6"/><path fill="#646B3E" d="M468 281c-4 2-5 6-9 8 6 10 7 20 14 28-2 11-3 30-6 42l11 3c-9 6-3-2-11 4-7 10-1 20-4 30 2-11 7-20 15-29-5 1-4 8-9 11-3-3-2-6-1-7 3-5 7-4 10-7l2-1-1-1c4-9-5 6-9-6 14-21-4-46-8-76"/><path fill="#C7CDD6" d="M476 53c-6 4-11 8-17 10l2 14c13-3 16-10 14-24"/><path fill="#564844" d="M272 494c12-2 4 10 11 15-18 6-9-2-21 0 6-5 5-10 10-13"/><path fill="#90977E" d="m567 290 2-1c5 4 10-1 14 10-13 1-20 13-20-7"/><path fill="#544641" d="M283 513c-4 1-24 19-43 29 17-8 16-19 23-27 4 5 12-3 15-2"/><path fill="#475418" d="M337 160c-34 2-6 10 2 25 0-9 1-18-3-25"/><path fill="#616B45" d="m526 67-6 2-2 1-1 1v2l-1 1c2 18 16-12 18 12-6 4-28-3-42 27-1-10 3-16 6-23l2-1 2-2-1 3h-3c-5 7-7 15-10 23 11-8 18-17 27-25 7 5 15 1 19 7l-4 8c-10 3-12 4-20 14-7 14 0 4-2 18 4-36 10 0 20-31 16 0 28 2 44 8-5-4-29-11-40-6 0-5 0-8 2-10-14 8 59-34 1-6 2-29-23 1-17-20 10-9 8 4 16-1-3 1-7 3-7-2"/><path fill="#AF9F7D" d="M385 382c11 4 13 16-5 13 8 10 17 7 19 2 12-8 3-18-7-14"/><path fill="#3E4A19" d="M292 183c-5 7-12 10-17 18 21-4 40 7 18-21"/><path fill="#687026" d="M592 318c3 10-10 12-13 21 14 13 15-9 18 9-2-15-6-16 2-29"/><path fill="#5C6137" d="M567 136c11-3-2 7 2 12-6-9-13 15-27-1 17-5 4 4 25-11"/><path fill="#68714B" d="m599 436-11 12-2 3h-4v2h-4c5-14-9 9-5-9-13 21-3 18-14 31 29-16 1-6 20-22h3v-2l2 1-1 1c9-3 11 4-12 8 11 0 20-4 20 6-7-4 16-11-4-18 8-1 13-8 10-10"/><path fill="#505E16" d="M427 206c8 0 12 3 19-1-36 25-27-7-15 8"/><path fill="#4D3D37" d="M105 520c17 8-34 13-23 11 2-10 9-3 17-9"/><path fill="#7E856C" d="M562 143c10 1 7 17 12 22l-20-10c2-4 8-4 6-9"/><path fill="#4B552A" d="M580 404c16 12-17 17-24 13 10-4 19-1 18-13"/><path fill="#C3CAD2" d="M489 417c24 1-9 24-15 9 4-2 9-3 13-7"/><path fill="#E5E8EF" d="M486 156c-7 3-14 9-16 16 11 6 21-6 17-15"/><path fill="#D1D9E0" d="M521 389h-3c-4 6-9 13-15 16 7-3 18-3 25 1 8-19-1-10-9-3-1-7 1-12 6-14"/><path fill="#B9C0BE" d="M549 410c2 12 8 21 4 37 13-6-3-16 10-19-6-10-12-11-10-19"/><path fill="#4F5B22" d="M549 253c11 19-4 16-7 30 16-20-13-19 5-25"/><path fill="#BEC8D2" d="M2 0c15 0 37 12 53 0H4"/><path fill="#5B622B" d="M481 76c8 18-4-3 0 35 2-9 10-16 14-24-15 2 5-7-11-10"/><path fill="#B3B9B0" d="M583 259c9-3 3 8 10 9-6 6-12 7-18 8 2-5 2-10 7-15"/><path fill="#4A5921" d="M506 502c7 8-4 20-15 22 0-10 11-6 11-21"/><path fill="#D0D7DE" d="M252 0c8 7 18 10 30 5-4-8-20-3-28-5"/><path fill="#4B5221" d="M460 182c1 0-1 10 5 11-11-13 1 14-17 6 0-5 6-3 8-5-6-5-7 0-13-1 4-8 13-4 15-9"/><path fill="#8B937F" d="M431 139c30-5 2 11-5 19 5-9 1-13 6-16"/><path fill="#798443" d="M491 315c4-2-17 17-13 29 1-10 10-9 17-14-2-7-1-12-2-16"/><path fill="#5C6310" d="M558 330c1 12 3-3 16 8-4 4-37 7-19-6"/><path fill="#4F5527" d="M498 152c3 3 2 13 6 17-6 1-10 5-13 3-1-22 10 6 4-17"/><path fill="#586313" d="M532 550c8 3-13 5-17 19-5-9 4-19 15-19"/><path fill="#3E3F43" d="M41 559c8 4 16 6 22 10-9-4-47 0-21-9"/><path fill="#636833" d="M502 265c-3 2-1 10-6 14-5-6 2-15-9-8-4 8 1 14 4 18 0-4 12-8 3-7 5-13 17-18 12-16"/><path fill="#CED2DA" d="M455 0c13 1 21 14 22 26 0-9 2-18-1-25l-19-1"/><path fill="#818D4F" d="M511 560c-4 9 3 19-11 19-1-5 3-11 7-16"/><path fill="#576711" d="M405 213c7-3 13 2 18 4-34 10-20-3-13-1"/><path fill="#564B47" d="M356 369c10 7 2 23-4 26 0-18 5-9 3-22"/><path fill="#46510D" d="M507 88c-11 1-13 13-17 21 6-6 22-16 20-21"/><path fill="#6B722B" d="m558 348-1 1c-15 0-5 10-16 14 15-5-2-12 15-14-2 6-6 18 1 23 6-3 5-11 12-14-6-1-6 4-10 7-1-25 7 3 2-22"/><path fill="#64683E" d="M533 305c-3 5-2 11-4 16l-1-12c-7 0-13-1-21 2 10 0-1 9 3 14-6-18 13-4 7-11 6 1 8 7 12 12 14-10 11-10 1 1 2-9 0-16 3-22"/><path fill="#545C18" d="M487 87c16-3-3 13-4 17-3-4-4-12 2-16"/><path fill="#B3BAAD" d="M587 369c-10 5 2 10 5 14-11-6-22 2-18-12-10 2-8 11-17 11 12-5 9 7 12-13-1 11 12 12 2 14 8 4 8-9 19 1 8 4 6-6-1-12"/><path fill="#AFB7A4" d="M521 559c10 3 4 19-7 18 0-5 3-10 5-15"/><path fill="#656A3E" d="M524 470c12 2 2 11-2 14l14-4c-5 3-9 7-14 9-4-7-1-12 1-15"/><path fill="#DDE2E8" d="m535 307-3 9c6-2 14 2 17 5-3-9-6-11-12-14"/><path fill="#B8BCB5" d="M583 243c-9 0-6 7-5 12 2-12 8-6 20-6-2 6 0 12-1 19 2-5 1-14-1-18 1-1-2-3 1-5-4 2-8-2-13-2"/><path fill="#B8BEB3" d="M585 354c-23 10 5 13 14 1-6 6-12 2-16-2"/><path fill="#B8C0B2" d="M555 350c-12 2 0 10-17 16 20 4 11-5 20-16"/><path fill="#595F4B" d="M404 140c5 8 13 13 18 21-16 11-19 0-27 10 6-1 13-3 21-2l5-5c7-30 0-5-17-25"/><path fill="#58600A" d="M570 330c-17 17-1-11-23 12 10-3 34 3 22-12"/><path fill="#7F896E" d="M513 404c7 17-14-6-20 10 2-3 6-5 9-6 2 5 1 11 9 14 6-3 7-15 3-17"/><path fill="#9F887A" d="M375 361c14 3 7 9-2 15-1-4-1-10 3-12"/><path fill="#425215" d="M506 503c-6 9-10 16-19 17 15 1 18-6 22-14"/><path fill="#404C2C" d="M490 192c10 10 23 9 40 40-2-14-15-25-22-32-5-5-10-8-16-8"/><path fill="#69735A" d="M496 69c5-3 9 5 13 0-3 11-12 16-14 2"/><path fill="#3C4C18" d="M586 394c7 12 2 14 11 19 2-6 2-11 2-16-2 4-9 0-11-1"/><path fill="#B7BDB0" d="M491 317c-4-2-10 7-17 7 11 0-8 18-1 22 9-8 4-29 21-29"/><path fill="#46542F" d="M452 217c6 2 7 12 5 17-11-7-3-7-9-13"/><path fill="#43332E" d="M102 522c-11 7-30 0-20 12-11-9 36-3 25-13"/><path fill="#C5CDD6" d="M494 350c-30 17 2 9 13 1l-12 1"/><path fill="#A8AD96" d="M550 326c2 3 5-1 10-1 0 9-22 16-12 0"/><path fill="#465018" d="M587 251c-8 4-7 9-9 15 2-4 5-7 8-9 7 3 4 9 9 10-1-8-1-13-6-17"/><path fill="#4E413D" d="M236 530c4 4-21 15-14 23-5-12-2-13 11-20"/><path fill="#3B4B0E" d="M555 190c-4 4-6 13 3 16 3-5 5-14-2-15"/><path fill="#475316" d="M551 257c-25 7 8 3-13 27 5-18 19-9 13-27"/><path fill="#BFC6D0" d="m516 89 15 5c7-8-41 12-17-2"/><path fill="#CAD2D7" d="M543 388h10c-1 9-16 15-12 1"/><path fill="#545F0D" d="M533 550c-10 0-21 7-20 16 5-5 20-18 21-13"/><path fill="#C5CAD5" d="M535 87c55-3-15 11 34 7-3-13-16-7-23-9"/><path fill="#594138" d="M113 543h29c-9 6-21 4-31 2"/><path fill="#C2CACC" d="M557 423c6 3-1 16 2 22l-6-18"/><path fill="#514139" d="M135 510c23 0 2 9-10 6-4-8 15 0 8-5"/><path fill="#A7ACA1" d="M486 265c-4 3 3 4-2 9-19-16 0 27 5 11 14-9-5 18-5-12 14-18 15 17 16-10-4 5-12 7-11 1"/><path fill="#A2AA9A" d="M501 517c19-2 2 14-4 9 0-4 3-4 4-6"/><path fill="#5B663E" d="M377 128c-7 5-2 22 1 33-16-61 28 25 0-39"/><path fill="#595D1B" d="M489 270c5 0 6 13 3 17-4-5-7-10-5-15"/><path fill="#F2F5F4" d="M596 274c1 9-15 13-2 18 3-5 6-11 4-18"/><path fill="#E2E7EC" d="M408 140c5 8 15 10 19 1h-17"/><path fill="#B0AFA7" d="M493 222c-4 12-5 8-1 15l-1 3 1 1c4-4 10-4 15-6-1 11 1 8 9 26 1-10-10-14-5-25-9 2-17 0-19 4 0-16 14-16 0-15"/><path fill="#938163" d="M320 395c22-8-2 15-1 9 2-5-6-4 1-9"/><path fill="#7A8664" d="M540 444h9c0 11-15 12-11 1"/><path fill="#6D6C49" d="M476 73c-6 1-11 3-14 8 1 5 1 11 4 15-2-5 6-4 8-7 5 12-5 17 0 23l2-20c-9 3-15-5-2-8-5 1-11 9-12-1 12-17 16 7 13-9"/><path fill="#404716" d="M466 183c-40 12 1 5-16 15 12-5 14-3 8-13"/><path fill="#554740" d="M375 452c5-1 10 2 12 6-3 3-26 1-12-4"/><path fill="#C4CAD1" d="M87 339c8-3 6 4 7 8-9 3-14-2-8-7"/><path fill="#E8EBEA" d="M543 248c0 6-11 8-9 15 2-8 23-6 10-16"/><path fill="#C0C9CE" d="M498 399c3 9-8 16-14 12 3-5 9-4 10-8"/><path fill="#4D4342" d="M434 386c6-1 9 5 9 10-9 2-9-7-11-8"/><path fill="#50531E" d="M227 25c8-2 7 9 3 12-14-8-2-8 0-9"/><path fill="#545F1D" d="M536 470c14 9 16-3 19 5-4-2-24 1-21-2"/><path fill="#4B532C" d="M509 225c6 6 11 17 13 25-7-6-7-15-14-21"/><path fill="#B2B7B8" d="M590 159c3 5-4 8-7 12 12 9 12 9 0 1 20 7 12 4 16 11 5-17-8-12-6-24"/><path fill="#535D3C" d="M497 69c-3 12 9 13 12 2-4 3-6-2-9-2"/><path fill="#A3AA89" d="M568 528c3-2 5 2 7 0 4 7-14 15-8 2"/><path fill="#4D3F3A" d="M253 522c-4 17-10 8-20 19 2-11 13-9 17-15"/><path fill="#59661B" d="M514 386c6 1-5 12-9 14-2-8 3-5 6-13"/><path fill="#5A6249" d="M356 143c2 13 38 42 30 35-1 11-4 21-3 33 1-13 4-24 10-35-9 5-29-19-36-31"/><path fill="#84943E" d="M582 565c3 6-1 18 1 25-5-7 3-21-10-21 3-2 9-1 9 0"/><path fill="#A8B0A0" d="M580 512c-25 14-74 47-73 36 31-16 51-15 71-36"/><path fill="#4A3D37" d="M251 526c16-2-3 11-8 12l7-10"/><path fill="#E2E8EE" d="m595 221-11 4c8 10 15-4 14-4"/><path fill="#546216" d="M459 131c7-2 14 0 18 4-4-4-22 2-22-3"/><path fill="#515720" d="M221 31c3 0 14 14 2 12-8-6 3-7-4-9"/><path fill="#5A453A" d="M249 545c8 17-5 3-6 10 0-3 1-6 3-7"/><path fill="#4F423A" d="M424 528c14-1 7 7 7 11-8-2-5-9-3-9"/><path fill="#D3DBE3" d="m544 388-4 5c6 9 19-8 6-4"/><path fill="#585F18" d="M584 335c3 1 11-1 5 8-5 1-11-1-6-6"/><path fill="#B2B8B5" d="M577 108c-12 7 12 7 18 7-5-8-13 0-18-6"/><path fill="#A2AA92" d="M520 495c11 1 2 13-6 7-2-5 3-4 4-6"/><path fill="#E6EAEC" d="m585 260-7 10c17 3 7-5 8-8"/><path fill="#B3B7B7" d="M576 135c-8 4 4 11-2 15 9-1 5-9 2-13"/><path fill="#EDF0EE" d="M568 292c-8 11 8 6 12 11-2-13-2-1-11-9"/><path fill="#584F4C" d="M433 385c2 16 13 8 15 15 0-4-11-10-10-14"/><path fill="#9FA491" d="M553 270c14 0-5 13-7 4 1-4 5-4 6-3"/><path fill="#505D1A" d="M373 136c3 7 5 18 7 26-4-7-7-14-8-22"/><path fill="#4B3E36" d="M196 522c18 7 1 9-10 5l12-2"/><path fill="#5C661B" d="M551 314c5-3 4 6 8 6-4 2-7 7-12 6-1-5 11-3 4-10"/><path fill="#E7ECF1" d="M488 184c-11 11 13 4 16 11-3-5-9-7-14-10"/><path fill="#AD9788" d="M377 362c-2 5-5 7-4 14 2-5 18-9 4-14"/><path fill="#514138" d="M186 529h10c-2 3-27 9-10 0"/><path fill="#B9C0B7" d="M503 517c-2 4-3 5-7 7 5 2 21-2 9-7"/><path fill="#A0AB93" d="M486 556c8-1 6 10 0 12-4-4-1-7-1-10"/><path fill="#C0C8CF" d="M524 77c5-1 2 4 6 1 3 9-14 10-6 1"/><path fill="#3F4044" d="M14 559c12 8-7 6-6 10-8-9 2-6 6-6"/><path fill="#C1C8D3" d="M496 58c4-1 12-2 9 5-4 1-12 3-8-3"/><path fill="#9D8776" d="M365 364c4 1 4 9 6 13-14-7 0-4-9-10"/><path fill="#5C6558" d="M284 191c-7 3-19-3-13 11 6-1 4-5 13-12"/><path fill="#C9CFCD" d="M517 378c4-3 6 4 8 6-4 0-17 2-9-5"/><path fill="#9CA591" d="M503 414c5 0 11-2 13 3-6 7-8 2-11-1"/><path fill="#5C6350" d="M364 32c-2 2 5 4 0 6-40 20-33 20-79 50 28-19 52-36 77-50 65 40 11-4 5-1"/><path fill="#D5D9DE" d="M518 459c-2 6-8 8-8 15 3-6 16-7 9-14"/><path fill="#566417" d="M539 383c9-1 0 9-2 11 5-5-10-10 1-10"/><path fill="#CCD3DF" d="M593 142c-2 5 1 11 4 14 0-5 4-13-1-13"/><path fill="#51572E" d="M230 40c3 1 1 13-3 16-1-4-1-9 2-13"/><path fill="#525F20" d="M464 142c4-1 8 0 13 2-8-3-35 9-14-3"/><path fill="#555910" d="M490 270c-5 5-2 12 1 16 3-2 2-11 0-14"/><path fill="#656D0B" d="M540 370c3-1 7-1 9 1-2 1-20 8-11 0"/><path fill="#455027" d="M500 70c6-1 8 5 2 8-4-1-6-5-4-8"/><path fill="#86817F" d="m124 548 17 1c-6 2-12 3-18 2"/><path fill="#3A4924" d="M451 219c-3 10 1 4 5 16 2-6 0-10-2-15"/><path fill="#5F6454" d="M498 186c10 13 24 25 33 40-15-20-25-40-29-37"/><path fill="#A2AB96" d="M541 264c6-1 3 10-1 10-5-3-2-6-1-7"/><path fill="#ACAC9B" d="M530 246c2 1 7 0 9 3-1 4-5 2-8 3 4 4 0 15 4 25-2-21 8-20 3-33"/><path fill="#AEB2A5" d="M519 330c-7 18 17 4 19 9-7-11-14 5-18-8"/><path fill="#C9D1D9" d="M474 92c-6 1-9 5-3 10 4-2 4-6 3-10"/><path fill="#503D36" d="M135 519c15-2-5 11-9 4 2-2 5-1 9-2"/><path fill="#4E5728" d="M480 193c4 0-2 9 2 14-5-3-6-8-4-11"/><path fill="#4B3C36" d="m93 507 24-1c-7 5-14 2-22 3"/><path fill="#C5CBD2" d="M89 340c-7 3-6 10 3 7-1-3 2-8-1-8"/><path fill="#A9B0A5" d="M509 435c-5 9-11 19-20 25-10 1-1-13-9-14 6 1 2 12 3 16l1-1 2 1 1-1 1-1c9-5 15-13 20-23 4 18 7 33 0 27 23-3 7 16 2-30"/><path fill="#3F4145" d="M499 584c10-2 8 4 8 8-6 4-3-3-6-6"/><path fill="#9EA680" d="M492 320c3 0 3 13-2 13-2-4 0-7 1-10"/><path fill="#4F3D34" d="M141 517c7 1 12-1 18 1-11 3-11 4-14 0"/><path fill="#536407" d="M503 572c-12 6 3 8 6 5 1-5-3-4-4-5"/><path fill="#929E88" d="M585 452c-6 2-11 6-16 10 6 7 19-12 16-8"/><path fill="#E0E6E7" d="m435 140-6 12c1-3 19-9 9-12"/><path fill="#C8CDCC" d="M577 358c7-2 5 6 3 8-6 1-4-4-4-6"/><path fill="#9DA98F" d="M520 504c7 0 1 8-3 9-4-3-2-7 2-8"/><path fill="#989595" d="m143 551 26 3c-7-3-15-4-24-3"/><path fill="#CED5DC" d="M556 424c-4 6 3 14-1 20 3-6 0-14 5-20"/><path fill="#D2D7DB" d="m522 563-7 11c7 1 11-5 7-10"/><path fill="#4E5325" d="M465 180c7 0 0 7-1 10-5-2-1-7-1-9"/><path fill="#A5ABB0" d="M439 478c2 7-9 12-5 19 3 0-2 12 9 7-11-2-6-17-2-25"/><path fill="#BCC0A9" d="M570 529c-4 1-1 4-3 6 6 2 13-6 4-6"/><path fill="#E5E8EF" d="M498 177c-11 7 4 7 6 11 0-4-3-6-5-9"/><path fill="#63544D" d="M378 453c-14 6 1 7 8 4-3-1-3-5-8-3"/><path fill="#C1C8D3" d="M423 57c6-4 7 1 10 4-5 2-7 0-10-2"/><path fill="#4F542C" d="M462 206c2 2 7 8 12 9-5 2-11-1-13-6"/><path fill="#BEBEAB" d="M522 352c-4 3-12 3-9 11-1-5 9-6 11-11"/><path fill="#5C6833" d="M531 412c8-5 8 4 2 6-3 0-5-3-2-6"/><path fill="#C4C9C4" d="M479 324c2 1-1 12-2 16-3-6 0-9 1-13"/><path fill="#5B6352" d="M311 159c7 10 23 18 31 32 4-5-24-23-27-30"/><path fill="#606E0C" d="M485 321c9-2 2 8 0 10-2-2-2-5-1-7"/><path fill="#C5CCC8" d="M551 356c3 3 1 14-4 8-4-6 5-4 2-4"/><path fill="#969B83" d="M529 440c7 0-2 7-4 8-2-3-1-7 2-8"/><path fill="#CBD1CD" d="M587 370c6-1 4 6 0 8-4-2-4-6-1-7"/><path fill="#3C4A14" d="M505 456c-1 4-5 6-8 8 4-2 18 1 10-8"/><path fill="#3C4B27" d="M455 267c-3 2-5 5-6 9-6-2-12-6-20-7 8 3 17 5 20 12l6-12"/><path fill="#647130" d="M545 466c-4 1-4 7-11 7 22 5 28-1 6 1 4-4 19-9 6-6"/><path fill="#5C633A" d="M486 488c4 3-1 8-1 9-4-3-2-5-1-7"/><path fill="#3E3F45" d="M524 587c3-1 6 4 9 3-2 6-8 2-10 0"/><path fill="#4E5417" d="M480 364c-7 5-16 4-11 14 5-6 4-12 13-13"/><path fill="#5A6724" d="M556 355c5-2-1 9 2 11-4-2-6-6-4-9"/><path fill="#C7C8C7" d="M579 244h10c-3 2-12 5-12 2"/><path fill="#564239" d="M177 471c1 0 6 0 7 3-8-6-9 11-11-4"/><path fill="#4E3E39" d="M193 474c4-1 3 3 9 2-7-2 1 10-11 0"/><path fill="#D6DBDF" d="M521 338c-3 7 6 11 9 2-2-2-6 4-7 0"/><path fill="#493A35" d="M182 539c0 3 1 9-8 8l5-6"/><path fill="#A6A79C" d="M472 178h6c-2 7-14 6-7 0"/><path fill="#4D4441" d="M443 394c6-2 5 2 9 4-11 4-5-2-8-1"/><path fill="#4D5C23" d="M517 530c4-3 10 0 7 6l-8-3"/><path fill="#4B403D" d="M440 401c5-3 6 5 11 4-5 5-10 2-9-2"/><path fill="#5D5F68" d="M409 327c-9 12-24 15-33 19-13 3-26 4-36-7 4 8 13 8 20 11 6-3 10-1 14-3 13-4 23-8 34-17"/><path fill="#D5D8DA" d="M511 368c-4 11 11 3 14 2-4-2-6 5-13-1"/><path fill="#BDC3B3" d="M521 497c-1 2-7 0-7 3 6 2 13 3 9-4"/><path fill="#51572A" d="M456 208c11-1 3 8-4 5 0-3 1-4 2-5"/><path fill="#525A10" d="M584 334c-9 17 17 2 1 2"/><path fill="#596241" d="M325 39c-17 10-21 28-32 42 14-15 19-36 30-40"/><path fill="#D9DEE0" d="M571 371c-7 4-4 12 4 10-8 1-2-4-2-8"/><path fill="#4D5923" d="m578 221 6-1c-1 9-16 5-8 1"/><path fill="#979C7D" d="M541 295c9-1-1 7-5 5-2-4 2-6 4-4"/><path fill="#576319" d="M436 195c4 0 1 10-3 8-3-3-1-4 1-5"/><path fill="#556311" d="M514 386c-4 7-8 7-11 13 7-3 9-7 12-12"/><path fill="#B6C0B4" d="m487 556-3 9c5 0 8-4 5-7"/><path fill="#4D592B" d="M580 191c3-2 7 0 10 1-3 7-7 5-8 1"/><path fill="#E5EAF0" d="M583 171c3 2 7 9 11 4-3-2-5-5-9-4"/><path fill="#C7CFD7" d="M497 400c-3 8-7 7-14 11 7-1 11 0 16-10"/><path fill="#5D6B29" d="M544 465c8 2 4 7-4 6 0-3 1-4 3-5"/><path fill="#968478" d="M338 467c0 2 10 0 4 8-2-5-4 1-5-6"/><path fill="#C0C9D4" d="M478 369c7-3 4 8 0 8-4-2 0-4-1-5"/><path fill="#C3CBD5" d="m526 78-3 6c5 1 12-3 4-6"/><path fill="#9CA48B" d="M557 275c12 1-5 16-2 1"/><path fill="#576A13" d="M556 546c9 2-8 6-11 8 3-4 6-5 9-6"/><path fill="#5E4D45" d="M135 510c5 6-11 0-8 6-1 3 29-2 13-5"/><path fill="#687241" d="M498 285c19 5 9 15 12 14 5-7-2-12-7-14"/><path fill="#68714D" d="M506 496c-13 7-20 19-31 27 12-14 20-15 29-25"/><path fill="#C1C7D3" d="M498 58c-6 13 18 1 1 0"/><path fill="#92997A" d="M532 419c12 2-1 14-3 1"/><path fill="#E4E8E6" d="M533 232c-2 7-3 10 6 7l-4-6"/><path fill="#595F5B" d="M327 15c-1 1 26 9 32 17-7-8-16-12-29-17"/><path fill="#636C53" d="M564 43c-4 3-1 15-10 14 2 6 8-1 15-1l2 26v-1l2-2c7-9 16-13 23-23-4 7-18 14-23 22l-4-20c-29-4 17-32 9 9-5-9 3-27-10-23"/><path fill="#5C4336" d="M143 541c2-1 8-2 9 1-5 3-8 2-12 1"/></svg>
