<svg xmlns="http://www.w3.org/2000/svg" width="600" height="600"><path fill="#DDB180" d="M290 0c-5 53 8 102-6 153 1 11 6 18 10 22 6-2 8-5 12 1-9 3-15 27-27 21 17 5 25 17 30 33-4 9-1 7-15 13 2-5-9-19-6-27-7-5-15-2-22-5-22 22-1 16-16 32 6 0 1-2 11-6 2 7-1 7 2 13-15 10 0 14-15 16 14-3 1 11 9 5 9-28 5 13 15-24-1 17 5 19-4 34-4 4-7 5-12 5 13 13 0 15 16 13 6-3 6-4 13-6-10-22 15-24 3-50h5l1 1c3 11 6 5 18 4-7 3-9 13-8 12 20-4 6-14 22-23 3-3 9-6 16-4-9 12-11 14-20 16 9-3 4 16 8 28 4 0 7-2 10 1-4 7-10-1-15 3-9-1-3-12-7-14-8 3-2 18 8 18-15 2-11 11-22 16-1 6 6 6-1 15-8-7-6-17-5-20-19 2-38 25-51 12l-2 2h1c-2 7-4 8-8 14 21-7 6-8 15-11 0 11 8 10-4 22 12-11 5 7 13-8-5 12-2 12 3 12 5-2 0-4 7-9-5 6 5 8-1 14 14-15 4-29 21-30-6 16-16 31-11 48 2-2 3-10 7-10 9-2 8 5 5 9 9-15 13-9 19-13 6-10 4-16 20-24-6 17-12 14-16 27-7 10 25-6 22 13-13-9-24 9-34-6-4 24-21 11-32 29-2 19 12 11 9 24 2-14 6-24 9-12-2 9 4 19-2 26 20 11 11 6 28 22-4 42-2 101-2 140 9 3 7 9 12 4-5-46 9-110-6-146 17-12 27 13 53-12 6-11 3-11 9-20-10-4-17-1-26 0-12 17-25 0-30 17-9-3-12-9-14-15 19 7 32-16 69-13-15-10 16-13 21-22 4 6-2 6-4 8 6 0 16 0 21 10-8 15-13 35-16 44-12 10-36 22-46 14 0 54 4 107 2 137 8-36 4-83 5-128 4 42 4 97 5 134 9 0-5-13 12-5l-4-129c7 1 8-2 12 1-2 41 1 88 1 131 6 5 11-3 12 1 1-75-6-129 0-124 6 33-1 98 8 128V465l13-6c14-1 3 7 13 10-4 33-2 88-1 127 7-34 2-73 4-113 3 38 5 74 5 115l10 1c-5-22 8-57-9-69-1-4 6 1 8 3 1-15-2-28 0-42 20 10-5 49 20 56 4-9-2-36 4-43 2 36 1 67 4 97-4-41 8-56 1-96l-2 2 1-3c12 10 10 4 31 16-7 14-4 43-4 60 13 5-3-52 10-52-15-37-38-52-55-85 3-6 6 5 10 7-3-16-5-18 3-33 4 19-3 36 6 48-11-29 10-42-6-77 9 14 4-8 9-7l3 91c6-30 0-79 3-96 9 2 0 22 11 24 3-11-8-25 3-26 0 22 1 40 4 58-1-31 3-31-1-59 14-1 0 33 19 32 1-16-8-39 7-51-1 26 2 44 1 67l11 13c2-39 1-88 1-118 3 99 6 101 10 111l-1-124c5 50 4 101 7 148 3-99 2-193 1-285-7 26-4 79-4 117-8-41-1-89-7-127-1 40-3 83-2 124-21 22-17 40-37 57-14 7-28-5-43-1l-1 1 2-1c3 1 6 7 8 14-7-9-11-15-22-16-1 18-18-13-33 7-8-16 24-12 6-23-17-7-28-3-34-9 18-28 17 3 22-23 5 3 0 13 4 15 6-3 1-16 5-22 4 5 0 17 4 22 8-7 3-21 5-30 7 7-1 27 7 32 10-6 4-23 7-34 13-1 5 20 8 29 8-2 5-18 8-26l13-3c1 13-8 24-5 30-4 16-26 13-38 11-4 5 2 7 4 12 21-2 49 13 58 2 3-128-2-209 1-321-6 72-5 157-6 237-29 28-54-15-88 21-9 8-3 15 3 24-15 11-14-3-20-3-6 6-4 8-4 16-11-5-4-11-7-15 7-5 16-8 17-20-4-9-15-8-18-16l-2-57c0 1-4 6-10 5 2-11 7-4 10-13 0-61-1-122 1-181l-10-1c-2 63-1 129-1 194v2h1v2l-5 2c-2-60 0-134-1-199-12-1-1 103-5 138-5-47-2-95-5-142-1 50-10 106 0 148-19 10 0 24-8 24-8-6-23-7-26-5-7-5-13-14-14-23-2-43-1-95-2-140l-8-1"/><path fill="#262332" d="M2 0c1 135 8 288-3 411 7 25 27 37 39 47-6 17-17-3-17 6-16-5-5-24-9-18-5 8-18 4-11 40 8 4 18-5 17-16 5 15 22 7 26 26-9 6 2 12 5 16 18-15 12-29 19-38-6-17-11-10-19-24 11-15 11 7 17-5 8-12-7 2-5-11 4-6 0-15 10-8-14-1-11-19-24-19 5-14 10-1 21-4 13 9 18 7 27 13 4 11-5 20-11 14 4 3 36 57 26 81 8 12-9 16-8 28 9 10-3 15 7 18-9 1-10 7-10 13-1-8-8-9-8-15-7 24-20 16-21 24 2-26-32-42-33-62-21-3-6 17-25 6 6 4 4 9 1 11-9 0-12-11-13-17-1 38 5 45-1 80 12 2 24 1 33 1 6-14-3-6 2-26 6 13 11 14 13 27 17 7 3-19 24-16-2 2 12 10 1 15 33 2 74-1 93 0 19-132 4-102 20-259-1 12-4 11-7 9l1-66v64c-1-12-6 9-17-2L157 0c-6 111 1 233-1 342-2 7-10 3-13 5l-3-54 1 52c-4-5-2 5-9 2l-1-66c-3 22 4 53-6 68-5-74-2-126-5-191-3 60 3 112 1 189-13 25-9-123-10-166-3 53 6 118-2 173-6-10-6-11-5-15 0-69-3-133-2-201-2 74 1 131 0 200-7-12 3 21-15 9L82-1c-7 119 2 227-5 344 1 9-7 6-11 6-2-29-1-56-2-84v82c-4-42 0-38-4 9-13-10-3-17-13-3 14-33-6-14-1-52 4 44-11 8-4 51-7-18-9 10-10-17-1 8 3 17-4 15 0-10-3-20-2-28 1 25-5-6-4 15 2-8-12-4-13-9C7 216 8 106 6-2"/><path fill="#96795A" d="M501 2c-3 112 2 193 0 322-2 6-9 0-9 8-17-10-46 0-57-16 13-8 36-2 40-17-6-9 5-11 4-29-4 5-7 24-8 33-4-11-1-21-2-32-4 8 0 26-8 29-5-11-2-24-5-33l3 43c-9-4-10-7-19-7l-1-33c-1 13-3 27 1 29v9c-10-8-1-4-4-8-6-1-4 9-11 10 2-7 6-19 4-32-1 52-18-19-6 37-7-8-3-21-11-19-8 14-19 10-29 13 22-6 18 6 36 3 5 0 10 0 12 4 16 10-16 15-3 24 11-19 29 10 27-10 13 5 20 11 20 20 1-9 0-12-5-14 17-4 32 7 46-1l1-1v-2l2 1-2-2c18-14 13-34 34-51l-9 6c10-43 7-149 9-158 8 38 4 78 6 156 1-36 2-80 1-119 13 12 5 61 7 84-5 146 13 103-4 226-3-12-4-23-3-33 5-31-1-94 2-136-4 55 0 94-1 130-5-26-12-6-8-127 1 43-4 53-2 128-5 0-9-11-13-13-4-18 2-71-7-65 2 40 6 46 5 91l1-22c5 8 13 18 12 27 2 11-7 8-11 1 0 20-2 41 1 59-20-19 2-75-22-104 3-17 11-1 12 8v-42 31c-13-5-14-21-12-36v70c-4-23-3-46-4-68l-2 61c-6-17-2-54-7-60-11 27-11 43-11 100-9-3-13-22-15-14 0-4-3-6-1-9 5-2 1-18 2-32-8 13-6 13-2 31-6-2-9-10-12-11 19 33 30 44 52 73 11 16-7 17 0 24l-1 27c2 11 10 6 14 16-1-19-18-2-11-43 4 6 5-1 12 6-6 31 2-5 16 30 3 0-18-5 0 28 11-12 3-4 24-2 0-11 4-24-2-33 3 8 5 23-1 28 1 1-21-1-22-24 2 7 13 17 15 1-2-8-6-24-12-33 13 3 12 16 21 16 1-10-2-64 0-110 3 10 3 17 3 24-4 65 9 116 1 114 11 23 5-1 7-6 6 7-2 23 8 23 1-11 2-23-2-31 0 2-5 1-3 6-2-2-4-2-4-4l-1-87c-3-14 4-16 4-28-12-14-1 15-4 25-5 3-2-9-5-11l-1-21c-1-99-4-210-2-297 8 62 5 143 7 221 8-56-4-156 4-222 6 70 5 189 7 225 5-254 6-193 12-370-4-1-6-5-13-5-2 28 3 61-1 90-8 2 3-42-4-89-5-10-5 16-4 80-3-40-5-52-3-78-5 62-9-53-6 86-3-171-8 16-10-89-2 24 2 54-3 74 2-32-3-52-3-74-4 25-3 51-5 77 0-34-6-51-4-75-4 28-9-24-7 27-3-11-1-21-3-29 1 84-8 198-1 294-2 17-13 29-15 39-1-14 12-23 7-43-2 8-6 15-10 21-1-56-2-111-1-164 6-1 1 5 11 1l1 32v-29c4-39-15-32 1-48-7-5-8 3-12 3-1-4-2-7-1-10 9 6 1-13 11 3l1-33c-2-7-7-3-1-1-1 20 0 15-10 20 1-5-9-50 9-49-4-6-14 4-10-13 4 1 7 5 11 3-4 0-14-10-11-4 0 5-2 6-3 4 0 9 3 88-5 84-3-35-2-73-3-110"/><path fill="#A37549" d="M250 0c-1 50 0 108 2 155-8 17-1 29-18 33 8 38 0 65-3 90 12-9 11 10 12-10 5 6 5 12 4 13-1 7-8 2-15 6-4 13 8 22-1 32 5 19 8 51 24 67-2 10-13-3-16-16-2 1 10 26 11 22-6 45 3 36 4 76-2-24 2-50-4-73 8 5 4-11 11 15 0 9-8-11-5 2-5 57 11-1 3 50 12-35-7-22-3-48 6-4 7 4 6 6l1-11c-1-3-1-8 2-6l-1 8v166l1-163c9 10 4 24 7 37v-31c2 7 21 11 19 20 2 23 1 47 2 72v-73c3 0 16 0 11 14l1-9c4 4 6 3 9 4-13-11-13-21-26-22-2-8 2-7 3-11 0 2 13 10 9-5 3 9 3 2 10 9-1-8-4-23-6-25-1-4-12 8-13 16-1-8-2-20 0-33 1 38-7 0-8 39 2-26-15 0-11-32 13-5 13-10 28-15l5-11c11 9 27 2 34 2-12-11-20-2-22-9 2-14 12-13 15-25-13 10-14 12-18 25-8 1-11-4-21 14 7-15 3-15-5-10-3-3-5 6-9 8-1-11 2-36 15-47-20 1-6 15-21 29 1-6-5-8-2-13-4 4 0 5-8 10 4-6-9-4 0-13-6 11-6-3-15 8 8-7 6-16 15-19-1 3 1 4 2 1-22-2-2-10-29 9 6-11 8-10 9-19 15-5 8 8 21-1-8 5 8 14 5 9 7-6 2-8-3-7 16-7 6-13 27-14 3 4 2 11 5 21 9-11 1-8 1-14 18-8 7-16 22-16-8-2-14-13-7-21 1 14 11 14 24 15-18 3-10-23-14-27 7-17 9-6 16-19-33-4-14 26-38 26-1-3 1-9 8-12-14 1-17 6-19-5 42-14-11-25 17-24-39-37-1 1-31-17 12-3 17-22 25-27 1-7-5-1-11 1-3-5-9-13-9-22 12-130-1-212 5 0-17-27-2 13-12 22 7-119 2-30-9-88 17 17 8-57 12-76-7-12 5 73-6 59-6-17-3-60-6-72-3 64 4 118 3 187 3-61-19-125-10-186-3 38 3 73-5 112-4-43-5-76-6-111"/><path fill="#877A66" d="M21 3c-2 39 8 138-11 133 5 3 3 0 12 7-2 52-2 101 0 146-5-46-2-101-11-69-2 15-1 56-2 107 16 0 22 21 29 19-3-38 11-2 6-48-4 40 19 19 2 52 8-18 4 2 13-1l1-38c3 13 3 25 3 38v-85c6 27-4 70 7 88 13-122 4-232 8-352-4 103-1 134-1 248-1-109-12 43-10-121l-1 94c-6-52 0-111 9-112-7-3-8-11-10-6-1-35-3-69-2-102-8-19-1 58-4 103-10-37-1-78-7-105-3 41 0 83-3 120C39 81 50-11 41 7c-1 34 1 86-2 127-3-16-5-84-5-134-4 34-3 85-4 121-7-16-5-82-6-121"/><path fill="#4C3AB5" d="M56 399c-2 9-7-3-9 7-10 6-15-5-24 3 13 23 31 9 27 23 4-11-3-18-6-22 17-2 14 14 28 12-13-1-4 6-11 13 12 0 3 13 13 6-13 16-12 1-22 5 6 17 11 11 18 27-2 10-12 9-4 23-13 2-11 11-17 19-3-5-17-15-2-19-8-20-25-9-28-24 0 11-11 19-18 12l-1 19c4-1 17-4 16-8 3 6 0 15 7 20-13 5-10-4-23-4 1 11 4 18 8 23 10-17 12-5 28-23 6 20 13 30 28 45 5 24-2 6-4 27 12-11 16-3 29-27-7-16-3 21-20 6 17-17 1-22 13-41-2-7-6-6-8-4 8-20-5-16 0-33 5 13 5 9 19 16-1 3-2 27-8 42 6 10 9 15 12 25 16-12-4-37 17-56-6-19-9-15-4-30-5-11-15-5-21-8 0 2 4 5-2 11-1-8-1-20 4-17l1 3-1-3c-6-2-7-1-11-6 3-5 5-6 15-11-8-8 1-24-3-33-9-2-21-15-35-13"/><path fill="#87765F" d="M105 17c5-37 6 105 0 145-1-43-7-89-4-145 0 79-9 94-2 182-11-27-13 3-13-51l1 202c17 2 4-24 15-11 0-70-3-128-1-202 2 102 3 64 3 218 13-52 2-123 6-180 4 45-2 196 12 159-5-99-1-159-2-281-2-60 1 205-9 59-2-12 0-71-3-115"/><path fill="#896A49" d="m400 0-1 3c-5 78 3 125 0 220-4-8-2-19-3-28-1 17 6 38-11 46l-1-116c-1 37 2 79-1 114-1 5 4 8 2 12-4 1-5-2-7-3 3 6 14 6 17 13 0 15-9 17-17 22 6 4-5 11 6 13 0-7-3-8 1-14 12-1 7 12 24 4-8-9-13-18-5-29l3 1h1l2-2c11-12 42-15 38-8 6 5 39 3 42-9 6-271-1-274 2 30-12-103-7-188-9-268-2 80 0 158 0 238-1-3-4-9-7 2-2-83-1-169-2-244-1 75 0 170-3 250-22 3-6-17-19 2-3-12 2-24-6-25-8-4-2 9-5 12-5-55-1-140-3-236-3 51 0 149-2 216-11-17-3-59-8-88-4 30 4 65-4 97-5-82-4-149-5-226 0 71-5 154 2 218l-1 30c-4-4-2-22-3-31-11 8-2 29-7 40-15-60-6-172-11-253"/><path fill="#CCB48E" d="M159 0c0 109 4 214 3 322 6 8 10 14 15 17 0-110-3-226-4-338l-12-1"/><path fill="#251A10" d="M226 0c5 121 1 299-4 290 8-74 11 236 11 301 7-72 4-142 5-221 2 11 18 27 18 17-19-18-21-52-23-67 6-10-6-20-1-30 3-10 14 1 15-8 2-8-6-11-5-17-1 5-1 6 2 16-11-2-15-1-12-11 9-72-2-202 0-269"/><path fill="#CEB897" d="M195 0c3 203 4 402 5 603 5-207 5-408 1-607"/><path fill="#CEB694" d="M204 0c4 198 4 403 6 603 5-206 4-409 1-606"/><path fill="#B2743E" d="M400 375c12 12-39 20-15 26-48 1-59 21-72 10 3 9 4 17 10 18 10-13 26-4 33-16 12-1 16-6 26-1-4 29-12 20-29 34-14 0-23-10-35-3 11 22 9 6 11 25-1-5 2-13-3-16 4-1 7 5 11 1 0 5-2 2 0 6-1 42 0 66 2 100-2-30 2-85-3-96 8-2 6-9 10-6 1 102-1 103 7 118-5-2-7-65-5-115l-1-2v-1l1-3c1 9 9 6 6 15 0-6 5-5-1-11 23 4 23-3 43-10l2-1h2c5 7-6 17 9 7-1-2-6-3-10-6 7-14 10-34 21-50-13-14-18-14-16-24"/><path fill="#D1BA94" d="M140 0c-1 98 2 195 3 298 4 6 8 10 10 15 2-93-2-202-2-301 1-10-1-14-10-12"/><path fill="#D0BA99" d="M185 10c6 163 2 522 8 594 4-208 1-458-2-600"/><path fill="#D6B794" d="M457 0c2 78 1 163 2 245 3 2 5 3 9 3 5-80 3-169 3-242-2-7-1-6-12-6"/><path fill="#D2B58E" d="M383 0c2 80 3 157 2 240 16-9 9-29 11-45 2 7 1 17 2 26-1-93 2-150-4-228"/><path fill="#C4B08E" d="M218 308c-1 101 2 184 0 289 3 3 8 1 11 2-1-149 4-241-11-269"/><path fill="#C8B18C" d="M239 376c1 64-1 149 2 221 8 6 11-6 12 1 3-99-2-189-9-213"/><path fill="#CFB793" d="m214 0 3 264c15-67 11-160 6-271"/><path fill="#D1B58D" d="M234 0c1 63 3 121 3 186 12-7 6-14 13-28-7-49 7-120-8-163"/><path fill="#D1B38C" d="M439-1c1 84 0 141 2 222l-1 13v-12c5-1 8 2 10 2-2-79 4-166-3-228"/><path fill="#DFBA8C" d="M588 201c2 89-1 179 4 263 4-90 11-189 4-266"/><path fill="#D59C62" d="M270 211c10 3 12-1 20 5-5 3-6-1-15 0 27 3 12 24 15 20 6 12-5 39-6 53l-12 15c2-15-19-2-16-16 4-5 4 1 12-8 9-18 2-15 5-32-2 7-4 14-8 19-4-2 1-6 1-10-8 5-4 11-10 15 2-7-6-1-8-3 6-5 6-2 14-14 1-1-4-21-7-24 1 0-4 3-5-1 17-6 25-9 21-15"/><path fill="#D5BC99" d="M175 0c5 122 0 259 10 369 1-126 0-249-3-372"/><path fill="#C8A780" d="M545 125c3 22 0 89 4 138 3 13-7 10-15 15 0-52-3-96-2-148l10-2"/><path fill="#B2A38C" d="M9-15c-3 206 2 222 13 286-3-27-3-76-2-124-4-14-7-11-8-3 15-3 6-101 8-141-9-4-6 0-7 9-1-16-1-5-4-10"/><path fill="#BAA686" d="M83-1c6 96-3 203 12 190-4-78 5-94 4-179-2-22-2 11-1 16-2-8-4-16-3-26h-9"/><path fill="#D3B189" d="M533 100c9-3-7 99 2 178 1-4 7-6 10-3 0-97 1-173-6-178"/><path fill="#D3BA94" d="M309 0c1 49-1 97 2 144l9 3c4-49 4-98 2-146l-10-1"/><path fill="#9E8264" d="M485 502c4 8-5 6-5 5-6 7-4 28-5 40-5 4-14-12-15-6-2 1-2 4-1 4-2 20 1 36 1 52 2-14 2-34 0-49 5-3 15 5 17 11-1-3-2-6-1-10 4-9 0-28 2-40 12 37 0 51 8 89 5-5 0-20 3-27 10 5 4 17 7 26 2-4 1-13 2-19 6 5 9 11 7 20 3-1 1-15 8-6-6-2-11-56-2-76l-1-1 1 6c-10-12-25-4-23-17"/><path fill="#B0A189" d="M64-9c5 306-2 129 13 253-1-95-4-158-1-243-7-1-7 2-10-1"/><path fill="#D2B892" d="M129-1c2 118 2 217 6 317 1-79 5-191 0-326"/><path fill="#D1BA96" d="M294 436c-1 54 0 108 1 161l10 2-1-143c3-13-5-18-9-17"/><path fill="#DEC09D" d="M504 0c0 107-1 213 1 322 7-143 0-219 5-323"/><path fill="#DFB98C" d="M578 153c2 116 0 239 5 349 2-97 1-242 0-345"/><path fill="#D7BA98" d="M514 146v163c3-6 8-12 9-20-3-50 9-115-7-146"/><path fill="#2B1D10" d="M376 0c2 84-2 175 2 254 5-85 6-172 3-255"/><path fill="#DCB88D" d="M569 151c1 98-1 230 5 333 2-90 0-230 0-332"/><path fill="#CDAD8A" d="M508 114c4 53 4 145 1 210-4-72-8-136-6-208"/><path fill="#816646" d="M308 0c3 59-5 128 6 170 14-18 16 3 25-3 9 2-8-12 15-24V0c-2 49-1 92-1 142-14-38-5-94-9-141-5 54 5 90-4 142-6-53-4-91-6-143-5 70 8 95-8 162-3-9-1-12-2-16 2-42 1-92 2-136-3-23 1 96-2 128-4 11-8 7-12 7-5-47-3-94-4-144"/><path fill="#E0C3A1" d="M484 0c2 80-2 163 2 241 4-81 6-172 3-245"/><path fill="#C6B291" d="M183 380c-5 68-1 148-2 217 8-66 4-139 6-214"/><path fill="#DDBE9A" d="m475 0 1 238c8-75 3-165 5-243"/><path fill="#2C1D10" d="M526 2c-6 100 8 230-7 334 1-16 10-26 12-40-8-99 3-216-2-298"/><path fill="#D2B38E" d="m400 0 3 222c4-69 5-153 3-223"/><path fill="#D2B08A" d="M410 0c0 74 2 146 1 223 5-68 6-158 5-226"/><path fill="#D7B791" d="M420 0c1 78-1 146 2 222 4-61 6-215 2-220"/><path fill="#D6B489" d="M429 0c2 77 1 140 2 220 5-71 5-151 4-223"/><path fill="#D1B592" d="M120 2c2 58-1 147 6 192 2-61 1-132 0-196"/><path fill="#867762" d="M132 178c-16-25-7 61-9 171 15-253 4 15 7-197"/><path fill="#C8B089" d="M257 415c1 42-3 130 2 187 4-66 3-160 1-186"/><path fill="#7D6B51" d="M212-11c0 222 8 289 3 452l2-134c12 87 12 40 14 179-7-387-7-72-21-492"/><path fill="#7F684D" d="M552 434c-7 23 17 33 11 117-5-23-3-45-5-64-7-4-6 23-3 41-8-14-4-38-9-58 7 0 1-34 3-49"/><path fill="#CFB68E" d="M265 414c2 54-2 128 3 188 1-54 7-135 0-187"/><path fill="#D4BB92" d="M284 430c0 47 0 118 2 172 4-60 5-119 3-172"/><path fill="#D3B990" d="M274 422c2 60 1 121 2 181 6-75 3-150 3-176"/><path fill="#302011" d="m451 0 1 248c0-86 6-172 3-250"/><path fill="#24180D" d="M379 466c1 45-1 95 4 136 4-49 5-95 2-139"/><path fill="#2A1D10" d="M305 444c1 52 1 107 3 158 4-56 4-108 2-159"/><path fill="#DAC09C" d="m326 0 1 145c7-48 6-101 4-148"/><path fill="#D5BD9A" d="M328 448c3 49 2 102 3 151 4-46 7-120 2-151"/><path fill="#CEB491" d="M110-7c2 118-1 167 9 153-1-69-1-128-5-135"/><path fill="#DCBF92" d="M280 0c2 46-1 90 1 136 4-42 7-96 4-139"/><path fill="#83745D" d="M0-10c3 220 1 178 0 361C5 244 3 112 1 2"/><path fill="#302011" d="M527 361c2 50-3 117 4 159 4-71 2-115-2-152"/><path fill="#D5C3A6" d="M341 453c-4 37 0 101-1 143 6-37 6-92 4-139"/><path fill="#D5BC99" d="M335 0c2 50 0 91 2 138 8-43 3-93 4-141"/><path fill="#A09481" d="M49 122c3 51 1 100 2 155-9-70-2-117-7-145"/><path fill="#91806C" d="M495 385c19 108 8 87 4 88-14-25 0-40-4-68"/><path fill="#23180C" d="M302 0c3 51-3 105 4 154-2-51 4-102 1-157"/><path fill="#D7B98E" d="M270-1c1 52 0 86 4 132-2-47 7-105-1-134"/><path fill="#CCB289" d="M101 0c0 59 2 113 5 169 3-52 5-186-2-153"/><path fill="#D7B98C" d="M260 1c4 35-3 80 6 119-1-40 5-85-1-122"/><path fill="#C1AC91" d="m494 518 2 48c4-12-6-46 7-41 1 20 3 35 2 51-11-8-7-2-16-12-1-19 1-26 2-43"/><path fill="#D7C2A4" d="M413 467c3 45 0 91 4 134 3-48 4-99 1-133"/><path fill="#DDC7A7" d="M425 471c-3 37-1 91 1 130 2-43 6-94 1-128"/><path fill="#A1947F" d="M40 130c4 47 0 93 1 139-5-50-6-108-3-126"/><path fill="#58519F" d="M29 405c13-1 19 6 23 14-13 4-13 16-25 22-7-4-8-9-7-15 3-3 6-3 8-3-1 5-5 8-5 11 3-5 9-12 14-12-3-5-12-5-14-12l3-6"/><path fill="#D3B68A" d="M251 0c1 36 2 69 1 108 8-33 7-75 4-109"/><path fill="#DCC7A8" d="M462 545v52l12 1c2-13 2-27 1-39-2-6-7-9-11-13"/><path fill="#A29581" d="M59 130c2 54-2 102 1 161-4-52-7-114-4-161"/><path fill="#8A6541" d="m424 460-13 5h-2v2l-1 10v-11c3 4 2 7 3 11 0-25 3 14 1-12 9 6 6 9 10 5 1 4 0 5 2 6-7 16 0 86-3 122 3-41 0-80 2-121 3-7 6 6 7 0-1 30 1 85 2 121 1-41-2-100 0-131-6 0 2-8-5-7"/><path fill="#8E7B62" d="M590 505c3 31 0 65 3 95 6-6 10-77 0-93"/><path fill="#4635B6" d="M0 416v35c13 8 4 2 14-9-8 7 1 15 6 19 0-8 10 11 14 2-7-15-29-25-33-47"/><path fill="#D0BA9C" d="M348 456c1 41 0 86 3 123 3-22 7-97-1-123"/><path fill="#2E1D57" d="M75 483c-6 17 9 14-1 32 2-5 8 1 10 3-13 22 3 27-12 48-1 0 6-5 8-1 13-17-1-38 12-48 3-18-8-17-17-30"/><path fill="#BCA68A" d="M550 537c-3 15 12 10 7 42-15 6-4-16-12-5 6 23 19 16 18 17 11-8 0-28 7-30-10-8-12-19-19-25"/><path fill="#B59875" d="M531 10c14 66 6 50 11 84-15-22-8-54-11-79"/><path fill="#9E927E" d="m30 179 2 129c-1-88-8-14-6-134"/><path fill="#836B4E" d="M193-7c1 230 7 403 4 587 3-190-1-352-3-584"/><path fill="#7C674D" d="M182-8c10 226-1 379 6 486 3-145-2-313-4-478"/><path fill="#867C67" d="M141 229v68c2 17 1 32 2 48l10 1c2-9 1-22 2-31l1-41-1 38c-5-2-8-8-13-12v-69"/><path fill="#ADA28E" d="M46 124c0 49 0 102 2 155 1-56 2-103 1-152"/><path fill="#4535B4" d="M49 545c2 12 8 17 0 35-12 3-9-16-15-15 8 0-1-12 12-17"/><path fill="#BEAF9A" d="M25 1c1 39 0 103 3 122 1-38 2-87 1-124"/><path fill="#8D6E46" d="m361 0 1 199c6-2 14-11 13-15 1 2-9 8-10 9L363-2"/><path fill="#49331C" d="m578 468 1 100c1 9 4-3 7-2 5 10 2 24 4 33 5-222-10 88-11-150"/><path fill="#BBAB97" d="M34 0c3 40 1 92 3 132C41-4 38 28 36 20"/><path fill="#807461" d="M132 286c1 18-1 44 2 62 5-8 9-48 2-61"/><path fill="#B8AA97" d="M47 5c-4 16-3 81-1 113 4-37 2-79 2-118"/><path fill="#85643E" d="M587 377c1 45-5 91 1 117 4 0-3-19 10-9-8-19-10-52-10-110"/><path fill="#7F603E" d="M407 0c3 69 0 149 3 217 1-76-1-146-1-218"/><path fill="#CAAE8E" d="M523 33c-3 7-6 5-8 11-2 26-2 43 6 42 6-11-2-38 1-49"/><path fill="#8C7860" d="M579 485c6 34 1 35 4 86 4-29 7-66-3-85"/><path fill="#5A5852" d="M180 515c-12 24-7 55-11 83 9 3 9-3 10-9l2 9c-6-23-3-42-4-75"/><path fill="#C7854C" d="M301 388c-4 27 10-8 10 35-7-8-11-7-7-14-6 19-11 0-10 14-1-12-2-22 4-30"/><path fill="#4839BF" d="M49 547c-13 1-9 18-14 15 8-2 1 18 12 16 10-14 2-19 3-30"/><path fill="#2F1C0D" d="M455 494c-1 36 1 71 1 106 0-42 5-83 2-102"/><path fill="#82694A" d="M203-1c0 181 6 350 3 527 4-174-1-352-3-526"/><path fill="#B6A893" d="M55 0c1 29-3 67 1 104 2-31 4-69 1-104"/><path fill="#AFA18D" d="M39 141c-4 22-1 71-1 126 1-44 4-86 1-133"/><path fill="#99856E" d="M508 432c6 34-3 13 11 70-4-28-18-35-13-68"/><path fill="#C7A783" d="M532 13c3 25-3 56 3 80 1-33 10-18-5-78"/><path fill="#CA9864" d="M265 340c-6 26 7-7 6 17-7 32-11-18-12 13-9-13-3-21 3-24"/><path fill="#E1CEB2" d="M497 524c3 16-5 41 6 52-1-17 3-37-2-52"/><path fill="#392512" d="M529 550c4 14-5 41 5 50 3-13 2-24 1-35 5 5 9 13 12 21-7-24-4-20-18-34"/><path fill="#836A50" d="M482 383c2 13-4 62 3 82 2-29 1-54 0-83"/><path fill="#AEA28E" d="M57 129c-3 45 0 110 2 159-3-57 1-96 0-154"/><path fill="#5A4A38" d="M253 167c-2 18 7 43-5 53-1-90 4 15 2-50"/><path fill="#4035AA" d="M28 570c7 4-4 19-3 27-8-6-13-10-14-15 4-5 17 1 14-9"/><path fill="#D3B895" d="M516 539c2 9 1 23 2 31 13 6 7-21 10-25-3-7-6-3-8-4"/><path fill="#D3B087" d="M587 94c1 12 4 21 0 33 6 5 5-5 11 6 6-41-9-10-5-41"/><path fill="#98B0C0" d="M93 452c-22 9 1 19 14 25-2-8-6-16-12-24"/><path fill="#7E5E39" d="M456 45c2 62-3 124 1 190V46"/><path fill="#BCAE98" d="M496 400c3 31-1 77 1 84 2-27 8-38 0-85"/><path fill="#5F4E3A" d="M261 150c2 14 5 43-5 55-1-85 6 10 3-52"/><path fill="#B1A591" d="M27 171c-3 122 4 49 2 139 2-44 0-89 1-127"/><path fill="#8F7656" d="M137 104c7 90-3 117 0 168 3-55 3-106 2-164"/><path fill="#3F34A3" d="M4 391c5 6 8 5 15 2-6 11 3 9 5 15-10-3-24-1-23-16"/><path fill="#7E613C" d="M426 0c1 42 1 83 3 124L428 0"/><path fill="#C7874E" d="M453 371c-1 6 17 27 20 42-25-28-9-8-25-44"/><path fill="#C4854C" d="M328 182c20 7-8 11-29 14l10 5c-10 3-14-2-17-8 2 1 25-1 34-8"/><path fill="#CCB18C" d="M535 428c3 11-5 30 10 34 5-9-3-23-9-32"/><path fill="#42359E" d="M93 570c15 5-8 6 14 10-15 0-1 12-15 13-4-8-6-14 0-19"/><path fill="#C88043" d="M371 352c-6 27-6 9 5 19-7 6-10 7-13 6 0-5-9-10 3-19"/><path fill="#A48566" d="M333 226c7-4 29 11 29 0 3 3 2 7 4 10-28 0-12-1-36-10"/><path fill="#291C5A" d="M15 489c5 13-5 13-14 14-8 14 14-1 9 15 8-10 6-1 11-2-7-10 0-20-5-24"/><path fill="#D4A36F" d="M265 344c-9 7-14 14-8 26 3-5 0-7 3-10 3 6-2 4 8 7 12-32-11-7-3-23"/><path fill="#C98648" d="M429 426c9 21-5 7-6 22-14-9 2-3-7-11 8-1 1-11 12-8"/><path fill="#433AB3" d="M27 571c1 9-8 11-15 9 2 8 8 18 15 15-4-8 2-17 4-23"/><path fill="#4237B8" d="M71 583c-10-3-12 10-15 13 7 3 15 4 18-2 5-8-6-6-5-10"/><path fill="#C47F41" d="M441 423c-1 4-6 14-5 17-4-4-8-4-6-11-11 2-10 6-13 14 9 5 5-11 23 1 6-4-2-17 4-20"/><path fill="#CCB595" d="M514 0c-1 9-5 25 10 21-1-7 0-21-8-21"/><path fill="#D6B88F" d="M591 483c1 8-5 26 6 27-1-9 6-23-3-27"/><path fill="#CDB899" d="M518 572c-1 8-1 19 6 23 7-9 4-18-4-22"/><path fill="#B57C4E" d="M461 347c12 5 17 17 17 28-10-7-12-17-16-24"/><path fill="#4E371F" d="M569 448c-2 31 1 94-1 107 3-33 3-73 1-107"/><path fill="#A6947B" d="M26 139c9 6 2 27 5 39-8-9-4-23-6-35"/><path fill="#AC9B80" d="m94 82 1 76c-3 1-1-44-3-71"/><path fill="#BA9A76" d="M534 90c13 7-2 18 4 27-11-10 1-24-6-21"/><path fill="#483689" d="M71 443c6 15 3 5 12 2-10 15-2 6-4 23 3-13-22-9-7-20"/><path fill="#A69780" d="M517 442c-1 18 2-15 8 40-10-15-11-22-9-41"/><path fill="#B89F81" d="M516 115c-6 18 21 12 1 27-8-1-3-17-4-22"/><path fill="#856C4A" d="M174 0c0 75 3 146 2 215 3-70-2-141 0-215"/><path fill="#493A25" d="M583-1c1 39-1 64 2 88 2-27-1-61 1-87"/><path fill="#443AB3" d="M4 392c-7 11 11 14 16 16 2-4-9-5 1-12-7-5-13 9-15-4"/><path fill="#D2B188" d="M600 152c-18-2-10 28-11 36 7-7-3-27 13-30"/><path fill="#777161" d="M163 325v19c4 1 6 2 11 1 4-9-7-11-10-19"/><path fill="#321E0F" d="M452 269c3 12-4 33 3 41 2-18 0-26 1-40"/><path fill="#4A3119" d="M550 418c0 41-1 78 1 117l-1-116"/><path fill="#B1A087" d="M519 469c-1 9 10 16 9 27-10-3-16-17-10-26"/><path fill="#4A3CB2" d="M94 572c-6 6-6 10-3 19 20-13-1-12 7-19"/><path fill="#371F85" d="M53 517c11 10 12 7 17 8-4 8-7 9-12 9-7-5 0-8-4-13"/><path fill="#D0BC9F" d="M492 519c0 18-5 28-1 47 7-18-2-30 3-43"/><path fill="#C1773A" d="M369 356c-15 10-5 15-8 20 23-8 3-8 8-17"/><path fill="#876C4B" d="M127 0c1 55 2 95 1 149 3-50 0-97 1-149"/><path fill="#C29360" d="M289 180c-3 12-4 10-12 15-5-12 4-5 6-13"/><path fill="#4333B3" d="M35 571c-5 23 4 11 1 26 3 1 7 2 9 0-4-13-5-11-9-23"/><path fill="#A57C56" d="M332 226c4 6 0 3 17 6-2 9-12 10-3 15 7 1-2-9 1-12 9 1 13 0 18 3-3-8-19-9-29-12"/><path fill="#CD8648" d="M441 422c3 3 5 25-6 21 9-5-6-6 7-20"/><path fill="#4A3D24" d="M544 0c-2 28 4 43 2 78 2-28 2-56 0-78"/><path fill="#7B5B36" d="M438 474c5 67 0 141 5 105l-3-99"/><path fill="#503F2B" d="M269 117c3 25-4 43-3 67 7-17 4-44 4-64"/><path fill="#A0927B" d="m126 236 1 40c-5-16-2-15-3-38"/><path fill="#866138" d="M577 389c-1 24-1 42 1 63 1-19 3-53-1-61"/><path fill="#D6C4A9" d="M489 571c2 7-3 24 4 29-1-9 5-22-2-29"/><path fill="#C29F77" d="M588 160c8 4 2 25 6 28-9-2-6-15-7-25"/><path fill="#5A4E42" d="M62 101c5 5 1 21 3 30-5-7-9-15-2-26"/><path fill="#644C35" d="M401 218c0 13 2 29 1 42-4-15-3-28-3-39"/><path fill="#B49A75" d="M252 128c6 8 8 24 2 33-2-9-1-20-3-29"/><path fill="#C1AF95" d="M518 402c-5 11 5 19 8 29 2-11-3-26-8-27"/><path fill="#625A4D" d="M9 340c4 1 12 4 14 8-7 4-19 6-14-6"/><path fill="#BF7F46" d="M450 368c10 35 0 18 23 44-4-14-19-30-22-40"/><path fill="#5B4F43" d="M53 106c3 11 1 27 2 39-7-15-4-20-2-36"/><path fill="#483B23" d="M553 0c2 23 3 47 2 66 2-21 1-47 1-66"/><path fill="#D08848" d="M442 400c8 9-5 13 8 23-15-1-9-17-11-22"/><path fill="#A87143" d="M462 349c4 7 7 18 14 25 1-10-3-18-12-25"/><path fill="#D3C1A5" d="M349 578c3 6-4 22 5 21 0-8 5-21-3-20"/><path fill="#AFA088" d="M67 14c2 17 0 39 1 58-2-18-3-36-2-54"/><path fill="#B29272" d="M558 126c13 9-3 19 9 27-12-2-7-15-9-23"/><path fill="#4A3B29" d="M252 166c-2 76-5-37-4 63 12-20 0-39 5-58"/><path fill="#BBA588" d="M554 435c0 28-3 40 3 65 4-18-3-36-2-63"/><path fill="#C2915C" d="M272 213c1 7 4 8-9 13 4-6 0-11 5-12"/><path fill="#C4B298" d="M506 433c1 16-1 36 6 44-13-42 6-6-5-44"/><path fill="#B5733A" d="M329 183c-10 11-28 11-36 9 2 9 9 10 16 10-3-3-12-3-12-6 17-5 47-5 33-12"/><path fill="#5B5140" d="M94 371c10 4 4 16-7 10-2-6 0-10 6-8"/><path fill="#A5977E" d="M89 131c0 53 1 15 3 43-6-7-4-25-5-32"/><path fill="#BA956F" d="M541 96c8 10 4 16 1 20-5-4-3-11-1-16"/><path fill="#836844" d="M281 442c-2 25 3 87 2 127 1-45 0-92-2-126"/><path fill="#D0AB84" d="M552 119c-6 11-1 34 3 23-6-6 4-11-3-22"/><path fill="#C77F42" d="M361 352c9 1-9 13-13 14 0-8 6-10 11-13"/><path fill="#CAB091" d="M514 118c0 6-3 21 2 23 19-15-5-4-1-23"/><path fill="#B3A087" d="M26 141c1 13-1 26 2 36 1-12 2-26 1-36"/><path fill="#A28D71" d="M562 475c5 17 3 21 2 32-3-6-3-18-2-27"/><path fill="#674F39" d="M428 217c4 7 3 21 2 28-3-8-5-17-3-25"/><path fill="#C39D74" d="M586 94c10-3 14 11 3 13-2-2-3-8-2-11"/><path fill="#543C26" d="M513 372v69c3-25 0-44 0-67"/><path fill="#A88C6E" d="M561 55c1 19-2 9 2 25-7-5-6-15-5-23"/><path fill="#D4C1A4" d="M498 578c3 6-4 22 5 21 2-9 2-15-4-19"/><path fill="#CA9059" d="M301 274c3 0 7 11 6 15-8-3-10-7-8-13"/><path fill="#301772" d="M54 519c5 7-1 9 3 14 5-1 8 0 10-5 1-3-5 2-11-9"/><path fill="#C4864F" d="M269 308c12 3 4 5 4 10 1 0-16-3-5-9"/><path fill="#CD9F6B" d="M295 179c-7 4-21 4-19 15 8-4 11-2 17-15"/><path fill="#634935" d="M511 307c4 6 2 23 3 30-3-9-4-18-4-27"/><path fill="#675D4E" d="M55 298c2 12 0 30 1 43-3-13-3-26-3-40"/><path fill="#B99066" d="M580 91c7-1 6 14 0 13-6-20 3 0-1-10"/><path fill="#746C5C" d="M10 340c-4 11 3 12 12 10-1-5-7-6-10-9"/><path fill="#5D5E78" d="M50 426c4 5 8 2 11 5-3 13-16-2-12-2"/><path fill="#C4B398" d="M519 471c-6 5-2 21 7 23 2-9-8-12-8-21"/><path fill="#B19371" d="M532 521c10-1 8 3 17 8-10-2-10 0-15-5"/><path fill="#BE8552" d="M344 193c5 0 13 2 12 7-10 6-9-2-11-4"/><path fill="#5F4730" d="M437 216c5 5 2 20 2 27-3-7-3-15-3-24"/><path fill="#B89773" d="M551 68c3 7 1 19-1 26-1-7-2-15 0-22"/><path fill="#49311F" d="M470 270v32c-1-9 7-23 4-32"/><path fill="#4B3C27" d="m574-1 1 76V0"/><path fill="#534A3B" d="M22 374c-2 17-9-2-10 9-5-9 2-8 6-7"/><path fill="#362273" d="M82 445c-9 18-7-3-13 10 2 1 13 4 7 11-5-19 11-3 7-19"/><path fill="#D39A63" d="M299 271c2 34 7-1 12 16 0-12-10-7-8-11"/><path fill="#7D653E" d="M138 0v88V2"/><path fill="#92836A" d="M97 261c3 10 1 26 2 38-3-11-2-25-3-35"/><path fill="#614F38" d="M260 104c3 11 1 25 2 37l-3-33"/><path fill="#52391F" d="M560 479v67c2-24 0-41 1-65"/><path fill="#BC763B" d="M373 343c-5 9-21 12-25 20 15-13 23-6 22-18"/><path fill="#795C3D" d="M585 126c5 5 3 19-2 22l1-19"/><path fill="#B29F80" d="M86 41c3 11 1 27 2 39-3-12-3-24-3-36"/><path fill="#64543C" d="M99 272c3 11 1 27 2 39-3-12-3-24-3-36"/><path fill="#9E907C" d="M115 170c3 5 0 17 2 24-7-2-3-16-3-20"/><path fill="#51402C" d="M261 149c-1 73-5-31-4 67 8-24 3-47 4-63"/><path fill="#615141" d="M34 121c3 5 0 17 2 23-10-5-2-13-2-19"/><path fill="#4F412B" d="M561 5c6-9 2 57 4 63 3-20-1-44 1-68"/><path fill="#CFB38C" d="M591 460c0 8-3 17 7 16-21-15 15 1-6-16"/><path fill="#B7865A" d="M358 310c8-5 13 2 10 3-3 6-13 2-8-2"/><path fill="#BD9972" d="M567 126c8 1 8 8 6 12-7-2-5-6-5-10"/><path fill="#6A543E" d="M503 399c3 6 3 18 2 28-2-8-2-16-2-24"/><path fill="#685C49" d="M96 373c-5 1-11-1-8 7 8 1 12 2 9-7"/><path fill="#8E97C0" d="M89 531c5 0 6 18-2 14l1-12"/><path fill="#AA8665" d="M388 306c4-3 4 3 7 0-6 9-15 8-9 0"/><path fill="#B1A187" d="M69 39c3 9 1 24 2 35-3-10-2-21-2-31"/><path fill="#5D5242" d="M103 373c6 1 9-1 10 5-1-2-11 11-10-4"/><path fill="#CFA77D" d="M576 78c8 25 1 14 2 24 7-9 2-17 2-22"/><path fill="#C78A51" d="M346 237c3 1 5 9 3 11-4-4-15-3-3-8"/><path fill="#5C554B" d="M180 405c-5 54 2 48-6 88 10-24 3-57 6-85"/><path fill="#A08A6F" d="M554 500c8 20 3 14 2 24l-1-18"/><path fill="#A7967C" d="M89 74c0 9 4 19 1 27-2-8-3-14-2-24"/><path fill="#9D907B" d="M39 274c3 7 1 21 2 30-4-5-2-17-3-26"/><path fill="#CB884C" d="M401 449c14 6 2 6 1 11-7-6-1-7 0-7"/><path fill="#B4A68F" d="M71 19c3 8 1 22 2 32-2-9-2-19-2-28"/><path fill="#B59470" d="M552 101c4 7 3 12-2 15-2-8 1-7-1-13"/><path fill="#B28F6B" d="M567 104c16 7-4 7 6 14-8-1-5-7-6-10"/><path fill="#483C31" d="M63 103c-3 10-5 19 1 28-1-9 1-19-1-28"/><path fill="#C4A88A" d="M518 92c-4 2-6 5-4 13 3-5 12-4 5-12"/><path fill="#C48B57" d="M339 311c2 0 6 2 11 1-19 13-9 1-11 2"/><path fill="#968A75" d="M135 288c3 8 1 22 2 31-2-9-2-18-2-27"/><path fill="#A0937C" d="M70 211c5 5 1 20 3 28-3-8-1-17-4-24"/><path fill="#57554E" d="M180 489c-2 9-9 18-7 35 1-12 8-22 6-35"/><path fill="#B08E6B" d="M578 114c4 2-2 15 8 17-10 5-9-8-8-14"/><path fill="#C98141" d="M442 401c-5 13-9 5 5 23-10-12 0-13-3-21"/><path fill="#CEB48D" d="M252 130c2 9 1 20 1 31 6-9 4-21 0-29"/><path fill="#A8987E" d="M90 100c0 18 1 11 3 24-3-2-6-8-4-19"/><path fill="#795D3F" d="m476 562 1 37c2-13 1-24 0-35"/><path fill="#BD905E" d="M267 197c4-2 6 5 10 5-3 3-15 1-8-3"/><path fill="#BC8C57" d="M267 210c4 4 4 7-9 8 2-5 8-7 10-5"/><path fill="#723F1A" d="M297 266c6-6 8 8-1 9 1-2-2-7 0-9"/><path fill="#6B543B" d="M513 445c4 2 2 15 2 20-3-6-3-12-3-18"/><path fill="#5E4834" d="M334 138c3 2 4 14 1 18-3-6-1-10-2-16"/><path fill="#5B5D6E" d="M46 433c9 3-6 6-1 9-8 0-5-13 0-7"/><path fill="#AD8963" d="M353 153c3 2 1 12 3 17-6-3-4-10-4-15"/><path fill="#574E40" d="M66 375c2-4 5 0 6-1 0 4-2 7-8 4"/><path fill="#8F7C5F" d="M314 579v19c2-7 7 3 12 0 0-10-12 3-13-18"/><path fill="#735F46" d="M110 130c3 7 0 20 2 28-3-8-3-16-3-25"/><path fill="#B29F85" d="M0 59v74l1-72"/><path fill="#9CAFB6" d="M35 424c-2 5-7 4-8 9 10-2 6 0 11-10"/><path fill="#C68D59" d="M306 276c3 3 10 6 8 11-8-1-4-8-10-8"/><path fill="#CB8345" d="M348 330c1-2 3 3 6 3-8 7-13 2-8-3"/><path fill="#BF9E76" d="M544 588c3-4 12 0 5 7-4-1-4-4-6-6"/><path fill="#968875" d="M106 215c2 6 2 17 3 24-1-8-7-12-3-21"/><path fill="#4B3726" d="M495 428c-3 15 1 31-1 48 1-16 3-32 0-46"/><path fill="#6E3F1D" d="M533 545c6-5 10 6 5 7-5 0-7-7-3-6"/><path fill="#534A3D" d="M114 374c5-4 6 4 5 7-3-10-6 8-7-8"/><path fill="#BAAB94" d="M517 439c-1 19-2 28 6 35-6-43-4-17-7-27"/><path fill="#5C3F20" d="m402 468 2 130c0-43 0-85-2-129"/><path fill="#AF9D89" d="m560 0-1 52c2-17 1-34 2-51"/><path fill="#C8A787" d="M559 128c2 8-3 22 5 25-10-7 5-16-5-23"/><path fill="#755633" d="M440 483c3 6 0 19 2 26-3-7-2-15-2-22"/><path fill="#765E3B" d="M427 23c3 6 0 19 2 26-3-7-2-15-2-22"/><path fill="#BB9E77" d="M399 512c3 6 0 19 2 25-2-7-2-14-2-21"/><path fill="#826F4F" d="M177 231c2 45-1 112-1 105 0-28 3-65 2-103"/><path fill="#6A4C30" d="M584 101c4 7 3 10 3 17-4-4-3-9-4-13"/><path fill="#BC9C76" d="M536 118c5-3 6 8 5 10-6 0-1-5-6-7"/><path fill="#533B21" d="M560 432c-2 14-2 25 0 40v-39"/><path fill="#42269C" d="M6 410c4 1 4 0 10-1-4 6-11 9-10 4"/><path fill="#B49976" d="M582 578c3 1 7 7 6 11-4-2-7-5-6-9"/><path fill="#A38D73" d="M488 515c6 4 0 15 2 20-2-5-2-11-2-16"/><path fill="#C98A53" d="M362 330h8c-9 9-6 2-10 2"/><path fill="#4F3822" d="M569 560c3 11 2 27 1 39 2-13 3-26 1-38"/><path fill="#676A7C" d="M49 587c3-2 7 1 8 3-4 6-10 3-9 0"/><path fill="#B49571" d="M587 189c5-1 9 4 5 7-5 2-6-2-5-4"/><path fill="#AE9F87" d="M69 131c3 5 0 17 2 24-3-7-3-14-3-21"/><path fill="#CF884D" d="M358 396c3-2 6 1 8 1-5 8-22-1-7 0"/><path fill="#8A7863" d="M518 585c-1 10-2 17 10 13 3-5-10 1-10-11"/><path fill="#AA9D85" d="M134 251c3 3 1 17 1 21-2-6-1-12-2-19"/><path fill="#553D26" d="M514 567c1 10 0 21 2 31v-29"/><path fill="#6F401D" d="M284 170c1 3 10 3 5 8-5-1-6-1-6-5"/><path fill="#3A288E" d="M63 501c3-2 7 12-2 8-2-3-1-4 1-5"/><path fill="#B17745" d="M345 194c2 3 4 13 11 4-4 0-6-7-9-2"/><path fill="#CEAB84" d="M569 126c-2 9 3 14-1 15 7-6 5-9 3-14"/><path fill="#83694D" d="M414 491c-6 12-3 48-1 104-3-62 1-58 1-106"/><path fill="#998E79" d="M116 280c3 5 0 17 2 23-2-6-2-13-2-19"/><path fill="#978B78" d="M113 227c2 3 2 12 5 17-4-4-6-8-5-15"/><path fill="#B59976" d="M537 579c2 0 6 3 8 5-4 6-9 1-9-2"/><path fill="#4E3520" d="m418 203 1 46 1-45"/><path fill="#503923" d="m400 220-1 39c3-13 0-24 2-38"/><path fill="#958871" d="M104 265c3 4 1 17 2 21-3-6-3-12-3-18"/><path fill="#553D27" d="m428 218-1 25c2-6 3-14 2-23"/><path fill="#AD9B87" d="M570 0c-2 19-1 38 0 48V2"/><path fill="#C3AF8F" d="M514 23c-2 12 1 11 9 5-1-2-6 0-7-4"/><path fill="#8F836E" d="M65 221c3 3 0 16 2 20-3-6-3-12-3-18"/><path fill="#574D3D" d="M55 375c5-3 7 1 6 7-4-4-6 2-6-6"/><path fill="#4A331F" d="M409 218c0 13 1 25-1 36 3-11 2-23 3-34"/><path fill="#C18D5B" d="M324 177c6 5 4 7-7 7l5-5"/><path fill="#BE9062" d="M454 340c5-3 6 3 9 5-4 1-14-2-8-3"/><path fill="#C89560" d="M290 377c5 0-1 12 1 17-2-5-3-10-1-14"/><path fill="#51483A" d="M122 374c6-5 6 3 5 6-6 3-4-2-4-4"/><path fill="#513F2A" d="M279 133c0 16 0 42-4 40 7-8 3-25 5-38"/><path fill="#442E7D" d="M49 461c5-4 9 0 8 5-7 5-1-7-7-3"/><path fill="#604734" d="M409 297c4-1 3 11 2 13-3-3-3-7-3-11"/><path fill="#453A2E" d="M54 107c-1 17-6 22 0 37v-34"/><path fill="#CBAD87" d="M588 133c8 1-2 14 10 7-2-3-3-8-8-6"/><path fill="#523B21" d="M356 464c2 44-1 90 2 133 0-43-2-86-1-131"/><path fill="#CF844B" d="M465 257c16-5 2 14 0 2"/><path fill="#8C816B" d="M66 254c3 1 0 10 2 14-2-8-6-7-2-11"/><path fill="#74634C" d="M233-1c-1 40-1 40 2 81-1-28-2-51-1-79"/><path fill="#C78651" d="M488 361c2 0 4 8 3 10-6-1-4-5-3-7"/><path fill="#B89B7A" d="M534 521c5 9 5 3 13 11-6-8-7-9-11-11"/><path fill="#D18A4F" d="M329 407c2-1 10-2 10 5-5-8-4 2-10-2"/><path fill="#AB784C" d="M360 309c-1 6 0 9 10 4-5 0 0-5-9-3"/><path fill="#422C96" d="M61 572c7-2 2 8 1 10-4-3-3-5 0-8"/><path fill="#AD9D81" d="M145 243c3 3 0 14 2 19-2-5-2-11-2-16"/><path fill="#706452" d="M54 273c3 3 0 14 2 19-2-5-2-11-2-16"/><path fill="#6D5034" d="M475 423c3 3 0 14 2 19-2-5-2-11-2-16"/><path fill="#938168" d="M536 480c3 3 0 14 2 19-2-5-2-11-2-16"/><path fill="#7C5D3A" d="M454 496c-7 27 13-19 3 37 2-16 8-35-1-40"/><path fill="#937559" d="M491 373c5 17-8 4 3 31-4-10 1-24-1-29"/><path fill="#6F5841" d="M483 438c6 0 3 9 4 12-5-1-3-6-4-9"/><path fill="#38267E" d="M83 463c9 3 1 13 4 20 4-12 5-7-2-20"/><path fill="#775F49" d="M510 105c4 1 0 13 1 16-4-3 1-8-2-14"/><path fill="#412A8F" d="M79 422c10 4 2 5-3 8 0-3-1-6 2-5"/><path fill="#AE9E86" d="M72 70c3 2 0 13 3 17-4-4-3-9-4-14"/><path fill="#A89981" d="M91 171c8 8 2 11 2 10-2-1-1-3-1-6"/><path fill="#6B5B48" d="M43 114c3 2 0 13 2 18-2-5-2-10-2-15"/><path fill="#9B8A72" d="M116 248c3 2 0 13 2 18-2-5-2-10-2-15"/><path fill="#5D3D1F" d="M577 361v32c2-9 2-20 1-29"/><path fill="#6C5033" d="M575 138c4 0 3 10 2 13-3-3-3-7-3-11"/><path fill="#674C37" d="M501 325c5-1 3 8 4 11-6 0-2-5-4-8"/><path fill="#AB9274" d="M572 589c4-1 6 6 7 8-5 1-7-3-6-5"/><path fill="#43347D" d="M86 430c1 2 8 1 3 8-2-4-10-2-4-6"/><path fill="#39249D" d="m30 508 10 1c-3 1-7 7-11 1"/><path fill="#544C3D" d="M74 374c6-3 5 6 4 7-5 0-5-2-4-5"/><path fill="#A6B4D4" d="M90 532c-2 3-1 8-3 12 7 3 5-7 4-11"/><path fill="#D6C0A0" d="M508 590c1 3-2 11 5 8 1-4 1-6-3-7"/><path fill="#C0A282" d="M560 58c-3 2-1 17 0 22 1-14-1-6 1-21"/><path fill="#9B8770" d="M551 37c3 3 0 9 1 15-3-3-2-8-3-12"/><path fill="#B78F61" d="M252 237c1 2 6 8-1 8-6-1-1-4-1-5"/><path fill="#BF8A53" d="M274 319c3-1 1 11-3 7-1-2-2-5 1-5"/><path fill="#8F5E2E" d="M549 321c3 0 1 10 1 13-3-4-2-8-2-10"/></svg>
