<svg xmlns="http://www.w3.org/2000/svg" width="600" height="600"><path fill="#AF8868" d="m420 0-45 59c-20 13-3 40-19 38-7 5-14-10-27-8-12 4-24 8-33 7l2 5c-21-5-29 8-50 2-39 16-21 11-58 20-6-2-9-6-13-9l11 10c-22 8-37 9-55 11-25-8-39-10-58-5L0 101v8c7-1 22 9 31 15-10 2-21-9-31-6-6 9 19 22 21 36-26-12-4-8-21-20v53c4 2 5 1 7 3-3 0-4 4-7 4 10-4 25-3 19-1-7 4-5 1-19 5 0 22 2 47 0 62l8 16c-7-9 17-3 10-10-2-2-9 2-12-8 5-1 12-6 30-2-1 2 2 8-5 8 10-5 14 6 19 10 8 9-35-3-35 7-11 22-6 34-7 50 5-3 2 5 6 3-5 9-5 10-4 13 2-2 4-3 8-1-6 4-2 4-4 8 2 8 12 9 15 14 26-9 7-16 37-15 3-7-15-3-9 0-7-8 9-7 1-9 21-2 19 3 26 5-16 11-9 7-21 20 18-3 34-26 62-30-10-2-18 6-42 8 24-7 12-7 31-12-19 3-9-2-30 3l13-14c-6 1-3-7-1-7 9-1 14-9 24-8 0 3-10 4-1 3-2 2 2 8-13 5 28 0 34-8 47-14-12-3-18 7-33 10 0-3 8-6 1-3-13-3-15-6-30-7 25 4 20-7 33-8 3 5-3 6-6 6 10 1 8-6 15-5-3 2-6 9-5 10 36-5 27-26 68-25-4 2-9-6-5-8 23 6 50-4 77-6 7 9 29-4 56 10 8 11 30 30 35 38 11-9 20 3 18-15 8 3 1 18 7 27 2-1 9 4 12-4 2 4 2 8 0 13 7-27 3 2 11-15 0 11 5 11 15 19-2 19 11 10 9 34 15-6-5 7 12 2-2-6 11-2 7-11 4 8 10 8 14 9 0 12-1 23 5 28-1-5 2-9 3-14 4 1 7 4 6 9-4 5-1 12-7 15l-19-18c-17-13-29-10-43-20 9-1-17-5-2-7-18 6-24-5-44 0 3-1 5 0 6 1-7 5-7 7-16 15-27 12-8 2-26 2-2 4 16 7 24 4-4 6-1 7-9 11 24-2-4-9 27-9l-11 6c1-1 3-2 6-1-5 2-8 5-7 8 9-12 7 5 9-8 12-9-3 9 8-3 1 9-11 16-10 14 21-20 13-5 37-22-9 8-12 24-17 26-20 5-71 24-76 24-10-3-3 0 2-5-5 2-6-2-10-2 6-2 12-4 17-4-7-1-10 3-17 1 20-6 15-7 22-13-37 8-22-5-41 3-10-5 0-9-20-14 2-3 5-2 6-4-28 9-27 2-34 0-10 8-20 2-34 10 19-3 19 5 62 4-17 6-30 0-37 5-2 2 17-5 17 4-30 1-35-2-39-3 2 5-5 12 5 16-2 4-8 3-12 5 15-2 10-1 21-6-15 10-18 7-32 15 8-5 15-2 23-1-3 5-17 5-15 9 1 0 2-2 5-1-8 6-3 10-5 13 4 1 8-2 11 0-15 12-55 16-85 21-12 0 4-9 5-12-10 3-18 11-19 6 6-16 41-28 72-42l-80 34c9-11-10 4 1-9 9-8 9-5 18-11-11 4-19-6-37 7 2-5 1 19 9 21 6 7 14-9 23-12-13 12-17 19-20 21 1 1 5 0 9-1 1 3-1 5-2 7 5-3 12-9 19-8 47-6 102-19 98-19-21 7 16 6-10 17 7-1 17-12 20-6l-12 6c-16 9-32 21-47 24-3 15 3-4 4 6 6-15 29-17 41-28 10-1 17-4 24-8 2 3-1 9-3 12 6-5 14-10 22-8-9 13-16 6-20 13-21 15-40 26-59 38l58-34c-4 18 10-5 9 5 6-7 9-11 18-13-6 4-10 8-15 16 9-11 14-11 15-4-1 9-38 36-55 52-1-8-9-3 2-12-12 5-13 6-26 21-12 0 5-16-5-14-16 8-16-5-23 2 0-7 21-12 16-16-20 0-45 30-116 47 5-23 6-26 3-49 1-22 26-32 25-47l-13 12c-2-14-16-16-15-36 3-10 7-19 31-27-11 0-17 10-26 8 5-8 4-19 16-20-11-1-1-10-16-6-6-5 0-7 5-10-7-4-4-3-15-12-13-10-26 6-46-2l-1 38c19 1 41-2 57 1l-8 28c-1 20 14 34 9 46-7 28-3 58-19 87 27-4 54-19 113-49-6 16 3 4-2 23 8 4 9 7 15 7-7 9-11 12-20 20 9-5 15-15 26-19 1 4-3 8-8 8 3 2 6 3 10 0-13 10 12 2-4 12 12-5 26 3 55-1-5-4 1-6 2-9 1 3-1 6-1 10l6-16c-4 6-11 13-18 13 11-28 11-12 14-29 7 2 11 6 9 12-3-9 1-16-5-14 5-8 10-10 14-13-11 8-21 14-34 26 0-13 18-22 26-33-15 7-30 22-33 33-9 7-3-11-3-14 17-20 41-37 60-51 18-6 43-17 72-41-16 15-51 38-51 41-5 20 4 2 0 28 2-5 0-8 1-12 8 1 4-6 13-10 1 3-1 6-2 9 0-15 12-14 10-15 2 3 6 14 10 6-3 5-2 7-5 8-7 7-11 8-18 16-3-1-2-4-3-5 2 13-17 20-23 33-5-8-10 0-18-10-13 8 2 25-18 37 9 3 9-2 10-8 5 2 2 5 2 7 27 1 106 2 107-1-3-8-13-16-21-25-10-6 0 6 0 7-11-12-6 6-15-8 3 5-1 5-5 8-6-10-13-18-16-27 15 24 5 19 10 32-4-6-7 2-11-11 0 7 0 13 4 17-15-8-7-21-17-20-1 6 7 20-2 23 1-17-6-19-8-22 6-10 15-18 23-26l18-16c16-1 14-2 25-10 0 5-4 9-6 13 15-16 5-8 21-15-20 25 22-13-8 21 10-11 18-17 22-19-2 10 13 2 12 9 9-5 9 1 13-3 2 3-1 5-2 7 2-2 6-1 7-4-2 10 7-3 6 9 8-16 1 6 10-9-2 5 5 7 1 9 23-23 49-8 54-22 20 1 12 14 20 14-1 11 5 19 3 27 2 0 3 4 6 5-2 3-6 1-8 3 6 7 5 8 9 9-8 3-9 0-15 3 1-1 2 5 4 7-2 2-5 3-9 2 2 3-2 6 1 10 13 8 32 3 46 5 0-5-7-7-6-12 5 0 4-5 9-5l-28-26c9-10 11 9 16-1-12-9-14-31-22-38-5-28 4-36 1-53-11-6-23-4-35-14 12-2 7-15 19-15 26 18 21 22 51 31-19-21 19 18-16-16 6 3 14-5 9-15l4 2-1 2c16 16 36 34 47 54-58-65 0-19-46-54l-1-3 2-2-1 3-2-3c-1-4 12-2 10-1-13 0 3-5-4-10 3 2 6-4 10 0-4-1-7-6-11-2 16-5-5-5 9-12-19-6 9 1-11-12 4 5 8-7 28-4h2l1 2h2c3 4 16 7 14 12 9 2 23 10 29 10-17-5-24-9-44-23-1-4 8-3 11-6-16 10-23-2-37-2-4-5 1-2-11-11 8-4 14-2 19-1-10-4-23 0-22 0 3-6 10-4 16-5-3 0-9 2-10-3 2-10 3-33 1-45-2 0-6 6-6-1 15-2 3-19 13-23-6-2-10 9-24 2-2 5-8 8-13 11-5-3 7-6 8-10-4 2-14 4-25-3 2-4 6-1 8-3h-7c12-5-5-5 7-14 18-17 23-14 41-36-3-3-9-16-21-18-2 1-8 3-13 3 12-3 5-9 21-10-11-13-14-22-33-46 0-2 3-3 4-5-3 1-6 2-7 5 2-9-3-13 6-19l-11 9c6-9-7-9-9-3 2-3 1-9 3-13-7 1-6 7-8 8 9-24-16-6-5-30-2 4-6 9-11 4 1-5 5-7 8-9 10-22 1-40 12-56 2-6 3-9 10-7-3-2-7-6-3-9 1 2 4 2 4 4-5-30 26-68-52-49-7 23-24 44-32 68-6 15 5 13 9 27 0 6-6 9-6 15 11-21-14 1-7-25 2 15-11 6-6 22-4-21 3-21-10-33 14-30 42-57 54-74"/><path fill="#8C6243" d="M345 134c1 0-2 8-3 2 4 9 14 5 8 21 1 16 7-1 14 30-8-17-25-19-34-40 9 44 17 15 23 54-7 3-10-10-11 1-10-14-1-15-7-21v8c-9-16-11-3-25-22 1 9-7-8-7 7 0-7-9-8-9-14 4 15-7 11 6 26l-5-14c6 8 9 7 14 17h-2 2l-3-9c12 22 13-6 29 37-2-8-3-12-6-16 8 8 14 8 15 20 1-7 2 3 7-6-3 9-1 12-4 23 0-11-4-1-5-13-3 9 6 23-4 23 3 20 11 5 9 17l3-13c3 7-2 12 2 15 1-17 4 12 5-12 4 7 6 29 2 29 7-2 3 12 10 2-3 6 0 7 0 13 3 0 6-1 7-3-17 12 1 3 2 8-1 14-5-4-7 12-3-7-9 7-13-2-13-13-33-34-36-40-43-13-92 2-130 2-2 2-1 0 3 5-23-1-19 10-52 13 8 0 2 6 11 3-7 6-20 4-24 8-6 1 1-7 2-7-3-4-8 7-15 4 2-3 7-2 9-5-39 0-1 5-34 5 14-1 15 9 28 5-28 9-30 18-46 19 22 8 8-4 22-4-3 6-6 13-12 14 18-3 14 1 30-3-25 6 0 7-32 12 10 4 16-6 24-1-32 20-15 13-43 26 8-14 10-13 24-21-13 1-1-12-33-5-7 2 5-4 7 0-2 3-9 2-7 8 0-1 1-6 16-4-37 8-14 11-42 23-1-6-14-10-13-16 1-4-4-6 3-7l-11-3c7-1 0-6 7-8-8-5-7-9-8-15 0-15-2-23 3-42 15-7 46 1 36-8 0-2-5-12-14-5 4-5 5-6 3-12 4 7 5 4 3 1-9 3-24-6-28 3 3 11 8 0 13 6 0 9-16 2-13 11-4-3-6-5-8-11 10 31-5 32 6 55-11 12 4 3-6 14 9-3 2 5 6 8-3 2-4 3-7 1 8 4-4 6 13 4-6 2-4 11-13 12 10-6 5 0 14-2-2 7 12 7 9 13 1 8-6 6-6 9 15-3 6 7 16 8-8 3-9 9-36 8 23 9 37-6 52 2l11 13c-3 5-7 5-2 9 15-2 4 8 15 8-11 1-10 12-14 17 8 3 13-7 22-7-20 11-25 18-26 27-2 23 11 23 12 40-1-4 7-13 17-14-5 7-11 23-24 28-10 37 6 44-10 62 19 1 35-4 50-10-9 9-28 10-48 20-4-1-8 4-2 7 7-2 14-5 21-10 0 4-9 7-13 12l85-1c9-6 15-13 22-18-7-1-8-5-14-9v-13c-2-11-31 10-47 13 47-29 99-57 146-86-32 16 0-15-46 10 8-8 13-11 19-14-28 13 5-12-35 10 25-12 18-17 32-18l-39 6c6-3 11-5 17-6l-11 3c5-2 10-7 14-5-15 2-8-10-10-11 35-4-22-7 19-12-8-2-17-4-29 1 13-9 21-9 35-15-11 4-5-2-15-2 12-9-11-7-3-13 10 2-2 2 23 0 14 2 24 0 35 0-11 1-23-5-35-1 10-7 18-3 39-6-40-8-21-1-49-4 0-6 19-6 6-8 19-7 24 10 49-4 9 2-7 4-8 7 18-2 14 16 34 10 3-5 24 3 31-3 2 9-14 2-2 10-12 4-26-5-32 4 18-9 8 5 25-2-31 7 11 6-12 12 37-13 42-8 93-28l-10 2c38-34-10 9 23-33-21 32-26 8-37 30-6-1 3-6 2-11 15-9 4-4 10-13-6 2-2 6-9 10-5-2 2-3 2-4-19 3 4-5-23 2 1-6 11-19 14-19 4-3-3-2-4-3 22 3 5 1 18-4 18 2 33 18 67 23 8 7 13 20 27 26-2-10 9-17-2-25-3 6-3 12-4 18-7-8-5-21-6-31-9-3-6 0-11-8-5 9-12 11-16 11 1-4-11-10 0-13-11-6-8-10-19-18 13-5-7-7 4-13-6-3-2 6-12-1 1-4 6 0 8-5-4 5-5 1-9 3 9-12-6-1-4-13-4 12-6 10-9 6-9-3 1-16 5-10-3-2-6 0-8-4 0 19-5 10-4 19-3 7-5-5-8-7 7-9-4-20 7-16-4-4-4-3-9 3 14-27-6-1 5-25 1 4 5 9 6 6 2-15-4 7-3-19 5 8 5 11 7 1 1 8 2 15-2 19 3-5 6-11 4-16 11 6 1 6 4-11-3 6 1-4-3-6 1 12-8 18-8 12 6-5 3-9 7-18-1-13-2 18-7-4-2-12 4-5-1-22-1 8-2 16 1 23-10-9-1-23-7-17 4 12 6 22 4 33-15-12 8 6-6-13 0 16-3-1-3 6 5-7 3-14-2-30-4 5-7-4-12-11-2-10 1-6 0-13 4 7 2 17 6 10l2 2-2-1c-4-18 1-15-6-51-3 5-5 0-9-8-6-19 16-8-11-22"/><path fill="#2A2C2F" d="M477 1c3 19-12 31-1 52 0 5-14 13-17 20-2 13-7 47-5 54 6 13 16 23 27 25 13-11 28-21 44-29-14 11-45 27-45 39 7 6 6 13 15 18-9 9 7 3-1 12 13-5 7 9 11 2 0 6 1 8-2 10 12-2 12 2 15-1-15 14 8 7-8 17l22 24c-12 3-2 10-2 15 8 2 10 3 19 9-13 14-15 3-20 12 0 8 6 11 19 19 2 5 0 7-3 9-6 3-11 0-13-2 4 7-2 12-2 15 22-5 42 5 67-4 2-3 2-9 2-14-7-4-11-8-16-8 1-8 4-14 15-9l1-22c-5-3-12-4-12-10 5 3-6-16 12-6-2-67-2-131 0-216-8-3-11 4-18 2-4-15-29-19-37-20-4 0-6 3-8 6-2-3 2-5 3-7-6-5-3-7-17-12-2 0 6 10-10 6-13 3-20-8-33-7"/><path fill="#232D12" d="M56 1C40 14 18 24 1 40c-23 67 31 73 75 84 25-1 70 2 107-2-3-5-7-7-9-10 5 3 9 4 12 7 11 2 16-6 27-3l-38-68c15 12 32 66 48 65 2-5 14-7 20-14 6-11-13-18 1-27 6-2 13-12 21-9-6-7-18-7-19-3-5-6-3-10-8-13-8-3-10 9-17 6-8-3-7-10-5-15 16-8 29-14 46-31-19-3-8 9-26 6-7-4 2-13-7-13 7 5-3 9-4 13-7-3-14-8-13-12L56 0"/><path fill="#8D694B" d="M307 511c-12 6-17 18-22 17-2 5 0 8-1 13-3-7-6-14 1-17l-48 34c-7 10 1 4 1 21-4-3-2-10-9-11 2-2-30 45 3 14 0 4-3 10-5 16 4-1 5-10 9-8-2-37 19-7 10-29 9 8 14 2 16 9l8-8c-1 5-3 8-5 11 6-9 5 12 9 1v15c7-3 2-15 2-22 11 0 4 13 16 22-3-5-3-11-2-18 4 13 7 5 11 15-12-21 8-5-7-24 7 5 10 10 12 15 7-3 6-3 4-9 10 15 6-3 16 11-2-3-10-15 0-10 35 28 6 18 27 28l9 1c-12-7-24-17-28-32 11 1 15 4 22 13-6-7 4-3 2-7 43 13 18 13 36 25 31 1 59 2 84 1-7-1-6-10-5-13 3-2 6-1 8-3-2-4-4-6-6-7 8-3 12-2 17-1-2 0-4-5-7-10 1-4 4-2 6-3-3-2-3-6-8-5 1-14 3-14 2-27-14-2-1-11-21-13-10 5-63 18-63 17-3 0-7-2-3-3-13-2-20-5-37-7-20 17-3-17-16 4-1-3 1-6 3-9-14 0-20 5-31 11 1-7 6-10 9-14-9 11-19 13-33 28 5-9 12-14 20-20-9 4 0-13-8-8"/><path fill="#605D5A" d="M233 0c4 3-2 8 1 12 17 2 10-5 19-7 7-2 11 2 7 6-8 13-20 7-24 19-5-5-10 7-15 0-3 6-8 12-5 19 9 11 13-5 20-4 7 4 7 8 7 12 5-1 20-4 23 4-10 0-15 10-21 10-14 10 5 17 0 25-46 23 64-4 74-3 28-2 33 8 42 1-5-11 5-22 12-33l45-60c-20 22-43 48-66 67-19-14 16-15 4-26-15-9-12 20-28 3 2 7-3 10-5 13-5 0-6-2-7-5 11-12 22-18 34-28 7-12-6-15-4-25-15 1-35-2-39 6-14 0 1-11-26-5 3 2 1 6-1 8-7-1-5-5-3-8l-41-1"/><path fill="#EDEBE7" d="M38 435c-12 1-26 3-37 2L0 597l38 1c8-12 3-25 15-33-5-19 4-42 7-54 4-14-14-25-12-44-1-16 23-36-10-31"/><path fill="#373738" d="M554 460c9 12-9 3-3 6 6 5 29 15 29 29-8 1-7 7-5 11-12-12-16-20-23-35-7-9-6-1-12-1 0 8 14 13 13 23-7 1-8 10-15 5 1 11 10 14 11 22-7 7-14 3-18-4-3-9 2-15-2-19-6-2-14 1-15 2 6 1-7 5 12 17-1 10-11 5-15 7-3 10 12 30 4 39 3 9 10 14 14 20-6 3 0 12-3 15 25 2 48 2 71 1l1-41c-6 1-12-5-10-10 5-8 8 0 10 4 13-19-22-32-7-44-8-17-19-32-35-45"/><path fill="#785F4C" d="M453 94c3 3 2 8 0 11-3 4-4 12-4 14-3 3-7 5-8 8 9 9 4-3 9-3-2 8 2 13-4 21l4-8c11 2 5 10 4 20 3-4 3-10 9-10 1 3 0 8-3 11 13-13 7 11 16-1 1 6 0 8-2 14l7-6c1 5-2 6-2 9 6-5 8 17 11 10 11 16 11 26 20 31l1 4-1 1h-3c-30 13-21 20-61 39 3 9 15-17 38-16 5 8-14 16-15 21-6 3-12 6-16 6 3 1 1 7 3 9 6-12 37-21 36-45-1-1-5 9-11 5 1-3 24-20 28-11 9 7 14 11 14 17-3 8-13 0-18 8 18-7 4 0 12 2-32 15-6 8-31 20-11 11-3 19-8 21 1 7 3 7 15 7 3-1 3-4 7-6-2 7-7 11-14 14 14 1-1-2 14-5 3 6 1 4 0 7 20-12-4-7 14-15 1 4 8 2 10 6 5 13-9 11-8 14 3 9 0 4 10 1-3 13 1 26-3 39-6 10 10 11 10 13-1 3-3 2-4 3-5-1-7 0-8 1 2 4 5 5 7 8-2-2-8-6-1-9h7c7 2 14-2 22 5-4-3-11-7-8-10 12 1 23 4 27 7 4-1-3-8 4-8 8-3 12 3 18 3 2-4 1-9 1-13-5-2-9-3-13-6-16 9-37 4-61 8 5-11 2-12 4-20 30 2 47-7 68-7 3-2 3-6 3-10-27 4-48-5-69 2-3-15 6-14 21-23-17-10-23-14-23-22 13-9 6 4 20-12-9-5-10-6-20-7 0-5-8-14 6-17-11-8-5-7-26-22l1-3 2 1v-5c12 2-5-4 8-11-3-4-9 5-15 2 4-8-1-2 2-12-7 3-14-6-11-8-5-6 4-6 6-8-2 1-5 3-9 2-2-7-10-12-10-16-4-4 2-6-3-7 5-8 9-6 11-10-5-2-3 1-9 8-14-7-19-13-25-19-5-3-6-7-3-9 3-5 4-15 9-20-2 4-5 3-7 0 5-2-1-8-1-12"/><path fill="#9E6B46" d="m37 137 1-2c5 6 6 9 4 14 2-11 13 6 1-13 8 2 12 10 15 5 1 5 8 9 9 19 4-6-3-11-4-16 9 6 15-3 19 18-3-7-2-14 2-13 5 1 4 5 7 6-7-10 13 7 11-9 12 12-8 3 6 13-2-7 3-12 12-14 18 25 14 1 27 25l-4-12c12 22 17-4 22 20 3-8-12-15-6-20 12 11 21 23 29 37-33-28 0 15-34-23 3 7 15 15 16 23-10-15-11-2-29-23 3 6 2 6 7 10-8 4-15-4-17-4 4 11 16 9 21 18-33-18-27-4-44-9l7 7c-11 0-27 4-38-2 19 2 10-6 29-1-15-17-4 1-29-17 29 21-21-4 10 13-14 6-17 4-33 3-2-9-49-41-23-29-5 0-7-9-11-13 9 1 15 14 19 14 7-8-2-13-2-23"/><path fill="#9A6742" d="M4 134c-10 6 38 35 45 54 17-4 21 10 33-4 13-1-8-4-5-11 9 7 25 13 27 17-34-14 10 10-30 0 14 5 26 6 37 2 7 3-2-3-3-5 4 0 10 5 16 4-13-1-4-5-9-8 18 9 4 2 40 12-23-9-11-6-25-14 5-4 9 4 16 1-5-2-4-7-6-11 15 19 14 9 34 27-12-18 15 9-8-19 8 11 18 9 22 18-31-36 9-12-20-38 5 10-10-7 6 12-7-3-14-5-12-12-7 3 2 7 2 10-3-2-8 1-8-6-7 4 4 7 0 10-14-13-16-8-37-30-5 14-19 1-20 13-13-14-2 12-14-7-4 1-4 5-2 10-5-3-5-9-8-12-2 12-8-7-9-2-2 4 5 5 2 11-10-13-7-10-22-18 3 1 2 3 4 8-7 5-4-11-6 6-3-7 0-11-7-16 3 8 0 10 6 17h2v1l-1 2c-12-3 2 7-7 7 4-8-9-6-15-16-3 7 19 16 10 17-15-10-12-21-31-35"/><path fill="#986D4A" d="M329 146c16 25 27 25 38 44 2 19-6-1 1 25-3-8-9-19-10-9 5 19 11 9 13 28-11-6-17-34-16-39 2 57 9 14 13 62 5-9-2-10 0-21v-1h1l1 2c-1 2 2 7 3 3-5 31 15-8 9 43 1-12 4-20 3-30 3 2 3 7 3 10 1-5 3-5-1-12 6 17 4-17 9 0-4 14-15 41-15 45-3 2-6 10-9 8-11 0 2-5 4-5-12-1-7-17-15-12 3-17-5-20-1-37-2 27-8 5-8 16-5-2-1-6-1-13-6 18-6-9-7 9-9-17 2-17-5-37 6 10 7 3 9 18-5-13 2-14 0-25-2 2 1 6-1 8l-15-24c-2 0 4 9 2 12-3-10-13-24-19-29 3 1-2 10-7-7l2 11c-6-9-16-14-17-28 2 6 11 6 8 12 6-10 7 1 9-7 15 19 19 11 23 19 5-13 5-12-6-38"/><path fill="#675C53" d="M468 438c-2-7 16 14 23 18 1 3-2 4-5 3 17 6-7 14 10 18l-7 2c-4 11 2 20 2 40 7 5 9 27 21 35-6 12-7-4-16 0 10 10 15 17 25 23 5 6-3 10-6 10 2 6 5 11 9 12 4-5-2-14 6-16-5-7-13-12-15-19 8-11-9-30-3-38-1-9 12 0 11-9-2-7-7-10-11-14 10 0-8-7 17-9 6 6-1 12 2 21 4 7 10 11 16 6 1-8-9-12-11-19 8-3 10-5 17-9-1-9-11-14-16-19 10-17 19 0 18-11-15-17-27-19-27-20-6 2 14 12 1 12-10-7-2-8-9-15 1 4 3 14-8 10 7 7 4 9 7 12-5-9-16-3-17-1-1-14-22-18-30-26"/><path fill="#956742" d="M362 148c14 1 24 21 29 28 2-1-1-2 4-6 3 7 6 15 5 18 4-3-1-8 3-11-2 16 10 20 10 30-1-3-2-18 3-12 1 25-13 10 0 33-4-6-14-9-12-28 0 7 2 17-1 23 7-3 13 26 17 16 14 29-1 20 9 31-3 4-8 19-14 18-4 0-5-5-11-10 5-8 5 0 10 1-8-14-3-14-12-12 15-8-17-35 3-28-9-5-15-4-13-20-3 9-9-6-8 5 0-11-4-7-3-19-2 1-2 3-1 6-7-17 0-10-9-11-13-32 2-18 1-33-3 4-11-15-12-19"/><path fill="#8F613D" d="M363 141c-6 5 6 29 8 21 3 28-12-6 2 40 13 25 15 13 31 49 2 21-10-15 3 24-2-5-1-9-2-11 3 3 4 6 5 10 4-1-1-5 4-6 2 6 1 11 0 11-5-6-10-1-12-7 1 8 5 5 7 9l-2 2-1-1-3-1-3 12c4-4 2-7 3-11 1 2 6 5 4 1 25 24-6-14 24 10-6-8 1-7-2-12-8-7 4 12-8-4 4-4 7 1 10-1-4-21-6-13-10-35 1 5 4 23-2 17 3-11-6-12 2-25-6-16-5 0-11-15 4-3 4-12 4-22-1-5 0 6-3 7-4-11-10-11-7-24l-2 11c-17-19-15-28-42-46"/><path fill="#272A2C" d="M347 0c-2 9 11 12 5 24l-30 22c-12 23 18-4 24-5 7-1 10 0 12 2 3 11-6 9-11 14-2 6 1 12 5 10 23-20 46-45 65-67h-69"/><path fill="#B58C69" d="M223 289h1c7 6 15 9 23 18 20 8 33 15 54 17 11-5 10-2 22-5 8 8 8 4 9 18-4 12-11-1-21 6-14-6-55-16-73-26-9-3-2-3 7-2-43 3-111-8-18-25"/><path fill="#BD9471" d="M225 287c-20 12-87 22-9 28-3 1-6-1-8-2 3-4 7-3 7-7-13 10 17 3 29 8-5 4-16-2-9 4 22 8 73 21 84 23 13 3 5 4 7 7 9-4 8 1 4-11 5 6 7 3 9 7l-5-7c-4-6-3-16-14-18-9 6-8 0-18 6-8-3-21-1-25-6-26-8-39-16-52-30"/><path fill="#8A6142" d="M249 503c-18 9-63 30-98 49 9-5 6 7 25 0 11-2-6 16 2 12 6-12 99-63 72-60-4 2-2 0-1-3"/><path fill="#A2734C" d="m60 272 4-1c17 4 24 4 37 4-4 4-12 3-15 3-6-1-9 1-11-1 0 4 7 4 4 8 4 0 7-2 14 0-5 1-24-6-9-8 53-2 39 10 74 8-9 7-16 5-27 10 1-4 4-4 7-5-8 0-8 5-16 3 13-1-6-8 6-7-15-2-3 10-23 3 2 7 9 4 13 2-35 2-4-3-39 8-6-9 12-3 15-6-22 7-33-6-40-3-20-11-5 0 7-16"/><path fill="#91623F" d="M272 171c5 9 7 7 19 33-13-28 10 1-11-22 33 24 11 21 35 33 3 16 13 26 6 34-6-7-6 7-15-16-1 7 5 10 3 15-19-42-28-34-39-54-7-12 5-3 1-23"/><path fill="#473223" d="M293 275c11-3 21 3 26 3 7 13 18 22-7 37-6-6-6 9-19 5 0-4 4-2 5-3-4-1-15 7-13-5 4 5 9-8 13 2 8-5 11-8 10-15-5-3-8 2-8 3-4-7 6-6-2-15-13 10-22-13-52-1 7-10 31-6 45-12"/><path fill="#A1846B" d="M365 559c23 23-5 2 10 18-17-1-65-21-7 26 7-5 17-5 27-5-18-14 15-2-25-23 42 10 16 19 63 20-21-11-20-13-38-17-6-9-4-9-4-16 2 8-13 3-20-1"/><path fill="#A27D5C" d="M183 340c14 8-23 19-23 31 6-2 12-5 20-2-27 8-14 9-30 5 3 8-12 7-30 24 2-3 2-7 7-7-18 5 4-8-12-3 11-10 22-9 31-17-2 4-19 9-27 11 3-9 13-8 17-22 6 12 28-19 41-17"/><path fill="#8C5C39" d="M252 153c13 37 19 45 30 56v6l-2-9c26 32 28 38 40 41 5-15-3-14-7-38-3 9-4-10-5 8-5-21-22-23-27-40l11 27c-16-28-13-20-23-37 5 2 3 12 3 17l-20-27"/><path fill="#402B1D" d="M279 275c-9 9-84-4-31 24-2-5-8-8-13-12 4-4 10-4 13-8 2 8 37-4 37 12-2-12 8-6 11-4 10 6 4 11 2 13 0 0 7-7 13-3-1 10-5 12-11 16-9-2 2-5-3-6 3 2-5 7-9 6-7 12 12-2 6 6 17-6 20-4 35-20-9-11 0-7-10-20-6-8-40 0-40-4"/><path fill="#373737" d="M581 333c-9 13-35 1-50 10-3 1-2 7-4 12 32 6 39-6 70-1 6-13-2-23-17-22"/><path fill="#7D593F" d="M487 234c12-8 0 33-34 44 1-2-2-8-4-15 4 13-6-1-9 3 4-3-6-8-2-15 0 8 4-2 7 10 7-11 40-20 35-27 5-4 8-3 10-4"/><path fill="#89674B" d="M275 506c-34 21-10-8-86 55 21-8-1 10 20-8-24 22-2 12-13 26 25-28 58-56 86-74"/><path fill="#CAAC93" d="M480 358c2-3 4-1 5 0 4 6-1 2 1 7l6-7c7 2 19 29 8 25 2 6 0 2-2 4 13 2 1 11 12 9-1 5-5 3-7 7 14 1-4 5 5 7-12 1-18-7-27-6 0-9 8-10 4-13l13-2c-4 0-10 2-11-4-2-10 3-12 5-18-7 1-8 11-17 3-1-2-5-14 6-11"/><path fill="#A78362" d="M183 342c-39 7-11 11-44 20-5 14-17 9-16 19 1-2 7-4 12-4-28 13-5 8-21 19 29-8 14-13 40-17-4 1-24 6-12-2 32-6 2 7 39-10-7-2-12 4-18 2 1-10 16-8 12-6 1-5-6-1-5-6 19-12 7 5 23-2-22 4 8-11-16-7 13-1 13-7 5-6"/><path fill="#9C6D46" d="M60 272c1 5-6 10-8 11-24 0 4 3-3 10 3-3 5-8 14-6 6 4-1 4-5 8 19 0 30-8 34-2 0 5-14-1-16 2 27 3 16-8 37 2 15-9-11 4-6-7 6 1 16 2 10-5 21 1-4 8 14 8l33-6c-45-11-33-4-98-13l-1-1h-1"/><path fill="#AA8664" d="M205 371c-10 8-38 7-27 1-19 4-9 14-28 16 5 0 11-3 16-1-34 7-12 16 6 9 6-5 5 0 18-16-9 7-3 9-4 14l-3 2v-1c43-15 17-11 38-19 4 7 39 4 63 3-20-11-75 0-84-4"/><path fill="#9F6740" d="M423 2c-13 19-40 44-52 73 2 38 2 0 6 33-4-15 6-7 4-21-6 26 21 4 7 26 1-5 6-8 8-12-4-12-16-16-9-29 6-26 31-54 41-74"/><path fill="#987153" d="M419 410c-9 17-22 7-35 27 1-8 0-1-6-5l4-1-5 1c-8 2 7 6-14 9-34 9-14-2-50 12 52-19 66-38 99-38"/><path fill="#A37F5D" d="M203 373c-11 14 27 6-14 21-2-5-4-2-6-5 3 0 7 0 10-3-7-7-4 4-16 0 5-3 5-3 2-2 1 4-12 8 3 6-16 10-29 8-27 9-12 1 4-5-12-3 31-10-9-8 39-22-2 7 6-3 14 2"/><path fill="#393837" d="M587 374c-53-5-17 4-62 2 7 12 21 9 29 11 32 3-10-15 22-5l18 9c9-14 3-25-13-22"/><path fill="#A36B42" d="M457 283c1-3 1 1 3 0 23 27 19 33 26 38 8 9 19-7 22-3-19 19-10 12-25 15-4-6-45-50-31-45 7 4 3 1 3-4"/><path fill="#656669" d="M523 1c12 2 12 9 14 10 2 4-1 5-2 8 3-3 5-6 8-7 4 2 1 5 0 6 4-10 14-1 19-1 8 6 18 6 17 16 9 2 12-5 19-4 3-10-9-10 2-13-16-8-28-18-47-16 6 6 19 8 26 15 2 4-2 4-4 3-19-6-31-13-47-18"/><path fill="#2E2724" d="M0 347c3 13-1 23 0 48 11-1 19 0 27-4h-6l11-3c-5-7-10-7-17-9 10 0 7-10 6-12-17-5-9-19-19-21"/><path fill="#9F7B5C" d="M101 451c5 5 4 5 15 2-9 6-5 7-17 6-5 8-2 11-4 19 56-33 23-7-5 6-8-4 1-5-14-12 4-3 1-9 5-11l-8 4c7-7 15-11 25-13"/><path fill="#89684D" d="M280 513c-11 7-22 14-32 23 0-4 8-8 12-12l2-2 2-2-1 3-2 1c-22 15-42 35-61 55 8 5 78-58 83-58-2 1-3-4-4-7"/><path fill="#5C5A58" d="M561 379c2 2 6 2 9 4-7 7-4 5-16 10l6 3c-68-5-1 7 21 11-8 0-6-6-2-6 7 0 13-1 18 2 2-8 2-15 2-21l-3 8c-15-4-21-9-34-9"/><path fill="#A16E44" d="M443 152c3 3-5 13-5 19 9-7-2 15 12-9-7 12 0 16-7 24 10 3 5 17 9 29-1 12-6 5-9 15 3-29-10-33-11-62 6-25 2 8 10-15"/><path fill="#3E3E3C" d="M524 435a155 155 0 0 1 73 79c8-15-9-21-8-33 4-14 11 5 9-7-11-13-13-7-26-6-6-6-15-11-9-18-13-7-27-13-36-16"/><path fill="#615F5B" d="M589 415c22 9-10 7-17 8l19 7c-13 1-32-15-28-4 13 4 21 12 25 14-12-7-38-18-60-22 10 5 20 8 31 12-8 2-16-5-25-7l18 9c-8 2-29-16-24-1 25 18 18-3 37 8-1 4 0 6-6 6 79 55 3-2 10-5-7-3-9-3-9-5 14 1 12 3 27 7l6 4c-2 3 0 13-8 5 7 2 8 11 12 13 1-5 2-14 1-19-6-5-11-7-16-10 3-5 4-4 6-3 5-1 11 4 11 1-7-3-14-4-17-9 5-2 14 0 17-4-3-3-5-3-7-4"/><path fill="#9D643B" d="M457 283c-2 4 3 10-3 9-18-17 4 12 11 17-6 10-3-5-13 2 13 10 24 10 29 24 22 0 10-10 36-22-6-3-18 19-32 9-3-2-9-18-28-37"/><path fill="#9F7F64" d="M369 559c27 11 33 22 60 35-8 3-20 0-29-3 18-3-53-21-25-25"/><path fill="#D8C4AE" d="M494 360c-2 14-7 10-6 25 1 6 7 3 11 4-5 2-9 2-13 1 3 5-3 6-3 12 3 0 13 6 23 8-7-5 11-4-6-6 6-7 7 1 13-2-7-4-7-9-16-15 12 2 4-2 8-9-2-4-3-9-11-16"/><path fill="#CCBAA7" d="M438 387c-7 3-11 7-15 15 2 3-4 4 11-4-21 14 11 6-5 14 7-5 6 1 12-4-17 15-23 15-16 21 22-16 14 5 31-19-5-1-7-21-16-13 14-5-1-9-2-4-2-2-1-3 1-4"/><path fill="#8A6244" d="M411 417c-22-6-36 12-99 33 63-17 24 2 89-24-14-8 15 1 16-15"/><path fill="#6C5F50" d="M0 99c23 11 47 19 73 27 16 1 19-1 34 2 7 3 16 4 22 7 20-4 40-4 59-12 10-4 24-5 32-6-11-1-22 1-32 5-6-5-9-5-13-10l8 8c-18 5-55 6-76 6-6 6-23-8-30 2-27-10-51-17-76-29"/><path fill="#6C8055" d="M37 30c14-5 14 11 20 17-6 7-12 10-18 13-14-4-8-16-6-23l2-7"/><path fill="#5A6F43" d="M86 4c3-1 8 4 13 3 7 5 22 6 18 19-8-2-45-6-35-21"/><path fill="#B1B181" d="M20 5c-3 2-7 2-9 6C1 17-1 23 0 33c9-3 48-23 22-30"/><path fill="#A3805F" d="M107 394c-7 15-15 17 22 1-15 5 6 7-6 13 3 1 5-3 7-1-2 9-10 7-15 11-6-5 2-2 3-6-6-1-47 1-18-17"/><path fill="#816A60" d="M433 459c17 12-22 15-8 24-9 7-25 7-36 12 5-10 31-25 44-30"/><path fill="#64381D" d="M165 322c-3 10-11 21-45 36 1-9 14-16 26-17 6-14-4 5-11-4 5 0 19-7 9-9 7-3 14-2 16-6"/><path fill="#98653B" d="M445 147c-7 28-10 4-11 18-1 24 13 38 8 63 5-9 9-2 11-15l1-1-2 5c-6-15 7-20-7-20 8-12 13-20 20-27l-16 20c-5-6-6-15 1-27-12 23-8 3-12 11 1-9 3-16 6-23"/><path fill="#816148" d="M235 498c-40 21-83 48-115 65 37-18 71-33 110-55 15-14-17 6 5-11"/><path fill="#9C7655" d="m249 372-6-1c88 15-1 11-35 6 9-3 23-2 38-5"/><path fill="#72865B" d="M39 31c-2 1-5 0-5 4 0 8-8 16 0 22 8 3 16-4 21-7-5-8-4-21-15-20"/><path fill="#9E7C5E" d="M125 474v2c-3 6-9 5-11 12l60-10c-24 10-54 6-76 19-1-1 0-3 1-5-20 0-6-3 6-16-2 7-3 5 3 7 2-4 8-5 13-7"/><path fill="#96643B" d="M416 140c-8 14-5 17-10 30 2 16 0-2 4-3 6 1 7 48 9 37 8 14 10 17 15 42 1-9 4-16 4-26-2 0-4-7-3 6-2 1-10-20-13-18 14-25-14-30-3-51-1-3 0 7-6 8 0-12 5-2 3-24"/><path fill="#5D7347" d="M86 4c-18 15 22 18 28 26 5-13-1-15-7-17L88 5"/><path fill="#886C63" d="M68 208h2c-3 7-8 7-8 10 2 1 5-6 11-6 5 9 7 18 13 17-19-1-42 3-22-18"/><path fill="#A66D43" d="M241 214c18 20 1-1 21 10-9 5-1 3 5 16-17-5-18-3-24-6-12-5-6-13-1-17"/><path fill="#3F271C" d="M485 243c-10 3-18 4-27 10-7 6-10 8-6 15 5 1 11-2 16-3 0-5 20-14 14-21"/><path fill="#9E6D43" d="M416 160c1 19 6 13 10 29-2 19-5 12-9 19 9-25-15-27-2-45"/><path fill="#7A6359" d="M433 465c-7 1-34 21-46 25 3 11 13-5 17 3l7-8c-13 17 3 2 2 9 0-11 9-4 17-16 4-12-12 16-8-4 0 5 20-7 12-11"/><path fill="#525253" d="M557 288c7 0 14 4 20 5 4 4-2 10 5 11-6 12-16-4-24-2-3-7-6-8-2-14"/><path fill="#A98766" d="M96 397c5 4-39 10-1 4-1 6-9 1-8 7 21 0 16 5 29 5 3 2-7 3-3 3 12 3 16-13 20-5 1-6-6-2-9-3 9-5-12-8 2-10-25 17-17 2-25-2"/><path fill="#A1683D" d="M240 214c-5 13 1 21-7 21 20 1 13-1 39 6-17-14-12-20-35-24"/><path fill="#6A782F" d="M24 0C17 0 12 6 6 9c-4 3-7 5-6 10C6 13 12 7 18 4c8-2 15 1 16 8C23 22 9 34-1 36 19 22 85-8 20 2"/><path fill="#A97953" d="M520 257c10 2 2 14 7 17-5 7-2 6-12 10 2 6 6 1 8 0-3 4 2 9-4 12-6-12-7 2-17-5 7-2 7-5 15-12 2-7 5-8 2-11-3-2-5 1-8 2 3-6 10-5 11-10"/><path fill="#C7B4A2" d="M445 394c5-1 5 6 7 13-7-2-13 18-32 17 9-9 16-7 20-14-11-4 5-11-15-1 4-6 9-7 11-10 9 2 4 8 4 9 2-5 4-10 8-7-6 3-11-1-7-4 1-3 2 3 5 0"/><path fill="#3E3D3A" d="M543 403c-3 5-3 9 18 14 10-9 17 5 34 4-15-10-34-14-53-18"/><path fill="#84675F" d="M69 209c-32 22 1 19 15 24-5-3-4-9-11-20-1-1-5 2-8 3 1-3 2-5 4-6"/><path fill="#505151" d="M557 253c7-1 14 4 20 5 4 4 0 8 1 13-6 0-11 0-16-2-7-5-2-10-6-13"/><path fill="#C1B7A9" d="M320 430c-32 9-79 33-100 44 9-5 18-8 28-9l-20 14c50-22 34-25 97-51"/><path fill="#414748" d="M302 28c7-2 12 7 5 12-10-1-10 5-14 10-6-1-7-5-11-7 7-10 15-4 17-14"/><path fill="#5F3218" d="M164 324c-21 1-16 13-31 12 9-2 5 5 16 4-15 3-27 9-30 17 56-22 31-23 47-35"/><path fill="#545555" d="M558 288c-5 4-3 8-1 11 9 0 19 16 25 6-6-1-4-7-3-11-8-1-13-4-18-5"/><path fill="#C7B4A1" d="M485 412c17 1 20 9 45 13-20-9-16 2-39 1-9-3-2-8 8-2 0-5-13-5-14-10"/><path fill="#414849" d="M269 17c11-2 11 9 4 15-9 4-13 10-20 3l16-16"/><path fill="#A2744B" d="M425 204c-3 10 7 4 5 19 4 3 3-8 9-3-1 8-2 16-5 21-6-26-9-17-13-34"/><path fill="#585655" d="M557 503c9 1 21 14 18 22-8 3-12 0-15-5-4-6-3-9-5-13"/><path fill="#A26F4A" d="M271 139c6 0 4 12 8 16l-3-6c4 7 10 1 12 3 2 13-10 5 1 22-13-2-19-20-18-32"/><path fill="#9B7A5F" d="M389 556c33 0 6 14 47 7-16 8-28-1-24 10-28-5-7-9-21-14"/><path fill="#5E5D5B" d="M560 472c-8 5 6 23 15 35-8-8 4-10 3-15-4-8-11-15-18-19"/><path fill="#A57C57" d="m113 525-1 1c22-5 11 17-7 16-7-6 1-9 6-16"/><path fill="#505152" d="M560 218c8-3 20 2 21 10-4 10-13 3-17 3-5-5-6-7-3-10"/><path fill="#525353" d="m558 254 1 11c6 4 11 6 16 6 3-4 2-8 5-10-8-2-13-7-20-6"/><path fill="#AB7147" d="M337 106c3 0 7 5 11 7v-6c2 6 10 10 7 16-5-7-3 11-7-7-5 3 0 3-2 11-3-18-15-4-13-22"/><path fill="#A47650" d="M147 301c16 3-19 18-40 19 36-4 6-9 37-16"/><path fill="#AF7A53" d="M310 114c8 2 6 13 12 17-19 1 17 22-4 23-8-4 3-20-6-36"/><path fill="#AF7E58" d="M522 258c2 10-16 8-21 12 10-4 7 2 18-6 2 6 3 8-1 15-3 6-7 3-11 2-8 0-2 2-14 10 5-2 8-7 12-10 5 1 9 3 6 4-9 6-6 1-10 11 19-11 5 5 18-1 6-12 7-19 5-37"/><path fill="#A46D47" d="M269 117c11-7 10 16 13 1 8 7 6 15 8 21 1-17-25-1-22-23"/><path fill="#3E4445" d="M303 28c-6 10-11 7-20 13l7 9c1-12 28-7 16-22"/><path fill="#5B5957" d="M557 504c-1 6 1 10 2 14 4 7 8 8 14 7 2-9-6-16-13-21"/><path fill="#9C7B5E" d="M147 427c8 10 13-3 37 6-15 1-81 4-36-5"/><path fill="#838384" d="M533 0c14 8 26 13 47 19-19-11-26-21-45-19"/><path fill="#3F4547" d="M272 18c-6 5-11 10-19 15 8 9 11 1 17-1 9-6 8-13 3-14"/><path fill="#889B70" d="M43 36c7-1 7 9 8 13-4 5-7 6-11 5-4-2-4-5-5-8 2-5 2-9 7-9"/><path fill="#AB714A" d="M15 127c9 15 6-4 21 18 1 4-3 3-2 7 5-18-14 7-18-22"/><path fill="#B7AEA0" d="M293 441c-9 5-38 24-50 25 13-11 29-17 45-24"/><path fill="#525354" d="M562 218c0 5-3 6 0 10 6 4 10 5 14 6 4-4 4-6 3-9-5-4-9-8-16-6"/><path fill="#C2966E" d="M343 173c1 16-8-3-5 22 3 8 10 2 13 4-1-10-3-11-7-27"/><path fill="#A4774F" d="M34 329c21 6 4 12 35 5-8 7-27 10-31 6 4-2 0-7-2-9"/><path fill="#835F5E" d="M469 442c-20 4-9 16 15 17 1-3-15-9-16-18 1-1 0 3-1 1"/><path fill="#936C4C" d="M172 580c-10 2-16 12-24 17 9 0 21 5 25-3-6 0 3-7-11-4 3-5 8-4 9-10"/><path fill="#A67A55" d="M454 539c3-3 5 0 7 0 3 7 1 8 4 11-5 1-7 6-14 0-5-3-3-11 2-10"/><path fill="#B4ACA1" d="M329 466c-21 18-37 25-50 31 5-8 45-23 30-25 6-5 4 4 13-3"/><path fill="#553A2A" d="M249 276c9 2-10 10-12 10 5 5 11 9 9 14-6-5-11-11-19-13 6-6 10-8 20-10"/><path fill="#AA7448" d="M417 137c2 27-5 17-9 43 4-26-1-28 7-39"/><path fill="#996540" d="M272 139c-1 15 4 32 15 33-5-13 7-13-9-26 5 12-4-4 2 12-4-7-5-12-7-18"/><path fill="#4B4945" d="M520 466c4-2 8 5 11 7 4 12-9-5-8-4 2 5 10 9 7 14-7-5-18-8-13-18"/><path fill="#A0673C" d="M336 104c-5 22 5 2 9 21-4-12 4-3 2-8l4 9c-3-14 6 6 3-8 3 1 5 1 6 3l-2-7c4 6 10 16 10 6-2-9-2 4-8-9l-5 4c-2-8-2 4-6-7-2 8-7-7 1 8-4-6-10-5-11-8"/><path fill="#A87F5A" d="M116 522c-5 6-18 14-10 19-5 8 47-26 18-9l1-6c-4 3-9 2-11-1"/><path fill="#686058" d="M474 12c-1 13-12 24-1 40-2-1-5-1-6-3 1 8-14 19-13 42 13-10-3-17 11-25 8-2 1-11 11-4-11-5-2-8-1-8-7-14-3-34 3-39"/><path fill="#66391C" d="M123 358c1 13-18 1-34 22 8-13 18-19 30-21"/><path fill="#B9B1A5" d="M316 451c-18 16-30 15-63 36 20-15 40-24 59-34"/><path fill="#A2764E" d="M35 307c-20 14 16 2-9 19-9-4-4-14-5-12l3-4"/><path fill="#967156" d="M368 449c26-4-1 7 5 11-7-3-13 0-24 7 8-7 15-12 19-18"/><path fill="#AD6848" d="M467 351c4 0 7 8 4 11-3-6-12 1-12 4 0-5-10-3-7-9 8-4 12-4 16-3"/><path fill="#5A5957" d="M563 449c-2 9 1 12 8 16 6 1 13 3 13-3l-20-11"/><path fill="#8C9F74" d="M45 37c-8 0-12 10-6 15 5 2 7 1 9-1 1-6 1-10-1-14"/><path fill="#9D724D" d="M404 197c1 30 12 25 14 44-10-11-18-26-16-42"/><path fill="#8A654A" d="M382 447c-33 15-14 4-50 20 18-2 45-11 50-16"/><path fill="#9E7048" d="M35 330c10 2 0 10 4 11 5 3 0 5 3 4-12-6-26 18 3 5-3-4 10-7-6-6 23-1 13-7 27-6-26 5-15-5-27-8"/><path fill="#613417" d="M114 357c1 3-2 4-5 5 5-6 0-2-8-1-13 9 2 0 6 0l-19 15c7-4 17-10 24-9-12 5-16 10-25 14 12-8 53-22 29-22"/><path fill="#62605E" d="M575 483c24 14 6 29 21 45 3-18-8-31-17-44"/><path fill="#4E4E50" d="M565 183c7-3 16 3 14 10-10 6-18-1-14-8"/><path fill="#CDBBA7" d="M485 412c1 7 2 6 13 7-10 5-14 1-4 6 8 1 22-6 32 3-32-7-16-15-39-15"/><path fill="#957460" d="M78 199c8 0 17 0 24 2-11 4-26 8-30-2"/><path fill="#9F7F64" d="M390 557c18 9-6 9 19 13-3-8 12-1 21-4-34 4-11-10-37-9"/><path fill="#42403E" d="M580 401c-12 5 11 10 17 11 2-3 2-5 1-8-6-2-11-3-17-2"/><path fill="#A37851" d="M61 325c7 8-4 5 22 3 3 8-42 7-27 1"/><path fill="#A27651" d="M320 377c37 5 13-1-13 16-1-12 22-9 11-15 3 1 3 0 6-1"/><path fill="#42403E" d="M546 436c5 7 36 9 50 33-7-18-28-24-44-34"/><path fill="#693D1E" d="M185 396c0 9-25 15-37 17 3-6 33-8 30-16"/><path fill="#9E7450" d="M355 191c3 25 9 36 1 38 0-13-4-20-2-35"/><path fill="#3B3937" d="m559 435 30 18c2-2 2-6 6-7-23-18 1 5-37-13"/><path fill="#535353" d="M586 285c4 6-4 3-2 9 5 1 9 4 13 6l1-12c-3-3-6-3-10-2"/><path fill="#937466" d="M28 229c10 7 26 10 41 17-16-4-31-4-42-14"/><path fill="#5F5433" d="M213 0c-2 4 4 9 9 12 4-2 6-4 7-7-1-7-8-5-14-5"/><path fill="#A96747" d="M481 357c-1 5-4 0-6 2 0 9-2 4 0 11 4 0 6 2 8 3 6-7 16-22 3-7-2-6 4-6-3-9"/><path fill="#9B633E" d="M270 115c-8 21 22 8 17 24 1-8 1-14-5-17-2 14-4-12-10-3"/><path fill="#A0795B" d="M152 485c-16 14-15 17-20 23 5-10-10-4 14-23"/><path fill="#997555" d="M363 225c6 8 10 23 4 34 6-25-10-16-3-32"/><path fill="#6C4426" d="m233 386 5-3c0 9 12 9-23 10 5-8 13-5 20-7"/><path fill="#A97246" d="M404 133c-1 23 8-2 4 26-2 0-6-2-9-10-2-9 4-6 2-11"/><path fill="#A46F48" d="M351 154c9 6 6 14 12 7 4 9 0 14 2 21-7-8-11-25-13-24"/><path fill="#414647" d="M314 19c5-2 11 0 12 5l-4 8c-7-1-13-9-9-11"/><path fill="#878686" d="M569 0c11 2 19 9 28 14l1-9c-10-1-16-7-27-5"/><path fill="#9B7859" d="M189 487c5 6-25 7-24 17-5-9-21 8-21 4 12-7 28-13 41-19"/><path fill="#CAC29B" d="M16 14c19-1-7 14-12 15 2-6 5-11 10-14"/><path fill="#B5ACA1" d="M307 467c10 3-33 18-45 28 13-11 29-19 43-27"/><path fill="#A9734D" d="M218 131c1-2 5 7 5 1 2 3 6 5 5 10-3 10-30-16-7-7"/><path fill="#9C795A" d="M371 224c9 23 6 15 2 33 3-20-3-9-4-28"/><path fill="#64291F" d="m450 373 4-1c2 5 5 5 7 9-3 1-28 6-13-8"/><path fill="#A66D47" d="M16 129c3 15 6 9 16 24 0-27-12-12-13-22"/><path fill="#A3754C" d="M48 342c2 3-6 9-2 11-9 0-13 0-16-5 5-6 14 2 12-5"/><path fill="#A96B40" d="M1 109c-4 12 19 7 29 18-7-10-17-11-26-18"/><path fill="#AC7447" d="M359 108c6 16 11-1 9 19-15-28-1 3-13-9l2-8"/><path fill="#A87D58" d="M456 539c-5 2-9 4-7 11 9 4 10 2 15 0-4-6 0-2-4-10l-2-2"/><path fill="#986C45" d="M63 296c5 2 11 5 18 4-7 4-8 6-12 6l4 3 1 1c-35-5-37 3 7 1 3 0-7-1-6-3 6-2 8-4 10-7-10 1-10-6-21-4"/><path fill="#5E6166" d="M489 0c9 6 20 10 33 6-7-12-16 6-32-8"/><path fill="#A47348" d="M434 248c-3 8 8 26 8 29-9 1-11-17-11-26"/><path fill="#A3764F" d="M109 269c3 1 9 2 13 5-14 12-29-6-10-2"/><path fill="#A97A52" d="M442 564c9-3 16 6 25 7-2 10-17-2-23-5"/><path fill="#A6754E" d="M349 353c-14 12 1 9-18 18-10-13 7-6 13-16"/><path fill="#4F4E4E" d="M558 537c6-1 8 11 14 14-10 5-16-7-16-12"/><path fill="#4F4F52" d="M567 183c-4 6-1 16 11 11 2-7-4-11-9-11"/><path fill="#5B5956" d="M594 476c-8 2-3 16 3 20 0-6 4-14-1-19"/><path fill="#4B4540" d="M492 498c3 2 19 0 12 11-9 9-7-3-12-8"/><path fill="#A37750" d="M61 296c12-3 15 5 26 4-4 3-4 9-12 6 0-1-3-6 5-4-7 0-12-2-17-4"/><path fill="#8E6D56" d="M114 199c-7 6-12 0-44 1 5 7 53 3 51-2"/><path fill="#434849" d="M283 12c4-2 10 0 10 5-1 4-2 7-6 6-3-2-14-10-5-10"/><path fill="#5A2217" d="M417 370c5 9 15 7 18 11 12-1 15 2 23 0-6-15-26 11-39-12"/><path fill="#A86343" d="M457 348c6 8-13 9 2 17-1-2 9-9 10-2 7-20-12 1-11-14"/><path fill="#9E6841" d="M311 117c7 10-4 24 16 39-15-23-1-8-13-41"/><path fill="#43494B" d="M271 68c8 1 13 7 6 14-10 3-8-7-6-11"/><path fill="#4F4F4F" d="M587 247c10 7-8 9 12 15l-1-13c-3-3-5-3-9-2"/><path fill="#A0754F" d="M58 306c12 2 8 5 22 1-5 10-33 5-25-1"/><path fill="#CBB69E" d="M330 427c5 20-4 0-8 16 0-5-10-5 5-12"/><path fill="#BAB4AA" d="M339 482c-5 8-24 22-34 26 10-9 20-16 30-23"/><path fill="#99765B" d="M361 452c1 8-20 15-26 14l23-12"/><path fill="#68432A" d="M149 440c26 4-11 10-20 8 8-2 16-5 24-5"/><path fill="#3D4243" d="M316 20c-7 3-2 9 3 12l7-6c-2-5-5-7-9-6"/><path fill="#4F422E" d="M278 289c12 2 7 12 5 16-5-3-4-9-7-13"/><path fill="#434849" d="M299 56c7-2 18 3 10 8-5 4-13-3-9-6"/><path fill="#AA734D" d="M242 134c2 1 2 5 8 3l3 13c-5-6-17-11-13-15"/><path fill="#A58366" d="M150 428c-42 9 10 4 32 6-24-8-21 2-37-4"/><path fill="#D1C7BA" d="M344 466c-33 25-78 47-111 79 33-29 75-52 115-80"/><path fill="#444849" d="M331 8c4-1 11-1 11 4-1 4-3 6-6 7-2-4-6-5-6-8"/><path fill="#A6744F" d="M267 138c-2 7 5 8 4 23-1-9-16-19-5-21"/><path fill="#AC7546" d="M374 115c1 3 7 10 6 15-8-19 0 11-12-3 0-14 6-1 5-9"/><path fill="#7E8382" d="M279 51c7-2 11 8 5 11-4 2-5 0-7-1 0-4-1-5 2-7"/><path fill="#9C705D" d="M13 230c6 1 8 8 22 9-9-3-22 3-25-8"/><path fill="#A1734E" d="M323 354c18 1-11 12-7 12-2-4-6-2-11-4 7 3 24-6 17-5"/><path fill="#475C0C" d="M6-2c-17 25 5 5 15 2H7"/><path fill="#653F24" d="M129 436c17-1-1 9-11 9 3-5 4-6 8-9"/><path fill="#A57E60" d="M147 487c-8 6-22 14-18 20 10-11 15-9 18-18"/><path fill="#6A371A" d="M379 168c5 5 5 19 6 24l-9-20"/><path fill="#4C2C27" d="M473 437c-8 8-1 5 7 18 0-2-2-2-1-5 3 7 5 12 13 7-11 2-10-12-18-17"/><path fill="#CDC49E" d="M18 15c-7 2-11 7-15 12 6-1 24-9 17-13"/><path fill="#3F3E3A" d="M515 467c4 10 7 10 13 17 2-6-6-14-9-17"/><path fill="#96775C" d="M402 438c3 14-4 7-15 13 8-4 6-8 11-10"/><path fill="#B6ADA1" d="M356 482c-4 9-20 22-28 30 6-10 18-17 25-29"/><path fill="#693A1F" d="M356 330c9 0 15 10 10 18-2-10-4-12-9-14"/><path fill="#603415" d="M184 396c-12 12-33 12-47 19 22-7 34-3 46-16"/><path fill="#AA6E4E" d="M486 345c3-2 5 4 6 5-5-7-4 9-12 6-10-5 2-7 6-8"/><path fill="#464846" d="M301 83c2-1 9 0 10 4-3 5-18 3-13-3"/><path fill="#A57852" d="M42 369c-17 8 12 3-20 11 7-5 9-10 15-11"/><path fill="#9D7149" d="M27 311c-8 0-7 6-2 13 5-3 8-3 15-4-11 0 7-12-20 1 3-10 11-8 16-10l-7-1"/><path fill="#957D62" d="M238 543c-3 8-20 19-27 28 5-8 14-17 23-24"/><path fill="#AD7348" d="M452 308c12 0 8 7 18 10-8 2-14-5-17-7"/><path fill="#987556" d="M96 454c-3 3 1 10-14 12 5-3 4-10 10-11"/><path fill="#AB6F46" d="M33 120c7-1 9 7 16 8-2 6-13 3-14-6"/><path fill="#573C27" d="M260 308c8 2 17 5 25 9-9-1-17 0-24-6"/><path fill="#525151" d="M558 538c-4 3 4 17 11 14-2-6-6-10-8-15"/><path fill="#9B6F48" d="M73 322c-12 3-11 6-28 14 25-3 49-4 15-5 3-2 14-9 17-9"/><path fill="#424241" d="M584 431c-2 7 11 7 14 13l1-8-13-4"/><path fill="#6B3626" d="M416 369c7 4 17 9 25 11-9 0-17-1-25-8"/><path fill="#3F4445" d="M285 14c-14-3 5 16 7 5 0-5-2-7-6-6"/><path fill="#423731" d="M0 303v28c3-3 3-21 2-28"/><path fill="#BAB3A5" d="M243 461c3 4 7 5-22 11 9-4 15-6 21-10"/><path fill="#BFAC9E" d="M447 403c4 4 9 3 7 12-4-1-6-3-11-2 5-6 8-6 1-5"/><path fill="#CEC6BB" d="m329 466-77 47c41-25 27-11 79-48"/><path fill="#444949" d="M334 66c3-1 6 0 8 1 2 3 0 6-3 8-4 1-7-4-6-6"/><path fill="#A07A59" d="M79 443c11-2-10 15-15 9 3-3 8-5 13-7"/><path fill="#433E39" d="M493 500c4 4 3 16 9 9s-1-9-7-8"/><path fill="#CBB39D" d="M439 385c-3 10-6 6-14 17 1-7 4-13 11-14"/><path fill="#A07A5A" d="M71 429c13 4-1 15-3 8-6-3 0-4 2-4"/><path fill="#3E4445" d="M272 69c-1 3-5 15 2 12 8-5 4-10 1-11"/><path fill="#C7B5A3" d="M433 420c12 2-6 8-12 11l11-11"/><path fill="#7B756D" d="M530 387c5-1 11 2 15 4-8 0-20 6-14-2"/><path fill="#AD815A" d="M404 234c7 2 10 14 16 26-2-6 4-11 1-15-6 6-11-12-14-12"/><path fill="#A27951" d="M84 321c2-1 5 2 9 0 2 6-12 14-9 0"/><path fill="#90786C" d="M110 209c11 1-17 9-18 4 5-3 10-2 16-4"/><path fill="#A17754" d="m353 386 2-1c3 5 4 5 10 5-19 4-18 7-13-4"/><path fill="#A9734E" d="M233 134c3 1 10 9 10 14-2 0-13-3-10-12"/><path fill="#A9764E" d="M504 302c11 1 1 6-3 12 7-11-5-5 1-11"/><path fill="#9C785B" d="M406 553c8-2 15 1 21 2-3 8-12-3-18 2"/><path fill="#9B7557" d="M68 194c6-2 12 0 17 1-5-1-32 8-19-1"/><path fill="#464039" d="M452 109c11-3 4 9 1 12-6-4-1-6-3-11"/><path fill="#52504F" d="M591 544c-7 1 0 14 7 12-2-5-2-9-5-12"/><path fill="#AC7D55" d="M444 565c5 2 20 15 21 7-7-1-13-9-20-7"/><path fill="#AB744A" d="M351 132c20 25-7-5 10 18-6-1-8-7-10-12"/><path fill="#A36C46" d="M222 135c-18-5-5 10 4 7 2-4-1-6-3-8 1 3-2 0-3 0"/><path fill="#A57851" d="M44 294c5 1 11 7 20 4-8 5-25 2-21-2"/><path fill="#4C4D4F" d="M577 151c9 3 0 13-8 7-1-4 3-8 8-5"/><path fill="#454A4B" d="M285 66c3-1 8 0 9 3-3 10-12 3-11-2"/><path fill="#99663B" d="M431 249c2 13 1 16 6 29 5-6 1 7 8 5-3 0-13-25-12-34"/><path fill="#A47852" d="M101 327c3-1 8-1 10 1-12 10-26 1-6 0"/><path fill="#484C3B" d="M155 9c6 3 9 18 15 25-7-7-11-14-15-21"/><path fill="#9F7958" d="M373 221c5 5 3 16 7 22-6-3-8-10-7-19"/><path fill="#AC7B52" d="M148 269c3 0 7 5 17 4-9 4-36-4-14-1"/><path fill="#B58963" d="m323 371-3 1c8 5-10 3 7 3-39 24 13 4 18 2-3 5-13-2-19 4 1-1-3-4 1-4l-2-6h1-1"/><path fill="#3F4445" d="M333 9c-3 2 2 10 4 9 8-3 4-12-3-9"/><path fill="#5E2C0F" d="M378 169c-2 3 6 30 11 18-1-23-5 18-9-20"/><path fill="#4E4E4E" d="M530 537c5-1 9 7 11 10-8 3-10-4-11-7"/><path fill="#B1784D" d="M300 113c13-2 7 16 9 19-4-4-1-15-8-16"/><path fill="#9E673A" d="M405 134c-11 12 0 28 2 20 5-23-5 5-4-20"/><path fill="#A87040" d="M165 160c7 8 10-5 12 11-6-1-8-5-13-8"/><path fill="#838786" d="M281 52c-4 4-7 10 2 11 4-5 5-9-1-11"/><path fill="#956B49" d="M260 352c5-2 10 0 13 2-1-1-31 8-10-2"/><path fill="#926F51" d="M309 400c9 0 17 6 24 1-5 7-19 1-26 1"/><path fill="#43484A" d="M302-1c-8 21 10-4 17 2l-14-1"/><path fill="#D2C7B8" d="M371 458c-27 19-54 42-85 62 26-13 54-38 83-61"/><path fill="#3E4344" d="M301 57c-2 2 0 9 7 9 6-7 1-8-6-9"/><path fill="#454645" d="M316 76c4-2 8 0 9 4-3 8-9 2-11-2"/><path fill="#4F4A44" d="M494 469c15-3 2 7 10 4-6 5-16 1-7-1"/><path fill="#A57850" d="M74 314c19-2 0 4 10 4-3 4-20-2-6-3"/><path fill="#9E7654" d="M197 355c14-1 3 10-10 4l9-3"/><path fill="#93726E" d="M446 452c2 12 3-3 10 3-1 2-14 13-11 0"/><path fill="#A47850" d="M38 299c7-3 7 4 12 6-2-4-30 0-12-5"/><path fill="#4E4E4D" d="M537 227c4-2 9 1 11 3-1 0-22 4-13-2"/><path fill="#8A6C5E" d="M27 230c8 11 26 11 40 17l-37-15"/><path fill="#9D714C" d="M324 369h3c-4 4 9 7-10 8 12-1-6-6 6-7"/><path fill="#B6855F" d="M347 354c-7 10-20 7-33 15 23-9 19 1 28-1 5-10-5-7 8-14"/><path fill="#9D7252" d="M164 509c6 1 12-1 6 10 5-17-8 7-6-9"/><path fill="#AA7248" d="M343 135c5 1 10 4 9 12-3-11-4 7-10-11"/><path fill="#AD784D" d="M261 173c3 5 7 13 6 19-4-3-4-10-8-15"/><path fill="#66361C" d="M374 345c2-4 10 4 8 9-7 1-8-3-8-8"/><path fill="#9E704A" d="M112 272c-13-4-8 14 7 3 0-4-5-2-7-5"/><path fill="#BDAF9D" d="M326 449c6 3-15 10-20 12l17-11"/><path fill="#AC784B" d="M291 168c9 4 6 13 9 18-4-9-8-4-7-15"/><path fill="#A4754E" d="M73 277c4 0 13-2 17 4-10-9-10 6-16-2"/><path fill="#986F4D" d="M280 390c8 0 18 6 28 0-9 7-18 3-26 3"/><path fill="#9A7454" d="M296 404c4-1 9 1 13-1 6 4-27 6-15 1"/><path fill="#5C3316" d="M229 385c-28 19 1-1 13 8-17-5 5-7-17-4l4-2h1"/><path fill="#9A7454" d="M396 262c4 4 2 5 4 14-10-4-7-9-4-10"/><path fill="#927364" d="M45 257c7 2 9-1 17-1-3 8-10 6-14 4"/><path fill="#957562" d="M356 65c8 4-10 10-11 14 0-9 5-6 9-11"/><path fill="#42413E" d="M518 173c34 1-5 4-13 5 4-2 8-4 14-3"/><path fill="#9A7352" d="M89 395c9 6-13 5-17 9 4-5 10-5 14-9"/><path fill="#444544" d="M582 423c3 5 10 6 15 8 0-8-7-8-14-7"/><path fill="#7C7F7D" d="M267 87c8-2 8 9 1 10-3-2-2-5-1-7"/><path fill="#A37853" d="M75 517c4-2 7 2 11 0-4 8-29 2-12 1"/><path fill="#6C3D1F" d="M377 191c7 0 4 10 5 14-8 1-3-5-5-11"/><path fill="#A77A53" d="M99 305c3 4 12 9-11 4 9-2 5-1 9-4"/><path fill="#A9764C" d="M497 334c5-3 9 4 13 1-11 11-7 0-13 3"/><path fill="#6A3C1F" d="M114 365c-5 10-15 9-15 12 2-6 7-6 11-9"/><path fill="#A4815E" d="M173 372c15-1-4 9-8 5 1-4 4-3 7-4"/><path fill="#673A1E" d="M109 357c7 3-8 7-14 9 3-6 7-6 12-7"/><path fill="#9C724F" d="M305 395c3 0 7 2 11 0 6 5-25 6-11 2"/><path fill="#AB7348" d="M317 116c3 5 11 7 11 15-6 0-7-9-11-11"/><path fill="#A76B42" d="M30 120c1-2 11 13 17 10-6-3-9-10-15-10"/><path fill="#B7B0A7" d="M262 456c9 5-4 6-14 12 1-6 9-6 13-9"/><path fill="#463B33" d="M0 267v23c10-7 0-13 0-21"/><path fill="#997461" d="M27 222c16 10-7 2-5 9-1-6 1-6 4-7"/><path fill="#9B6C54" d="M449 346c2 0 6 9 1 10-13-7 6-1-5-7"/><path fill="#9B7A61" d="M355 474h8c-4 6-16 8-10 0"/><path fill="#68381B" d="M384 176c7 5 8 14 6 14-2-5-6-1-6-11"/><path fill="#A37952" d="M415 223c8 8 1 6 6 15-6-3-9-14-5-11"/><path fill="#6A3E22" d="M163 314c3-2 7 0 9-1-4 7-14 5-13 2"/><path fill="#414442" d="M302 83c-11 5 5 8 7 7 1-7-3-4-6-6"/><path fill="#CBB8A2" d="M438 390c14-2-2 7-6 11 3-4-1-8 5-9"/><path fill="#5D563E" d="M195 76c6 3 10 13 15 19-7-5-11-11-14-17"/><path fill="#9C7657" d="M267 537c6 3-5 11-2 19-2-9-2-16 2-15"/><path fill="#A47955" d="M142 313c4 4-8 10-15 10 5-5 9-5 12-7"/><path fill="#A47954" d="M355 381c10-2-6 11-10 7 12-2-7-2 9-6"/><path fill="#3D3121" d="M278 291c-1 3 2 10 3 15 1-6 5-15 0-16"/><path fill="#D7B48F" d="M273 210c7 0 10 10 13 15-5-4-10-8-12-12"/><path fill="#AF764A" d="M232 232c14 0 7 7 9 7-9 1-8-8-4-4"/><path fill="#CFB494" d="M285 239c5 0 8 10 12 8-3 4-12-2-12-5"/><path fill="#987D61" d="M292 419h12c-6 0-23 9-13 1"/><path fill="#A37E5A" d="M379 230c6 2 6 17 9 21-4-6-6-12-8-18"/><path fill="#AA7A53" d="M508 340c4-1 13 3 7 6-16 5 8-5-11-4"/><path fill="#B07A4A" d="M381 103c4 4-1 14 1 20-5-6-3-11-1-16"/><path fill="#9C785B" d="M111 198c5-2 10 0 14 2-4 2-20 3-12-1"/><path fill="#A07650" d="M124 322c4 3-11 12-15 11 8-2 6-9 14-8"/><path fill="#986D4C" d="M401 396c6-1 6 7-1 9-1-2-6-5-1-7"/><path fill="#C5B6A6" d="M445 411c9 0 0 12-6 12l6-10"/><path fill="#60412B" d="M360 528c12-4 1 11-5 6 1-3 2-7 4-5"/><path fill="#5C5953" d="M531 401c1 7 1 8 7 8l1 1h2l-1 1-3-2c5-5 7-1 8-6-9 1-1-1-13-1"/><path fill="#D3BFA7" d="M331 430c-28 13-2 3-15 12 13-10 16 1 15-12"/><path fill="#3E4343" d="M336 67c-4 2-1 7 1 9 6-4 7-10 1-10"/><path fill="#A37B56" d="M385 230c11 11-1 7 5 16-6-4-5-13-4-11"/><path fill="#A57951" d="M50 323c14 1 7 6-9 7 3-4 7-3 8-5"/><path fill="#84817D" d="M527 445c6 2 12 12 19 16-7-3-12-8-17-13"/><path fill="#B07A4A" d="M385 110c0 4 0 14 2 20-4-6-7-9-4-17"/><path fill="#A17C63" d="M88 197h23c-8 4-14 1-21 2"/><path fill="#AB7547" d="M492 542c3 0 8 1 10 5-3 1-12 3-9-3"/><path fill="#504B46" d="M494 493c5-3 7 4 11 4-4 3-13 3-11-2"/><path fill="#B17845" d="M187 179c6 0 10 6 12 11-6-11-8 0-10-9"/><path fill="#927567" d="M43 243c6-3 12 2 17 2-4 3-10 2-14 0"/><path fill="#986553" d="M0 191c12 1-7 9 24 3-2-5-17 2-22-6"/><path fill="#A07756" d="M199 362c13 3-2 6-8 6 0-4 4-4 6-5"/><path fill="#B4B0A7" d="M281 473c3 3-15 9-19 13 5-6 10-9 15-12"/><path fill="#9E714D" d="M329 385c4 0 6 3 9-1 5 6-10 9-9 2"/><path fill="#A1744F" d="M404 232c6-2 9 8 11 12-4-5-8-8-12-9"/><path fill="#A8774F" d="m95 283 21 3c-8 4-13 1-18-1"/><path fill="#D6CCBE" d="M317 452c-36 16-70 37-104 57 35-20 69-41 105-58"/><path fill="#A7734B" d="M162 292c15 0 0 6-7 4 4-4 4-1 5-4"/><path fill="#6F3C20" d="M345 326c16 4-4 4 4 16-7-6-3-12-2-13"/><path fill="#A36747" d="M488 345c-1 6-7 5-10 6 1 7 16 0 12-2"/><path fill="#4B4A4A" d="M546 324c3-4 5 1 7 2-2 3-17 6-9-1"/><path fill="#AD7645" d="M187 162c6 4 9 5 13 12-6-6-9-1-12-10"/><path fill="#927365" d="M54 212c9-1-1 11-7 4 1-4 3-4 6-3"/><path fill="#AA754B" d="M505 366c10-2 8 0 7 8-3-2-7-2-6-6"/><path fill="#9B7556" d="M90 399c13 3-9 6-13 6 3-3 8-3 11-5"/><path fill="#9B6843" d="M259 129c1 15 9 19 11 30 1-19-5-15-12-27"/><path fill="#696966" d="M535 443c18 8 31 28 42 37-11-15-26-27-39-36"/><path fill="#9B7961" d="M100 200c5-3 9 1 12 2-13 8-8-1-8-1"/><path fill="#A27853" d="M124 327c14-1-2 7-7 7 0-4 4-4 5-6"/><path fill="#6A3A1E" d="M357 343c10 4 3 6 8 11-6-8-6-2-7-8"/><path fill="#98795F" d="M381 467c6 3-7 11-10 10 4-5 3-8 8-7"/><path fill="#A17655" d="M363 395c11 6-5 5-7 10-1-4 4-6 5-8"/><path fill="#A1734E" d="M411 249c2 6 8 11 9 16-6-1-7-6-10-13"/><path fill="#AC784C" d="M184 234c3 3 7 6 12 7-6 2-13-1-14-6"/><path fill="#987961" d="M419 433c13-3 1 9-4 9 3-5-1-7 7-7"/><path fill="#97775A" d="M244 565c6-4 10 9 5 9l-5-6"/><path fill="#9E7A58" d="M177 385c10-3 0 11-5 7 4-5 8-3 2-6"/><path fill="#9E7B5B" d="M88 445c4 2-9 8-12 8 2-5 6-5 9-8"/><path fill="#A87250" d="M52 146c5 3 8 3 8 9-7 2-10-4-5-6"/><path fill="#B07A48" d="M182 200c4 1 9 9 7 14-4 0-1-10-8-11"/><path fill="#AE835E" d="M124 324c-13 6-12 0-30 8 28-10 8 8 31-8"/><path fill="#5E2E13" d="M349 323c19 11 7 12 21 29-12-1 2-16-2-11 4-2-3-9 2-9-9 2-2 0-1 6-9-7-6-9-4-12-7 4-12 1-13-4"/><path fill="#5E381C" d="M114 436c14 0-3 15 24 0-7 0-19 5-17-1"/><path fill="#A77E5A" d="M124 193c7 1 12 3 18 2-6 2-10 4-16 0"/><path fill="#AC764A" d="M166 246c2 5 11-2 11 6-3 1-8 0-11-3"/><path fill="#A47953" d="M24 297c3 3 2 6-7 9 3-3 0-6 4-7"/><path fill="#897168" d="M430 474c9 6-4 8-5 8 0-3 1-4 3-5"/><path fill="#A67650" d="M520 281c3-1 1 9-5 6l-1-3 1-1h2"/><path fill="#99795D" d="M523 293c6 3 12 7-3 9 4-3 3-6 1-6"/><path fill="#AC7E55" d="M474 176c4 0-9 13-10 14 0-4 4-8 8-11"/><path fill="#9C7858" d="M387 250c4 1 4 10 2 14-3-3-1-9-4-11"/><path fill="#9E6742" d="M243 135c-9 4 8 8 8 16 0-7-1-15-9-13"/><path fill="#D1B392" d="M301 254c1 3 7 6 12 10-5 0-14-5-13-8"/><path fill="#414747" d="M287 67c-7 2 2 11 6 4 0-5-3-2-5-4"/><path fill="#593821" d="M362 528c-5 2-7 6-12 5 4 3 10 1 15-4"/><path fill="#AC734C" d="M287 121c7 2 7 1 8 12-5-3-5-7-7-10"/><path fill="#AA7952" d="M306 134c2 0 8 9 2 11-2-3-5-3-2-9"/><path fill="#AC784C" d="M154 255c6-3 11 1 14 3-4 3-7 1-12-1"/><path fill="#683C20" d="M153 318h12c-5 5-14 5-15 0"/><path fill="#A57048" d="M330 342c2 0 2 2 6 1-3 6-14 5-9 1"/><path fill="#A37D5E" d="M72 430c0 7-7 2-7 6 7 2 11 4 10-7"/><path fill="#A99581" d="M275 510c2 4-4 5-3 4-11 12-17 10-30 26l29-23c8 5-5 7 3 8-1-6 5-15 2-12"/><path fill="#E1BF99" d="M438 251c3 19 1 10 12 18-3-9-11-16-11-14"/><path fill="#734E33" d="M149 450c0 3 7 6-7 8 6-3-1-7 4-8"/><path fill="#B18E6F" d="M197 484c-20 14-47 14-64 30 22-14 29-10 65-30"/><path fill="#42362D" d="M0 333c-1 6 0 13 7 9-5-2 0-11-5-7"/><path fill="#5C2D13" d="M380 341v4c-7-5-7 8 1 9 3 0 0-4-2-7 3 2 7 2 9 4-2-5-8-2-6-8"/><path fill="#A87C55" d="M374 214c3 4 7 8 8 13-5 0-8-6-7-9"/><path fill="#6D3A1F" d="M206 285c3 7-14 6-11 5 1-3 5-2 8-2"/><path fill="#A07B5C" d="M393 273c6 1 3 11 1 14-3-8 2-8-2-11"/><path fill="#7E5534" d="M291 370h12c-9 0-20 10-14 0"/><path fill="#98795C" d="M202 434c18 3-4 4-8 6 2-5 4-5 8-4"/><path fill="#956855" d="M16 229c-13 9 11 9 17 11-10-2-15-6-18-9"/><path fill="#996C45" d="m292 365 13 1c-3 3-16 4-10 1"/><path fill="#916E4F" d="M99 455c-8 0-12 5-16 10 18-1 1-7 14-8"/><path fill="#494F51" d="m257 80 5-1c4 10-10 8-6 2"/><path fill="#9D7C5D" d="M375 242c2 4 8 1 3 10-3-1-7-2-3-8"/><path fill="#A47B55" d="M129 311c0 3-4 9-9 4 2-2 4-6 6-2"/><path fill="#986C4A" d="M282 351c6-1 0 3 7 3-11 4-8 1-9-1"/><path fill="#404140" d="M317 77c-5 1 5 10 7 4-2-3-1-5-5-4"/><path fill="#574E2E" d="M209 69c3-2 10 3 4 7-5 2-5-2-4-4"/><path fill="#A36C3B" d="M185 154c7 18 5 14 16 21-6-6-6-8-13-18"/><path fill="#A87854" d="M391 309c12 4 0 3 1 12 0-3-2-7-1-9"/><path fill="#505050" d="M531 538c0 4 2 11 8 9-1-3-2-6-6-8"/><path fill="#C2B3A2" d="M493 427c2 2 9 5 9 7-5 1-7-3-12-5"/><path fill="#A47253" d="M367 55c8 10-4 4-5 11-1-4 1-5 2-7"/><path fill="#62412A" d="M343 534c2 0 5 4 5 7-4 0-10-2-8-5"/><path fill="#59351C" d="m154 443-24 4c11 4 22-3 29-4"/><path fill="#A9734B" d="M255 115c7-1 7 9 5 8s-8-2-5-6"/><path fill="#4D4E50" d="M579 152c-3 4-11-2-8 6 3 2 11 0 8-4"/><path fill="#A2774F" d="M42 308c4-2 7 2 12 0-4 4-12 5-13 2"/><path fill="#895E3D" d="M303 374c8 2-8 8-11 5l10-5"/><path fill="#7C8182" d="M279 0c-1 4-5 6-2 9 4-2 7-8 4-9"/><path fill="#A16A3B" d="M375 115c0 14-7 0-4 11 7 10 1-15 9 6 1-7-5-10-6-14"/><path fill="#89694E" d="M404 440c-9 2-11 7-18 10 14-5 14 3 17-11"/><path fill="#A57952" d="M60 316c2-2 5 2 8 0-4 6-19 4-10 0"/><path fill="#A47851" d="M77 324c7-1 0 3 8 0-4 5-22 4-9 0"/><path fill="#A57854" d="M514 390c3-2 7 0 9 1-2 3-15 4-11-1"/><path fill="#A17550" d="M349 382c5 1-4 6-9 8 2-4 4-5 7-7"/><path fill="#98795F" d="M392 551c5-2 9 1 12 3-4 2-6 0-10 0"/><path fill="#9E6843" d="M234 134c-3 9 6 13 8 12 0-4-6-6-7-11"/><path fill="#A7754C" d="M154 278c3-2 5 2 7 0 0 6-13 4-9 1"/><path fill="#A5784F" d="M68 322c12 0-2 10-6 3 2-2 3 1 4-3"/><path fill="#A37752" d="M98 524c5-2-2 13-6 5 1-3 6-7 5-2"/><path fill="#734425" d="M238 324c6-3 8 3 10 2-6 6-4 0-10 0"/><path fill="#462B18" d="M261 309c6 6 14 6 21 9-5-5-13-4-19-9"/><path fill="#A07B59" d="M129 541c11-1 2 5-2 10-1-4 0-6 1-8"/><path fill="#A7774F" d="M511 311c1 4 9-3 0 9-4-3-3-4-1-7"/><path fill="#957A60" d="M361 583c5-1 8 2 13 5l-12-2"/><path fill="#DCB48B" d="M298 147c2 8 8 2 3 12-3-3-3-6-4-8"/><path fill="#9B7D66" d="M425 409c9 0-2 5-4 7 1-1-4-9 4-6"/><path fill="#9B795C" d="M215 552c10-2-4 8-6 9 1-4 3-6 5-7"/><path fill="#A07A57" d="M175 348c2-1 8-2 9 1-4-2-12 6-12 2"/><path fill="#693E1C" d="M133 417c9-2-3 8-6 7-1-5 2-5 4-4"/><path fill="#797C7D" d="M255 44c3-2 6 2 7 4-3 0-8 3-9-2"/><path fill="#B1784F" d="M310 124c7 0 4 5 4 10-5-6-1-5-5-7"/><path fill="#C6B2A1" d="M457 404c4 0 0 7-1 9-1-1-5-2-1-7"/><path fill="#91756F" d="M440 459c3 0 9 2-1 8-1-3-2-5-1-6"/><path fill="#8C6040" d="m401 396-3 5c4 5 16-5 4-3"/><path fill="#D3C7BA" d="M315 465c-31 15-60 32-90 48l90-48"/><path fill="#A87355" d="M431 109c4-3 7 2 9 3-2-1-13 6-7-1"/><path fill="#6A3E22" d="M385 191c4 0 5 7 4 11-3-9-2-3-5-8"/><path fill="#A97950" d="M144 275h9c-3 5-18 3-12 0"/><path fill="#CBB192" d="M351 275c4 2-3 10 0 15-4-4-3-8-1-13"/><path fill="#8F603F" d="M286 362c2-2 6 0 8-1 1 6-21 3-10 1"/><path fill="#9C836C" d="M226 479c5 3-4 8-9 8 3-2 4-5 7-6"/><path fill="#A27654" d="M366 392c12 0-6 5-9 6 2-4 5-3 8-5"/><path fill="#AD7F58" d="M40 370c-7 0-10 4-14 8 19-2 26-5 6-3 2-3 6-3 8-5"/><path fill="#A6805F" d="M80 444c-5 4-11 4-16 8 6 5 22-13 19-7"/><path fill="#A57554" d="M52 178c5-3 6 1 7 4-2 1-9 0-8-2"/><path fill="#59433A" d="M415 476c5 0-2 7-4 8-5-5 0-4 2-6"/><path fill="#9B714F" d="M354 395c7 0-8 8-10 3 3-1 4-3 7-1"/><path fill="#A57A52" d="M416 246c3 4 5-2 4 9-4-3-3-3-6-7"/><path fill="#AA7346" d="M443 276c3 2 1 3 4 8-5 0-12-4-5-6"/><path fill="#977E63" d="M250 417c3-2 5 2 7 0-2 3-16 7-9 1"/><path fill="#6C4020" d="M122 453h17c-6 3-10 1-15 2"/><path fill="#B07749" d="M102 152c1 2 11-1 6 6-4 1-3-3-7-3"/><path fill="#A4724E" d="M86 163c10 7-1 5 1 6-1-1-8-4-2-5"/><path fill="#A17751" d="M74 367c8 0-3 8-6 7 1-3 3-4 5-5"/><path fill="#997250" d="M330 392c4 1 8 0 12-1-3 5-8 4-12 4"/></svg>