<svg xmlns="http://www.w3.org/2000/svg" width="600" height="600"><path fill="#7D726C" d="M0 0v68c5-3 11-5 15-9-3 7-9 9-14 12L0 83l5-1c-7 3-5 11-5 19 5-3 10-6 14-6-4 5-9 6-13 10-1 51 1 93 1 133 12-4 14-7 20-7-11 9-12 4-21 14l-1 25c6-1 24-12 39-18 4-11-4-10 0-27 4 2 0 5 4 0-4 11 3 6 4 22 8-2 20-13 26-12-14 13-41 24-73 43 5-1-1 3 6 2-6 16 4 13-3 26 14-5 31-18 33-18-6 12-18 15-32 23l-2 30c16-12 23-34 46-40-1-10-6-14-6-16 6-1 18-9 24-12l2 1h2l1 2v3c-5 0-17 8-18 9-3 5 2 8 1 10 27-11 30-15 59-27 10-4 19-9 30-7-3-13 2-12 2-14-2-3-1 1-5 1 2-5 0-2-2-9-8 5-18 12-29 14 3 5-11 4-12 10-4-1-15-1-25 11 1-3-2-1-3-3 1-4 15-7 22-14-2-5-1-7-2-11-3 1-3 3-5 3 5-8 3-9 2-16-10-8 1-1-10 1 5-8 10-9 9-14-6 0-2-16-6-23 4-4 11-6 18-12 4 6-7 8-9 11 2 35 4 40 7 62 12-11 33-17 39-22 4-5 2-12-1-20 4 9 5-5 10 6 3 15 4 27 11 38l1 3h-2c-8 7-12 18-23 18 0 3 3 3 6 6-3-1-4 5-5-1 0 1-5 14-8 6 0 4 1 6 3 9-4-1-5-4-6-3 7 3-7 8 2 8-1 6-3 3-4 1 6 2-9 11-7 17-4-1 0 5-7 3 4-5 1-2 0-9-3-7-1-3-8-2-18 15-16 29-31 42 7 27-8 17 1 28-6 4-5-2-7 1 4 4-2 1 1 7-13-4 0 6-12 3 3 0 0 12 1 16-6 0 1 3-5 7 3-1 5-4 7-3 0 3 7 0 8 4-6 6-4-1-9 1 5 8-6 8 3 12-13-6-3 4-11-1-2 3-9 19-11 17-2 4-17 17-16 13-7 5-7-4-11 1 1-8 2-6 5-11-6 1 3-4-7 0 0-12 5 0 7-5-5 2 4-8 1-10l-2-3H6l3 1-1 1c-2 2-3 3-6 0-2 6 0 11-2 13-1 19-9 98 33 41 11-1 28-18 37-22 7-3 24-18 35-22 2-5 27-17 28-30 2 5-4 17 1 25 1-2-3-3 0-5 4 12 0-9 6 4 16-10 20-15 27-16 0-2-4-4-2-5 9 3 13-1 21-4 2-8-3-13-3-18-2-7-6-6-10-4 1-7 12-4 10 1-3-7 0-9-5-14 5 2 0 9-4 6 5-4 1-4 3-15-1-9-5 9-10 2 10-7 12-36 27-36 0 6 0-6 4 2-7 6-7 2-13 8 12-2 20-8 27-4-1 4-6 3-10 7 3 6 3-7 10-1h2l-1 2-4 2c6 1 0 1 3-3 6 2 3 4 1 6-3 4-11 5-11 8 1 2 2-3 5-2-3 8 10 2 5 9 7-6-4-2-3-8 10-9 5 5 10-3l1 6c-4 5-2 7-5 9-4 1-7-2-4-6l-1 2v1l-2 1c-13-1 4 4-13 5 0-7 2-4 7-8-2-3-2-5-7-7 7 2-1-8 5-9-6 0-9 4-16 6 2 6 1-3 7-2-4 2 1 8-5 6 8 6 0 7 6 9-2 0-1 5-4 4l3 8c-3-2 7-2 6 5-2 4 1 3-2 7 4-1 3-3 4-5-1-4-6-6-1-7 1 5 3 3 7 2l2-1h1v2c-2 1-1 3 0 6 6-2-6 0 1-7 1 0 4 2 3-2 6 3 1 8 3 12-1-6 4-7-1-13-1-3 0-1 2-4-2 1-6-1-3 4v2l-2-1c-4 0-3-3-3-6l-1 7c-3-9-4 1-7 0 0-3-5 0-3-5 6-2 7-4 11-8 4 7 1 4 5 2 4 4 4 0 5 2 5-7 1-2 0-9 10-6 6 12 9 2l-1 24 6-18-2-2-1-1-1-2c1-7-4-4-6-5 0-7 2-5 3-3-2-6-5-9-4-18-2-6-4 1-6-4-3 2-7-2-7-4 6-5 11-4 13-5l-3-9c0 4-6-3-14-1-1-10 8-12 11-15-5 3-14 6-10 13l-1 2-1 1-2-1c-3-1-2-3-5-4 8 0 1-9 10-11-1-2-4-1-5-4 4-13 6-6 9-18-3-16-7-8-12-25 4-2-2-10 3-8 4 6 4 10 5 16 7 2 10 12 14 8 2 10-3 18-3 26 3-15 9-25 14-37 4-1 6-6 10-5l-10 2c1 9-7 7-6 10-2-21 11-26 11-47-2 8 11 5 4 10 15-12 8-2 10-18-1 0-1 4-4 2-1-2-7-4 1-13-3 5-6 1-8-2 0 4 4 6 2 10-3-4-8-5-5-11 4 7-8 6-6 9-7-6-10 4-16-5 3 11-5 18-7 28-5-6-2-13-2-18 0 7-3 5-3 5 3-10-8-21-2-25 4-2 0-2 6-3-3-2-1-5-2-7 0 5-4 2-6 6-4 1-1 4-4 4 0-1 8 2 1 12-3 0-5-4-4-7-1 1 0 7-3 4l-2 5 1-4c6 3 3 8 9 5-8 12-7-4-12 11 4 3 5-2 8-3 0 14-10 8-6 15 0 1 2 5 5 4 1 19-1 39-5 60l8 15c-8-3-2 7-8 6v-1l-2 1c6 3 0 6 1 8-3-1-3 7-7 4 4 5-2 6-1 6-7-1-9-7-9-12-5 17-11 15-9 25-1 2-3 0-7 0 4 3 5 5 6 8-11 5 2-3-9-2 4 3 1 5 6 9-7 0-6-1-12-5 3 2 4 4 5 7-5 10-17 21-23 31-11-6-6 12-12 3l-1 1 2-2c2 6-3 6 0 8-14-16-6 7-18-8 3 5-3 10-1 19-9-1 1-8-4-7-1 9-9 0-3 10-3-4-14 6-18-4-1-1-4-3-3-5 2 2 1 7-6 7 4-4 0-4-2-9 17-4 10 3 23-8-3-3 11-3 13-11 1 3-6 4-3-4 8 4 14-13 21-12 11-13 13-23 27-42l22-18c-15 3-30 16-44 28-3 7 6 17-4 23-5-3-1-6-6-7 2-5 1-21 2-18 17-16 20-16 43-31-6 0-19-2-25 6 14-15 25-31 32-50 0-3-6-3-4-5l-1-1c-1-36 6-53-1-73-3-3-3-7-11-4 12-8-9-6 9-10-10-1-16-25-22-29 1-8-6-13-3-20 4 3-1-2 4-7 6 0 9 1 12 3 1 7-7 1-11 7l2 11c6 11 14 22 21 29 7-6 7 6 13 3-4 6 4 0 5 8-5-2-10 1-12-5 1 4 4 5 6 8-1-5 6 0 8-2-3-4 1-8 4-11 5-10 18-9 10-16 17 5 39 7 55 8-5-8 4-5 7-7 5 6 4 10 13 10-2 14-14 10-15 19 1 3 4 2 6 3 6 0 3-3 5-5-6 13 6 1 8 11l-4-1v-2l1 3 2-1c5 1 15 0 24 2-13-1 5 14-18 17 11-4 7 0 16-9 1 5 8 11 8 15 4 4 9 1 13 7 4-24 8-32 7-56l29-2c7-3-1-5 1-7-3-7-10-8-14-18-8-2-8 4-16 5-3-8 3-5 8-11-10-11-25-35-32-44-16 4-25 13-38 16 23-14 49-29 69-39-1 4 4 0 6 3-6 2-25 13-33 14l38 48c5 5 3 1 6 0 2 6-3 5-3 5 2 4 5 7 7 3-2 5 6 10-1 9 4 12 17 1 10 12 17-9 29-14 44-23l-3 13c-3-8-7 5-13-2-16 7-8 13-29 19 15 2 20 20 31 21 7 12 13 20 17 34l3-3c5 2 3 6 7 7 7 4 0-2 7-2 1 5-3 6-4 7 4-3 4-2 3-6 0 7 24-8 27-11 5 4 6-1 10-2-8-8 12-1 2-9 8-3 6 3 6 3 7-2 16-13 17-8-3-3 0-6-1-9 5 3 0 4 3 6 15-8 28-11 39-18-4-11-10-6-15-16-7-3-1 3-7 3-4-5 2-5 2-7-3 0-2-3-5-3 3-3 4 0 6 0-10-7-11-8-18-9-3 0 3 2-3 8-5 1-30 12-36 17-9 7-23 4-38 14 7-8 16-11 25-15-7-3 1-3-2-5 23-1 43-21 51-20-6-12-35-38-41-44-2-2-12-7-6-10-2-6-32 15-28 6 18-6 29-21 64-34 1-4-7-4-10-8-1-4 3-4 1-5 8 2 10 8 15 10 22-12 22-9 40-23-2-2-8-2-8-6 13-4 11 11 13 3 4 4 3 6 0 7-40 19-52 29-90 46 7 12 25 12 26 25 38-21 50-30 79-42-4 4 7 1 1 7-9 3-17 6-21 10 4 9 9 6 21 18-5 0-6 3-7 3-5-8-18-7-21-19l-42 23c3-2-9 5-5-3 26 27 49 45 69 64 25-14 21-8 48-27-5-7-14-8-16-15 16 10 15 1 37 20-5-10 2-37-1-57-22 9-27 8-39 18-2-7-3 2-9-1 11-7 39-23 47-26-1-18 2-19 1-41-15 9-34 13-53 28-4 2-8 2-6-3 3 3 3-7 11-6l-5-7c6 0 7-4 12 3 29-15 17-6 41-23-2-3-6-7-9-7-1-3 4-4 2-5 9 2-1 3 7 2 0-10 2-25-2-31H242c-10 1-14 6-16 6-6-3 1-2 3-6-15-2-37 5-43 0l-5 5c-1-2-4-3-3-4l-69-1c0 1 0 5-3 5 0-3-4-4-1-5H2"/><path fill="#504741" d="M508 33c0 6 5 7 9 10-16 10-25 15-44 23-5-7-7-7-11-11-8 7 8 6 7 14l-86 43c-7 2-4-4-8-1 2 5 20 26 23 28 2 5 7 7 1 9 4-2 6-2 8 0 8 11 14 16 24 27-2 2-6 2-9 4-24 12-25 13-31 21 44-19 3-4 28-18 21 0 29-12 57-23 2-2 6 0 5-9 14 4 12 6 19 12 0 5-6 4-3 5 6 2 0-3 6-3 1 14 15 6 18 19-11 8-22 8-29 15-17-1 3-4-8-5h-1l-1 1c-4 2-2 2-4 6 2-2 1-5 5-7-3 6 2 4 3 7-10 4-6 3-19 10-6-6-4-7-13-4 4-5 13 2 11 4-8 7 0-5-10 0 6-2 1 2 6 3-22 6-12 6-31 17-2 1-5 3-6-2 10 1-4-3 8-6-1-9 3-2 4-10-3 6-7 4-9 6 3 12 1-10 5 3-5 3-7 6-10 5l-1 3 1-2h1l1 1c3 3 1 4-1 5-6-2-1-5-12 2-4-7-6-9-10-12-1 13 10 23 9 28-1 3-2 1-4 2l12 3c-13-6 3 16-11 7 10 0 3 10 10 5-2 1-1 8-5 6 4 13 4 17 1 36 1-2 3-1 4-2 4 11 5 30 4 47-6 11-2 33-12 45-2-2-3 7-7 8 3 3 7-11 9-2-2 14-7 26-17 38 0 10 6-12 9-1 0 10-9 24-11 43-1 11 1 28 2 28-4 11-4 22-14 28-4 2-8 0-12-1-10-10-10-14-18-22 5 0 1-8 4-14-13 13-31-7-40 0-1-3 1-4 3-5-7 0-7-10-9-3l-9-23c-5-26-5-28-7-49-2-5-18-2-27-3-7-3-18-2-23-15-4-5 1 4-5 3 3-19-10-16-4-25-2 6-4 3-9 7 2-6 0-5 6-9-1-2-3 3-5-1 4-1-3-11-1-17-1 7-4 8-7 13 3-10 1-14 3-18-3-1-5-1-6 2 4-8-6-14 0-15-15-7-16 9-24 1 6-3 10-14 14-18-11 17-6 0-24 22 0 4-6 18-8 20-6 1-10 8-17 7 0 0 0 2 2 2-3 6-10 7-15 17 2 0 3-1 4 1-4 6-7 12-6 17 0 3 1 8-3 8 4-3 4-7 7-8 4 4 3 4 7 4h-1c6-7 0-3 2-8-8 4-3 0 0 5-4 1-7 1-7-1-2-1-1 1-2 2-5-5 0-6 0-8 16-9 16-26 33-30 1 5-2 2-1 9 2 2 10-4 8 5-14 0-28 9-29 14l29-15 4 25c-4 2-6 5-8 5l3-15c0-6-4-4-3-9 7 19-15 23 0 20l-2 4-3 3c-2-7-8-11-15-12 2 5 8 0 4 7-2-4-4-4-7 1 2-7 7-1 7 1 0 7 1-2 7 4-10 3-15 10-31 16-1 0-1-2-3-2 4 6-2 1 0 5-4-9-6-17 3-29-4 11-24 25-31 31-19 11-23 16-35 21l-42 33c-15 8-21 8-30 15 1 36 3 58-1 75h7c-2 2 1 6 2 7-4-60 10-62 1-78 6-1 4 3 6 6 6 4 4-3 12 1-4 9-1 2-4 15-3-6-1-6-5-3 3 0 2 4 1 7h-8c3 3 3 2 7 1-1 2-3 9 6 9-6 1-6 11-9 14 0-2 5-5 6-7 9 9 2 5 9 5 3 6-3 6-4 6l10 4c2-6-5-2-3-9 6 3 6 5 10 4-3-2-5 1-4-5-1-5 1-4 5-1-2-10 3-7 4-25 4-9 3 0 7-5 3 3 10 1 8 5l1 2-1 1-2-2c0-2-2-1-3-2-5 4 1 5-1 9l3-7c4 4 0 4 0 6 6-1 10 3 12 8-3 4-6 1-8 6 6 5-3 7-2 12 6 0 0-8 6-7 1-3-3-2-5-3 5-11 8 5 8-4-3 13 3 6 3 19-4 0-9-3-6-5-4 3-8 3-9 5 5-9-14-7-3-11l-5 2c1 2 0 6 6 9-5 6-5 17-12 13 3 3 5 4 7 3 2-3-1-6 4-8 3 3 6 1 7-2l-4 11c6 0 2-4 6-5 4 1 6 1 4 5 6 3 17-2 16-1 3-2 1-3 4-4 3 0 0 3 4 4 13 2 45 0 53 0 3-3 0-4 6-5 4 2-2 3-1 5l379 2c-6-14-17-23-20-36-4-24-6-45-5-68 2-9 3-17 6-24 14-28 23-46 39-68 16-14 31-25 46-36 2-52 0-54 1-102-2 2-3-2-4 0 0-6 1-3 3-1 1-4 2-36-2-39 2-8-2 3-6-1-4-5 13-6 9-17-9-4-4-10-2-11 2 1-2 2-3 1-8 1-2 9-10 7 0 4 7-3 7-5 2 5 6 8 3 8-3 2-4 0-2-1-12 6-1 6-21 14-5 3-7 2-7-2 2 4-2 7-5 8l-8-3c3 3 4 4 4 7-6-7-8-2-11-7-5 4 0 7 5 6l-22 14c-11-1 3-5-6-6l13-1c-1-3 5-8-3-11-3 4 2 1 0 8-3 1-18-4-23-3 0-1-10-4 2-4-7 0-10 4-12 3-1-1-5 2-4-2 13-3 0-5 6-7-7 0 2 5-6 5-1-4-10-7-16-12 7-3 11-9 18-10 8 0 5 6 4 6l-3 1c-6 6-2-1-7 7 4-1 6-4 5-5 4-1 6-2 8-1-1 3-6 2-4 4 15-6 4 5 15 0l26-18c3-3-9 2-11 6-5-4 4-8 12-11-6 1-5-2-8 0-7 0-6 3-11 8-5-10 0-1 1-6-2-4-5 2-8 1 35-21 59-30 69-37 8 0 10 2 15 8l1-9c-35-21-22-17-52-37 12-2 28-15 50-25 2-1 1-3 2-4l-52 25-34-22c37-21 131-73 39-27 4-8-2-6-5-6l-2 1h2c-1 3 6 3 4 6-30 15-61 30-96 49 0-10-19-17-21-24 34-22 50-29 89-49h2l-2-2c-7 2-2-5-15-6"/><path fill="#B5BAB7" d="M127 128c1 21 10 28 17 45 5 3-1 4 8 5-15 3 2 2-8 8 8 0 8 2 14 3-1 5-1 11-4 11l8 22-2 2-3-1-10-9 1-2v1c3 4 7 6 9 10 2 10-4 0-4 2 2 0 2 4 4 4-4 12-1 22 1 34-12 2-27 0-38 6-38 21-68 28-101 50-1 9-9 14-17 22-2 35-2 92-1 108 8 4-2 7 8 4-2 7-7 3-4 16 7 2 7-2 14-1 5-8 12-9 18-24 4-3 5-1 4 1 2-5-5-4-3-7 9 10 8-6 15 1-1-7 0-7-4-13 4 4 4 0 6 5l1-1h2l-1 1h-3c4-10 7-3 12-9 4 4 2 6 4 10 7-7 12-4 18-8 6 4 1-4 9-3-2 0 1-2-2-3 5-4 9-9 10-8 8 3 6 4 4 6 6-2 1-7 8-4-4-4 5-2-3-8 3 0 6 2 5 5-1-3 3-4 1-5 3-4 3 2 3 0 6-12 18-18 23-30 4-2 0-4-1-7l7 4c-1-5-3-4-1-10 8 2-3 8 9 2-3-1-6-3-7-8 1 0 6-2 6 1 0-14 3-7 8-23 5-4 1 9 9 8 2 1 3-10 9-8-4-6 7-5-2-8 8 1 3-8 10-7l-7-10c-2-12 2-19 1-22 4-4 6 0 6 3 2 1 4-8 5-1-3-5-4-12-10-4 7-18-2-30 2-40-3-1-2-3-7-2 2-6 0-20 3-31 4-2 6-6 8 2 5-14 2-8-2-8 3-12 10-11 10-12 9 5 1 6 3 10-1 6-5 8-3 13-1-4 1-7 3-10 2-2 5-8 5-1-4 11-5 21-5 31 4-6 10-14 6-23 8-2 11 4 14 7-4-6 6-4 10-10-1 6 6 0 4 7 4-3-2-5-1-10 4 2 5 7 7 3-5 12-7 22-14 43-13-2 0-15-9-20-6-6-7 14-8 14-5 6 0 18 3 27 3-1 4-2 5 2-3-11 2-17 0-21 6 6 27-8 37-6-5 1-15 16-26 18-6 15-12 24-15 40-3 8-14 8-13 17 6-2 13 8 13 3 4 5-1 4 5 7-6 2-13 6-15 5 2 6 7 5 11 7 9 30 17 41 30 68 17 6 28 4 43 3 4 15 6 48 12 63 4 14 14 19 23 23 5 3 6 2 10 3-3-3-6 1-8-2-3-7-2-9-6-15-1-25-2-26 0-47 0-8-9 0-12-5-5-8-10-10-10-19 24 1 42-11 70-20 7 45-19 77-17 117-1 9 8 12 9 19 4 7 10 4 12 8 12-9 13-17 16-27l-2-17c-11 8-3-6-14 4 2-8 5-3 1-14 2-2 4 0 4 1 2-3 7-12 10-10-9-4 2-9-5-16 5 0 2-5 5-11-4-8 7-10-2-13 3 1 7-5 11-5 5-7 4-13 7-21-6 3-8 3-11 7-4-1-14 2-20-1-3-3-1-5-2-9 5 2 12-3 16 5-1-6 8 1 8-7-1-1-3 1-7 2-4-2-4-5-3-6 6 0 6-9 13-8 2 2 3 3 6 2 4-3 3-12 9-14 0-8-1 0-3-2 1-6 5-13 4-16-3 0-1 8-9 15-4 3-8 5-10 9-4-3-2-6-3-9 13-7 12-15 21-20 4-6 2-9 4-13-6-28-8-67-15-100-2-22-10-38-20-51-12-5-19-24-34-25-13-2-21 3-28-1l-11 57c-16 1-20-24-26-22 0-5-3-4-2-7 2-1 5-1 9 1-7-5-11-5-18-7v-2h1c13 3 9-2 21 0-4-1-10-7-15-6 0-7 6-3 8-8-3 1-7 4-13-1 5-6 11 0 15-5-6-3-6-2-19-5l-5 13c-3 3 4 7 6 10-2 5-4 1-7 0 6 6 14 3 16 9-9 2-11-5-15 1-3-2-1-2-1-4-8-4-5-2-17-5 1-12 12-7 13-20-7 0-7-4-10-11-1 5-5 0-6 3 0 1 2 2 1 5-16 0-45-4-58-9 1 2 0 3 3 2-5 1-3 11-8 4 1 7-11 10-8 21-3 2-5 0-8 0-9-7-19-16-25-25-7-11-15-20-15-30"/><path fill="#84A8BE" d="M597 373c0 1-26 9-42 27-16 21-27 42-39 63 2 1 5-1 5 3-3 1-6-1-7 1 8-2-3 25 6 25-8 1-3 5-6 10 6 2 1-4 10-6-5 15-12 8-8 15 1-1 4 5 4 0-4-2 3-7 4-10 7-3 4-1 8 0-3 12 0 24 3 28-4 16 1 9 1 15 1 2 4 2 3-1-1-5-4-8-3-11 0-1-4-6 3-10 5 5 2 12 5 18 8 3 26 41 39 56-8-17-29-43-38-72 17 20 35 46 47 72 2 3 4 2 6 3V491l-3 61-10-31c1-22 11-25 10-37 3-1 3 1 2 4 1-39 2-78 1-116"/><path fill="#7F6354" d="m177 433 2-1c-4 2 9 2 2 9 3 0 7-7 11 1l-16 3c9 14-2 8 12 16 6-5 7-25 9-4l-6 3c4 11-1-5 6 2-1 10-1 10 2 14 9 3-6-4-1-7 2 7 3 1 7 2 0 5 4 9 1 13-3-2-4-3-1-6 0 13-7 2-7 13 0-8-3-6-2-12 1 6-8 7-3 12-7 1-4-4-8-6-1 8-6 2-6 7 3-3 7-4 12 1-29 16-38 18-67 35-3 2 0 4-3 6-8 1 1-1-1-3-8 1-14 5-19 10-7-4 1-3-1-5-2 9-10 5-14 11-6 7-8-11-8 0-1-11-2-5-3-14l2-1v-1h2c-2 3 5-7 5-2-2-2-4 0-5 1-3-5-1-11 0-13-5 9-6-8-6-6-2-12 6-8 3-25 10 1 2 3 11-7-5 9 4 1 3 7l-3 1-1-2v3c1 0 4 3 8 1 1-2-4 1-4-2-1-7 10-11 7-11l18-11c7-1 9 3 13 3l2-2h2l1 2c-4-3 0-5 3-6-2 0-8 2-5 4-5-3-8-2-11-2 12-3 12-10 22-9l-3 2c3-6-3-1-3-4 9 0 6-5 14-5-10 8-8 16-6 16 1 4-1-5 4-5 0 2-1 19 7 9-13-1 1-9-5-8 6-3 10-13 10-16 2 1 8-4 9 4 1-1-2-4-1-6 2 4 7-5 9 0 0-6-2-4-2-7"/><path fill="#816456" d="M190 426c-11 1-12 12-20 11 3 4 3 2 8-2-2 6-8 9-9 7-4 4 4 1 0 8-2-3-4-4-4-7 1 2-2 5-1 6-1-8-7 7-6-4-2 2-14 9-13 3-8 6-8 5-13 12 2-6-1-10-7-18l-18 18c2-4 7-1 8-4-3 5 13-5 11 3-8 1-5 6-24 14l2 9-6-7c-5 15-19 2-22 19-3-3-1-5-2-8-5 30 10 30 2 60 3 3 10-2 13 2-5-8 10-4 7-10l4 2c-2 6-6 7-9 8 8-2 13-7 19-9 2-4-5 4-8 4 6-13 11-11 16-12 4 1 2 4-1 3 4 0 7-4 3-5 1-2 3-1 2-3 27-13 40-19 63-32 12-7 5-3 6-9 6-3 6 2 4 3 4-1 9-6 10-5 2-3 0-6-2-10-5 1-6-14-11-9 3-11 7-5 3-13-3-2-1 4-5 5-1-10-1-5-6-5 2-7 6-3 6-9 3-10-7-8-1-16"/><path fill="#8F6A65" d="M150 266c14-2 13 20 24 28-1 6-1 9 2 11-3 3-5 3-8 2 6-1 9 1 10 6-15 6-23 15-36 26-14 18-17 28-28 40-8 2-10 15-20 13-3 5 1 6 0 10 0-4-13 8-18 13-2-1-7 1-15 3 1 1 1 3 4 3-10-8-12 2-18-7 7-17 19-22 22-37 0-7 4-7-7-7 12-11 4-13 18-23-4-8 5-5 1-10 15-11 14-21 19-19 3-1 8 7 4 11 10 4 3-12 10-2-1-9 8-14 9-21-5 1-1-1-4-4 2-3 4 0 5 1l13-20c2 4 7-8 13-14"/><path fill="#6E615F" d="M586 158c-35 16-66 35-109 54 8 6 19 17 27 18 3-9 3 6 3-2 6 3-1 3 6 5-8 2-3-3-10 7l6 3c-4-5 3 0 4-4 7 7-8 7 4 9 3-8 27-10 33-22l2 4c6-7 20-11 32-18-3 2-4-1-6-4 10 4 9-4 19-3-1-11 9-45-12-48"/><path fill="#535955" d="M102 88c0 5-5 1-5 2 3 3 3 7 5 10 0-1-1-7 2-5-2 11 1 14 3 26l3 6c-5 2-5 7-7 6 2 0 5-1 7-3 2 9 5 15 5 19-25 15-38 23-53 30 4 3 10-4 16-6 1 21 8 52 8 54-18 10-21 10-38 22-7-14-1-21-9-23 10-15-6-19 3-30-7 1-4 17-3 25-18 8-21 13-36 17-3-2 0-5-2-7l-1 12c15-9 25-12 35-17 5 11 2 14 7 20-3 8-28 19-41 26l-1 69c4-7 3-20 3-29 26-16 32-15 37-25 6 5 7 8 6 12 3 2 4 0 5 0 3-4-6-8 1-13 31-22 68-30 83-42 5 0 7 3 6 6 3 0-1-5 4-3-2 9-3 0 1 16 3 2 4-2 5 0 0-7-4-7-4-15 0-28-16-24-11-37-4 3 0 21 6 25-10 7-30 13-47 24-1-4-1-8-3-9l3-12c-5 5-2-8-4-3l-5-36c2-3 12-6 12-10-4 6-14 4-15 8 4-11-4-15-2-24 20-11 28-21 47-26-3-4-9 3-9-3 0-9-10-17-7-24-2 1-3 2-5 1 1-15 1-17-5-33"/><path fill="#6B645D" d="M62 495c-9 9-16 9-22 15-2 6 4 9 0 14-8 3-8-3-13 2l-1-3v-2l2 1h1c1-3 0-4-1-5 4 4 9 5 9 5 3-1-1-4 1-8-5 0-2 3-6 4 0-6 3-5 3-8-2 6-9-2-5 5-5-4-2 3 0 4-7 6-5-1-5-4-3 3 1 4-1 8-4-5-8-7-12-2 1 8 1 7-1 13 6-6 3 2 7-1-5 2 2 9-6 4-3 10 1 13-1 16l1 45c25-3 30 4 52-2 1 3-1 2 5 3-2-7 1-7 1-8-4-1-3 8-7 3 2-9 4-2 3-9l8 6c1-6-1-7-5-6 4-4-3-5-1-6l6 2c-1-21-4-11-3-29-2 0-4 3-4 1 6-21-3-20 1-37-6-1-9 1-9-7 6 4-1 2 8 2l-1 3v-2l-2-18"/><path fill="#7B6963" d="m509 96 1 2c21 16 45 32 69 53-21 13-30 16-47 27-33-43-112-48-21-85"/><path fill="#738D98" d="M518 464c-8 12-13 32-10 64 2 13 1 31 7 43l16 26c18 2 34 2 51 2-11-20-25-38-34-58-2-6-1 0-5-1-2-7-1-12-3-15 0-10 0-22 3-26-4 7-5 21-4 22-5-2-5 4-9 3 5-15-2-10 1-26-4 5-4-2-6-3 5 3 5-5 10-5-3-4-1-5-3-10v-3h-2l3 1v1c-2 5 2 7-4 6-1-4-1-3 1-9 0 2-2 2-3 4 3-3-7-6-1-9-11-5 1 5-9 4 3-2-6-8 3-9"/><path fill="#806D66" d="M423 95h4c20 17 43 39 56 49-12 13-54 32-49 23-14-18-82-60-7-70"/><path fill="#616D6C" d="M83 231c8 14 2 19 9 31-10 4-19 13-21 5 4 6-10 7-17 14-5-3 2-6-8-2 0-3 8 0 2 5-17 7-20 11-44 23 7-13-4-6 3-13H3c0-15 3-9-3-19l80-40"/><path fill="#443E35" d="M362 405c-4 4-21 6-21 9-4 1-4-4-5-2-7 3-8 9-8 17-1 3-1 11 5 9-7 11-6 15-5 31 3 3 4 9 8 10 0 4-2 1-4 2 7 3 13 10 13 2-1 7 3 6 7 11 2-14 10-30 13-44 0-15 11-52-1-44"/><path fill="#413E35" d="m324 73-71 37c-14-7 2-6-6-7-3 6 4 11 5 15-6 7 8 0 2 9-14-4 2-9-11-13 0 2-3 6-6 4-2-7-5-1-9-7 1-4 4-17-1-17-12-11-8 7-17 4 9 5-3 17-1 23 9 2 4 7 10 5l12-4c8 16 25 28 30 44 5-2 9-6 9-10-2-3 1-9-3-8 4-6 7 9 9-3-12-9-9-23-21-25 5-3-4-3 0-8l36-18 35 44c2 2-11 6-9 10 6-1 11-6 16-4-2 5 18 18 16 23 4 7 9 4 14 0 57-29 24-21-8 1-13-17-33-49-57-75 5-9 33-15 27-20"/><path fill="#33312E" d="M224 68c11 1-12 11-17 13 7 0-2 12 4 12-10-1 0 21-15 18-12 0-14-8-23-4-6-2-3-3-1-4-7 4-19 2-23 11-1-5-4-6-5-11-3 4-15-8-24-2 11-2-17-18 3-21l-10 5c-1-7 5-5 6-8 12 5 24 2 36 0 6 3 10 7 12 10 3-3 2-6 1-8 3-3 8-3 9-2 7 0 8 13 15 11 5-2 2-6 4-8 11-1 18-5 25-12"/><path fill="#2B2A27" d="M209 48c5 4 0 8 13 21-13 9-10 9-26 13 0 2 1 5-2 6-9 2-10-5-14-9-3-1-8-2-10 0 0 2 2 6 0 9-6-3-8-7-13-9-14 1-25 4-36-1-3 3-8 1-8 4 5 1 3 13 11 13-3 5-10 5-11 9 3-4 9-5 13-7 8 3 18 8 18 6 0 4 6 6 4 12l3 1 2-2-2 1h-3c5-11 16-9 21-14 6 2-2 3 1 4 13-4 18 9 30 5 6-6 3-16 10-16-5-2 3-12-6-10 6-6 27-14 21-15-1-6-11-15-15-21"/><path fill="#464036" d="M216 90c6-3 11 3 14 5 2 5 1 13 0 15 3 5 6 1 5 7 7 4 6-9 10-4 0 13 28 31 26 44 2 12-5 2-1 8-6 3-8 4-12 1 0-3 2-8 4-6-4-2-8-9-12-5-6-6 1-7-1-12-9 7-9-21-17-12 3-5-4-7 1-8-7 0-8 6-16 4-1-5-8-2-9-8 3-8 6-16 0-19 6-3 8-2 8-8"/><path fill="#6B605F" d="M468 218c-13 6-37 19-27 21 2 5 5 7 2 10-1 6-4 4-5 0 2 0 1 10 6 3l-2 5c2-2 6 1 2-2 7 0 4 3 7 5 5-18-8 1-2-18 6-2 2 9 15 6-5 3-3 2-10 3l-1 10c-3 4-9 6-14 11l2 2-1-4c9 9-1-6 14-3-4-2-5-3-1-4 0-4 1-5 2-7 0 9 5-2 4 7 6-7 5 6 13-6 1 2 4-1 4 2-5 1-4 2-3 5-3 6-9 2-7 5 4 1 3-1 4-4-1 5 4 4 5 6-2-1-2-4-2-5 4-11 4 3 6-4 4 4 0 5-3 6 4 7 7 4 13 10 0 3-5 5-8 3 8-1 5 9 9 12-2-6-1-10 1-14 13 2-3 0 7 4 4 1-7-10 3-4-15-9-7-2-18-9 11 0 7-11 14-4-2-1-2-4-5-5l2-2h2l1 2 1-1c2 13 2-8 9 8 5 1-5-3 7-7-5-3-11-5-10-8l-6 6c4-7-7-4-3-9-1-2-3 8-5 1-3-1 0-2 0-5 4 1 7 0 8 4-7-5-6-8-9-14 0 5-3 1-4 5l-1-7c-12 4 1 3-4 10-3-5-8-6-9-8 6 2 5-9 10-2 2-11-19-15-9-15"/><path fill="#67635C" d="M44 504c5-4 6 1 7 4-3 2-6 1-8 2 5-2 6 4 7-1h4l1 2c2 0-1 3-2 3 5 5 7 5 10 11-7 4 0 8-2 11 5-2 4-2 6-7 1 7 5 13 0 22-4-12 3-10-3-13-5 6-7-6-12-1-12 6 2 6-5 14l-3-1h-1v1l-1-2c9-6-3-4 1-9-9 6 2 0 0 9-7 6-5-2-8-4l3 9c3 1-2-4 3-4-1 7 4 1 5 4-23 11 10-1-14 18-3-8-9-7-7-8 0-3 2-2 3-3-2-3-2-10-2-14-2-1-2 4-5-1 5-2 4-11 8-11 6 4 4 0 7 5-2-1 3-3-1-5h3l1-1c8 3 7 8 11-1 4-2 1-2 0-4-5 6-14-2-10 5l-2 1-2-2c-3 1-4 0-5-1l-2 1v-2c-1-4 3-5-2-7 6-1 7 0 11 1-9 3-2 0-4 6 1 0 1-4 4-2 3-2 3-21 1-18 2-6 7-5 7-5"/><path fill="#777B77" d="M363 398c-6 12-30 11-37 17-5 1-12 2-24 1-1 11 7 15 9 19 4 5 15-1 12 7-3 6 5 15-4 21-2 2 2-2 4 1-3 9 7 14-1 24 7 8 4 12 7 16-3 1-6-3-9-4-4 1-6 3-5 6-2-6 6-2 2-5l13 6c4-3 13 5 23-5 6-12-6-5-8-16 2 5-7 1-15-5 3-2 4 0 6 0-5-2-6-11-8-11-5-20 3-25 1-30-2-1-3-7-3-11-1-5 3-15 8-17 4-3 4 3 5 3 1 2 17-11 23-10 4 2 5-1 8 2 2-6 0-8-5-6"/><path fill="#4C3028" d="M159 272c2 14-16 24-13 30-4 3-11 12-17 16 8-6 19-2 27-3-17 10-30 18-44 30-2 12-3 23 2 25 8-12 2-11 1-21 20-20 37-22 60-37-3-1 2-5-13-3 5-2 8-3 12-2 0-5-6-22-14-32"/><path fill="#685D5B" d="m463 219 1-1c4 0 6 3 11 3-2 4-3 4-6 5 3 1 0 4 2 6-3-6 10-3 3-9 10 12 6 9-1 13l5 6c-7 3-8-1-9 3 2 2 3-1 5-2 4 2 5 4 3 5-28 1-27-8-41-9-2-3 1-4 1-5 6 3 3-1 9 2l-2 1h1c1-4-1-2-3-5 7 1 15-13 18-12"/><path fill="#555049" d="M398 101c4-2 2 2 4 1-5 13-15 6-14 13-4 6 1 5 4 8-1 2-2 1-2 3 10-5 14 19 21 13 3 8 11 20 22 28-3-2-3 4-6 3-4-4-18-16-18-20-5-6-5 1-9 0-1-4 1-3 2-6-19-23-48-38-1-37"/><path fill="#7595AC" d="M578 390c-1 1 3 5 4 6-8-10-8 7-11-3-2 0-4 7-3 9-5-4-3 6-12-2 2 21-3 7-2 24-4-1 0 0-4 4 3 4-1 0 4 0l-8 13c3 5 4-12 8-6 2 6-4 8-3 14 1-13 5 3 7-6 2-13 4-7 10-23 1-1 4-1 4 1l-5 16 11-28c2-1 5-1 5 1l-1 3 2-3c-14-4 3-13-4-19"/><path fill="#C6AB83" d="M157 137h1c12 6 19 18 28 20-12 0-16 8-25 4-16-8-27-21-2-24"/><path fill="#5B564E" d="M112 118c0 11 5 18 6 25 4 7 6 0 10 4-19 6-31 20-42 22-9 13 0 14-3 27 1 2-14-23-3-19-7-2-13 6-17 2 12-8 28-16 51-28 0-7-4-11-3-21-2 1-5 5-6 4 8-3-1-12 4-13"/><path fill="#57544C" d="m199 119 3-1c2 8 15 19 21 37 4 0 8-2 11-5 3-1 5 2 4 3-6 2-12 9-18 10 4-1-14-19-11-27-21 10-50 19-1-5-5-3-9-8-9-10"/><path fill="#C9AF88" d="M154 135c-18 16-7 10 4 26 6 4 16-3 26-3-16-10-19-24-33-19"/><path fill="#617F8F" d="m545 520 2 12c12 26 28 47 40 68-9-27-16-41-43-83"/><path fill="#9FA9A0" d="M218 232c10-4 7 15 8 20 0 1-1 6-3 2 2 5-3 14 1 22-12 0-10-11-12-18 0-15 1-12 5-25"/><path fill="#7D8B8D" d="M404 422c1 7-7 15-15 17 0 3 5-1 5 4-3 8-6 21-8 18 6 11-3 12 8 14-9 3-8 11-17 13 4 4 2 11-2 8 2 5 6 3 6 0 2 10-4 4 0 8 5-1 2-3 9-7-1 9 5 18 1 19 4-4-1-10 0-16-3-5-1-9-2-12l3-10c4-18 10-25 9-34 0-9-3 3-7 5-2-1-2-2-2-3l2-1v-3c3-4 9-14 12-13-1 0-2-2-1-6"/><path fill="#AAA092" d="M270 166c12-1 18 3 20 4-3 6-8 3-16 5 4 3 6 0 12 5-7 2-10 1-14 0 14 1 8 6 26 10-10-2-17 8-26-2-5-3-2-6-7-5 1-4 1-9 6-15"/><path fill="#493C2D" d="M200 256v15c16 6-1 5 13 14-3 15-8 10-11 20 1 4 4 3 5 6-9 0-3 14-11 8 1 3 4 4 4 7 1-8 8-13 16-16-1-12 6-20 4-29-6 0-6-5-15-8-1-3-1-11-4-15"/><path fill="#4A4840" d="M438 36c-4 5 4 8 1 12-10 6-24 11-40 18-8-9-18-15-21-19 4 9 11 12 19 21-28 14-39 20-53 29 7-6 15-3 18 0 2 3 0 1-1 2 4 4 2 5 10 10 9-2 0-2 1-6-5 1-5-12-7-7 1-3-4-3-4-2-1-6 8-6 7-9 15-6 22-12 33-17 14-6 17-9 40-18 27 16 8-7-3-10"/><path fill="#6E7477" d="M406 243c-2 0 0 5 0 10 0 13 10 36 6 53 5 16 9 28 7 39-1 7 1 10-1 15-11 8-13 15-21 19-3 2 0 7-2 9 21-21 21-18 26-33-7-1 5-9 1-7 3-12-7-34-7-39 0-6-4-16 4-12l-5-1c-2-5 1-16-4-21 20-4-2 5 11 0 17-1-8 5 8 4-8-9-5-10-3-13-8 3-8-3-9-2 3 3 8 0 5 9-3-3-5 1-7-1-1 1-2-12-1-12 1-4 3 3 2-2 0-5-2-1-7-4-2-1 2-13-3-9"/><path fill="#6A4F47" d="M151 377c44-4-14 31-6 33-6-10 6-25 11-30"/><path fill="#4284B0" d="M596 480c1 12-4 18-9 29-2 21 6 27 6 42 0-19 7-47 3-69"/><path fill="#7A7A76" d="M413 384c1 5-4 11-5 15-6 1-7-1-8-3-8 2-7 9-15 9 4 5 8 3 11 2 3 9-8 4-4 9-6-8-13-2-18-7 0 3 2 7-1 9 9 2 15 1 22 1 3-4 4-4 10-7 4 4-2 5 1 8l3-15c-3 1-4 9-9 6 0-7 8-6 6-10 6 3 5-15 10-16"/><path fill="#5C5655" d="M523 196c5 1 8 8-5 5 4 5 3 3 11 0-6 5-5 8-10 11-5 1-12 4-26-1 9-1 3-6 10-8 3 8-1 4 7 9-12-5 9-10-3-12 12-4 6 1 16-3"/><path fill="#7996AD" d="M563 402c13 3-6 8 9 14-5-3-6 5-9-2-2 4 6 4 5 10-3 5-3-4-3-1-2 9-6 10-7 24-9-8-2-8-6-14 3 0 6 1 4 5 0-10-2-13-1-16l4-4 4-13"/><path fill="#55534C" d="M245 102c8-4-4 13 12 6-5 9 4 8-1 12 6-4 4 2 9 6 1 7 8 11 12 24-12-6-16-24-21-21-2-10-14-21-11-25"/><path fill="#56504C" d="M538 110v1c15 6 7 7 23 18 0-6 2 5 6 0-3 10-10 8-13 3-9-6-28-15-18-23"/><path fill="#838C87" d="M261 243c3 3 10 5 16 5 10 15 18 18 23 18-5 3-8 6-13 4-6-5-5-11-10-13-7-7-17-3-19-12"/><path fill="#6B4039" d="M103 361c7 2-5 15-1 22-8 7-16 10-23 15 9-14 24-23 19-33"/><path fill="#7F99A6" d="M537 460c3 7 7 4 8 8l-4 7c2 3 6-3 5 5-4 4-4 9-6 12-2-3-5-10-1-10-2 2-4 1-5 1 5-6 8-2 9-2-12-2-4-11-12-5 2-5 5-8 9-5 0-6-5-2-7-3-4-11 6-5 4-5"/><path fill="#46453B" d="m199 119 6 13c-42 23-23 15 4 3-1 6 11 20 10 25 7 0 12-4 18-6 1-2 0-4-2-4-4 4-8 6-12 6-4-16-20-28-21-37"/><path fill="#666366" d="M549 240c2 5-9 5 3 3-5 3 4 10-5 12 2-6 2-6 0-2-6 4 5 8-2 10 0 1 4-4 8-3-4 2-7-2-8-6 8 4 5-1 10 3 5-2 0-7 2 0-1-5-6-1-6-4 12-2 6-2 14-4l2 1 1 1h8c-6 4-7 7-5 12 1-4 6-4 9-11 4 5-1 4 1 6 0-4 5-4 4-1 8 9-6-1 9 11-6-8 1-8-1-12-1 0-4 3-5 1 1-2 6-4 7-5-1 0-5 1-4-7-14-3-4 3-12 5-10 0 1-9-5-7-7 3-2 3-3 2l-1 7c2-6-13-6-3-5-6 5-12-3-5-4-6 0-4-1-8 1l-2-1-1-1"/><path fill="#55544C" d="M40 162v25c9-2 16-8 20-7-3 3-12 11-20 14-5-2-10-19-5-24l-3 2c1-5 4-4 5-6"/><path fill="#5D5751" d="M438 38h-1c19 7 26 28 6 10-3 1-28 18-25 10 10-5 5-1 24-12-5 0-1-4-7-6"/><path fill="#7D97A2" d="M539 462c-8-2-6 4-6 11 7 3 1 9 6 18l-3 7c5 0 5-6 8-2-3-10 0-3-4-2 1-8 2-8 4-11 5-3 3 7 6 4-6-12 2-12-9-23h4c-2 0-5-3-5 1v2l-2-1 1-3"/><path fill="#67605A" d="M61 494c9-3 3 9-1 7 6-2 7 6 8 10-2-5-13 0-11-10-2 7 9 13 1 17-5-3-5-16-7-14 8-7 11-10 13-7"/><path fill="#655958" d="M478 251c9 5 9-2 20 4 3 2 5 1 2 6-17-3 8-3-10-4-1 4 4 1 5 6-3 0-8-4-8 1-3-2-2-4 1-5-6 2-7 2-10 6-6-7 1-4 5-7-4-1-3-3-9-8"/><path fill="#605852" d="M69 116c6 11-2 15 7 25 3 3 7-2 16-3-6 6-13 7-18 12-3 1-5 2-6 1 2-14-3-26 0-32"/><path fill="#7B827F" d="M261 245c-1 0-3 6-8 5-13 2-8 7-2 0 1 5 0 1-1 7 4-5 8-6 13-7 7 2 8 3 13 6 4 1 7 8 11 12l10 1c-1-6-2-6 1-8-8 0 1 3-7 5l-11-16c-13-3-10 3-17-5"/><path fill="#4D514C" d="M41 194c-2 13 2 11 3 27-8 3-14 10-16 10 0-4-5-5 11-11-2-8-5-26 0-21"/><path fill="#60372E" d="M102 363c-7 19-13 21-27 34l25-11c1-10 1-16 6-24"/><path fill="#2F2B2B" d="M245 252c-4 4-11 4-17 6-6 8-4 9-3 17-1-9 30-18 22-21"/><path fill="#5C5A56" d="M373 45c26 12 14 14 29 23-5 4-10 3-14 7 1-6 9-4 6-7-14-9-7-18-20-19"/><path fill="#615A53" d="M17 36c8-6 3 10 11 3-9 4 1 13-4 17 8 4-5 12 6 14l-8 6c3-14-3-20-2-39"/><path fill="#584D3C" d="M212 214c7-4 8 5 10 9-2 4-7 15-11 20-7-13 8-14 2-27"/><path fill="#5D5B58" d="M31 103c-2 21 6 16 3 46-4-6-2-23-8-22 6-3-1-11 2-20"/><path fill="#684F39" d="m297 131 2-4c25 23-3 3-15 15 2-7 7-9 10-12"/><path fill="#505554" d="M257 78c11 2-11 9-14 11 2 7 2 6-2 11-2-6-4-5-10-6 13-5 8-11 24-15"/><path fill="#4F473E" d="M591 8c-55 10-12 13 7 31-7-10-12-13-27-18 2-3 12-10 18-12l1-1-1-1"/><path fill="#5E6159" d="M99 570c-2 14 8-4 11 9-5-1-7 3-9 1 4 2 3 3 2 8-5-2-7-1-11 3 3-4-6-6-2-8 2-2 7 2 10 1-2-4-7-4-3-11"/><path fill="#635850" d="m55 39 3 26c3 7 3 3 8 2-3 4-5 7-8 7-2-2-2-17-7-14 7-5-5-14 2-18"/><path fill="#7C99A6" d="M555 522c1 1 6 0 8 3l10 25c-9-4-7-16-16-15 5-2 1-6-2-11"/><path fill="#5D5550" d="M558 15c5 0 6 1 13-1 2 4 5 8 0 6 12 2 10 5 19 9-14 0-20-8-30-12"/><path fill="#414B48" d="M259 47c-3 6 10 13 14 22l-41 23c4-2 8 6 10 11 0-8 3-7-2-13 10-8 63-33 37-21-1-2-15-14-18-22"/><path fill="#76706B" d="M235 390c-7 4-3 4 2 2 3 6 2 13-1 15 4 6 2-3 6-3 3 3 3 12 0 11 4-9 11 9 8 2 9-1 7 5 11 3 4 2 1 3 0 5 1-2 5-3 6-4 10 0 10 4 20-1-4 14 11-3 4 12 4-7-1-9 1-14-11 2-16 0-24 1-3-3-4 3-5-1-5-2-7-3-12-3-4-3-7-5-7-9-4-4-3-9-6-11v-2l-1-1"/><path fill="#555754" d="M508 9c8 5-19 11-11 18l-13-5c7-2 11-3 21-11"/><path fill="#43443A" d="m44 161-11 8c3 0-2 23 6 22 9-1 17-8 22-10-5-1-14 7-21 8-3-10 2-14-3-20 3-5 5-8 9-8"/><path fill="#645B50" d="M100 87c9 5 5 17 9 20l-2 8c-5-16-2-14-9-22-2-5 0-4 1-3"/><path fill="#7391A8" d="M600 367c-21 11-11 9-22 18v2-3c4-2 3 12 10 4 6-14 10-6 9-20"/><path fill="#5F5B51" d="M360 85h2c-1 2 3 6-2 6 18 10-3 3-15 5 4-7 8-4 15-10"/><path fill="#61544D" d="M137 167c9 3-8 10-10 11-1 1 9 9 0 12-4-6-3-11-5-13l12-8"/><path fill="#B59E87" d="M296 150c6 0-4 12-5 13-4 0-6 3-10 1 1-7 9-13 13-11"/><path fill="#735C54" d="M124 441c4 4 2 8-2 14-6-1-7 2-13 5 2-7 11-12 15-17"/><path fill="#655A58" d="M471 247c-10 12-3 5-9 14-7-2-8-10-1-4-5-5-5 2-7 0-4-8 5-4 2-7 6-1 4 2 10 0"/><path fill="#B9A38A" d="M291 149c-6 12-19 14-13 15 4 5 2-4 9 1 5 0 8-9 10-13 3 1 22 3 2-1h-5"/><path fill="#94876F" d="M194 223c8-5 5 6 10 6-11 2 3 10-13 12 2-10 9-11 2-16"/><path fill="#5C5A59" d="M577 242h2c0 4-5 1-5 3 12 1 10 9 14 8-1 7-6 3-9 0-2-2 0-2 2-2-1 2-4-3-3 2-6-4-9-8-6-11"/><path fill="#5D462F" d="M297 131c-5 1-12 6-13 10 8-10 42 7 14-13"/><path fill="#61605A" d="M30 511c5 0 2 4 5 7-4 6-5 1-4 0-1 7-8 9-13 10l-3-8c2 1 5 6 8 1 6-1 3-7 6-7"/><path fill="#5C5C57" d="M196 358h1c7 10-5 7 3 10-10-6-23 1-8-9"/><path fill="#493D2A" d="M213 214c9 13-7 17-4 26 6-4 10-11 11-17-1-2 1-10-5-8"/><path fill="#75939F" d="M556 521c-1 5-3 3-1 9 10 12 7 3 16 20-4-12-9-34-15-26"/><path fill="#5A5C56" d="M313 40c5 6 4 10 11 9 0 4 2 6-2 8-6 0-3-3-12-10 3-2-1-2 1-5"/><path fill="#6B5E52" d="M62 579c7-4 4 11 5 0 5 13 5-2 10 12-6 0-7-5-11-4-3-1-3-4-2-6-2 10-12 6-2 0"/><path fill="#7496B3" d="M578 398c6 13-7 14-2 26-5-1-5-4-6-4l6-19"/><path fill="#5C554D" d="M386 73c2 9-18 10-21 15 8-11 6-8 17-12"/><path fill="#B29E86" d="M311 155c7 0 3 17 4 19-8-4-1-2-7-4 4-5-3-12 1-13"/><path fill="#555251" d="M483 174c-12 11-8-1-14 10 4 3 0 6 4 7 16 0 23-13 8-4-1-12 7-7 0-11"/><path fill="#4D463F" d="M56 41c-11 3 3 13-4 18 5-4 3 5 4 7l1 3h1v2l-2 2-36 18c13-5 29-15 46-22-5 2-6 3-8-1-1-12-4-19-3-26"/><path fill="#676056" d="M62 514c13 1-5 12 7 6-6 10-1 7-5 13-3-4 2-9-4-16"/><path fill="#7999AB" d="M525 483c3-1 2 6-1 6 5-3 5 2 8-2 1 14-11 1-4 11-6-3-5-6-9-7 3-4 0-3 5-6"/><path fill="#494A45" d="M30 105c-4 5 0 13-1 17l1 3-3 1-27 15c9-5 20-8 27-15 4 6 5 11 4 17-2 5-6 4-9 6 7-3 7-1 11-6 2-18-3-25-3-36"/><path fill="#595040" d="M228 230c8 5 4 10 4 14 1 3 0 7-4 6 3-1-7-11 0-18"/><path fill="#625A4E" d="M83 33c4 1-1 9 10 3-9 8 0 17-4 19l-8-19"/><path fill="#4C4C45" d="M358 49c1 11-2 6-10 13-13 13-14-7-22-1 2 3 8 5 4 10 3-4 10-1 16-7l12-6c2-2 2-4 1-7"/><path fill="#616067" d="M575 226c-8-1-11 8-15 11 7-1 38 5 9-2 5-2-3-4 1-5 15-7-1 9 6 2 6-4 0-3-1-5"/><path fill="#5F5E53" d="M121 45c10-1 8 15 11 14-2 5-3 0-1 6-4-2-4-10-10-5 1-4 3-5 5-3-1-6-1-4-4-9"/><path fill="#70584B" d="M185 440c9 2-2 7-3 9 2 4 3 9 7 11-9-4-13-9-11-16 3-5 3 5 8-2"/><path fill="#5A5852" d="M17 544c3 1 5 4 11 2-4 2 3 10 0 11H18c4 0 4-9-1-10"/><path fill="#53524A" d="m540 0 14 7c-4 7-21-5-17-5"/><path fill="#5B5951" d="M360 98c7-1 6 9 6 0 10 6 6 5 8 9-8-4-5 4-14-7"/><path fill="#ABA391" d="M219 129c7-3 12 2 16 6-3 2-4 3-4 5-5-1-8-7-10-9"/><path fill="#5F5D60" d="M432 237c-11 2-8 5-4 11 6 2 10-6 13 2 0-10-14-9-8-13"/><path fill="#60554C" d="M64 96c5-3 0 10 5 8-3 4 4 11-2 14-1-4-6-14-4-20"/><path fill="#5E5251" d="m534 227 1 2c-2 0 5 13-16 4 7 3 9-5 11-2"/><path fill="#91866C" d="M201 233c6 9 2 4 11 13-5 3-5 0-6-1-5 2-1 4-4 7 0-7-1-10-3-15"/><path fill="#615657" d="M500 269c9 1 3 4 11 0-2 2-1 9-1 10-6 0-4 1-6 4-2-11 7-4-5-12"/><path fill="#929292" d="M245 223c8-2 5 9 0 11-6 1-3-6-7 2 1-9 9-11 7-10"/><path fill="#60574E" d="M587 5c7 6-7 6-13 14-3-5-1-5-3-7 3 3 9-4 12-4"/><path fill="#605756" d="m506 198 2-3c9 12-3 11-10 8 1-4 8-5 8-3"/><path fill="#665B58" d="M513 233c12-2 5 4 4 8-2-4-9 5-12-1 1-3 8-2 7-4"/><path fill="#45413B" d="m70 130-2 1 4 14c-3 8-8 5-14 9-4 6 58-27 17-9 1-6-7-15-5-15"/><path fill="#574029" d="M131 123c-4 6 0 14 2 18 1 3-3-10 1-9 4-4 8 0 8-5 0-2-5-3-8-4"/><path fill="#6E6158" d="M153 192c4 2-1 7-2 8-3-1-14 6-11 0 13-4-2-1 11-8"/><path fill="#81999B" d="M278 274c4 10-16 8-20 10 3-4 12-5 16-9"/><path fill="#5A5650" d="M214 51c1 9 6 2 9 17-8-5-11-12-12-14"/><path fill="#5A453A" d="M291 193c-3 4-4 5 6 2 2 4-6 10-7 6 3 7 6 4 7 9 0-4 5 2 7-3 5-3-6-6-7-3 5-5-1-11 3-11-1 4-6-1-8 1"/><path fill="#4F4C3F" d="M122 44c2 4 2 8 6 10v3l-1 1-2-2c-9 5-13 8 0 1 3 6 9 13 6 16l6-2 25-14-24 13c-11-9-4-11-14-25"/><path fill="#7598B2" d="M569 396c9 8-1 2 9 0-8 10 1 8-5 13-3-5-4-5-4-10"/><path fill="#59534E" d="M131 188c2 2 3 7 4 14-6 0-7-4-9-6 0-11 6 5 2-7"/><path fill="#5F5E55" d="M253 127c8 1 12 12 16 17-9-1-12-11-15-15"/><path fill="#696A67" d="M117 550c0 4-3 0-3 2 2-2 3 2 5 0-7 2 3 8-4 8-2-2-2-3-1-6 0 8-5 9-1 13-1-2 6-2 7-2 5-2 0-6 1-12-2 4 18 2 2 0 3-3-2-3 0-1l-1 2-2-1-1-1"/><path fill="#5D5D5D" d="M555 241c6-1 5 7 6 10-5-4-7 0-11 4-3-13 7-5 7-11"/><path fill="#685D53" d="M212 497c2 2 9 10 7 14-11-4 3-7-11-2 1-6 9-7 2-9"/><path fill="#576261" d="M284 61c9 7-8 10-18 14 8-7 12-7 16-11"/><path fill="#4F493D" d="M111 26c-6 6-14 8-22 12-6 1-2-3-6-3 0 7 4 11 5 20-6 5-12 8-20 11l18-7 1-1 1-1v-3c3-3-3-7 1-15l22-11"/><path fill="#4D4F45" d="M466 2c-32 12-20 14-4 1 9 7 13 16 21 14-2 0-15-9-20-13"/><path fill="#705143" d="M297 202c7-3 4 4 10 1 1 8-6 5-5 6-6-1-12-1-5-7"/><path fill="#5D5A54" d="M90 55c5 4 7 14 6 19-1-5-10-10-5-17"/><path fill="#B7A38D" d="M311 156c-6 3 1 10-3 18 10 2 4-16 6-16"/><path fill="#5D5A51" d="M153 119c5 10 8 14 11 17-7 3-5-5-11-3 3-5-3-8 1-11"/><path fill="#7F8077" d="M221 201c1-1 4 2 6 2-5 5-3 9-8 8-6-4-1-6-1-10"/><path fill="#585955" d="M180 25c9 3-10 11-17 14 3-7 9-6 15-12"/><path fill="#795747" d="M177 461c14-1-4 8 9 9-3 7-6-4-7 6l-3-13"/><path fill="#5C5B52" d="M168 56c10 2 7 13 12 14-10 0-5-7-12-10"/><path fill="#4B473E" d="M19 35c5 14 0 25 5 30 1 7-3 8-5 10 4 0 6-3 9-4-2 1-2-3-3-3 2-5-2-16-2-24l8-5-6 3c-1-3-7-3-3-6"/><path fill="#484B45" d="M508 11c-9 5-18 12-24 8 10 6 8 6 11 10-4-5 6-4-1-6 9-10 8-2 17-14"/><path fill="#5B5A5C" d="M481 174c2 5 9 0-4 10-5-2 2-2-6-1 6-3 4-3 9-7"/><path fill="#4F4C4C" d="M401 189c4-3 7 3 6 6-6-2-10 4-13 4 6-5 1-6 5-10"/><path fill="#63574C" d="M50 573c14-4 7 10 12 8-6 1-9-4-10-7"/><path fill="#63605C" d="M24 126c2 7-16 11-20 15 6-6 12-12 17-12"/><path fill="#776962" d="M213 491c0 15 1 10-5 14 5 2 12 9 11 0 2 4 2 6 5 6-3 1-5 0-6 3 2-7 8 3 6 5 6-4-11-29-3-14-10-1-3-11-9-11"/><path fill="#5D5758" d="M488 235c5 3 2 10 10 12-11-6-4 4-12 2-3-5 5-8 1-11"/><path fill="#69594E" d="M217 497c8 4 8 15 9 22-4-3-5-15-9-18"/><path fill="#5A5B56" d="M474 9c6 1 1 10 11 6-5 9-26-9-10-4"/><path fill="#4C4239" d="M138 169c-6 1-10 6-15 8-4 4 3 1 2 11 7 0 4-8 0-8 5-7 12-6 14-11"/><path fill="#97A3A6" d="M183 78c5-2 12 0 13 6-5 5-8 0-12-3"/><path fill="#745D4F" d="M156 447c7 6-5 8 3 10-6-1-8 3-10 3 2-10 3-2 6-9"/><path fill="#665A4F" d="M250 507c7 0 3 9-2 19-5-3 6-9 1-17"/><path fill="#67464C" d="M200 328c2-2 2 3 5 2-2 5-7 7-7 11-1-8-7-7 1-12"/><path fill="#635955" d="M479 239c14 6 0 8 6 8-3 1-2 5-3 7-3-7-4-8-3-12"/><path fill="#51483C" d="m65 97-1 1c-2 10 6 22 4 27 6-6-3-4 1-17v-1h1v-2c10-4 19-11-1 0-5 0-2-4-5-7"/><path fill="#44423A" d="M540 1c-11 2 15 9 18 13-4-3-8-10-16-12"/><path fill="#605C5D" d="M505 255c2-1 5 5 9 4-3 4-5 2-7 0-6 4 8 6-1 7-4-4-3-5-4-9"/><path fill="#585954" d="M332 62c5-3 2 6 7 5-7 2-3 3-9 6 5-8-3-4 1-10"/><path fill="#675F56" d="M36 585c5 2 7-1 11 0-4 2-1 5-2 10-2-7-4-4-9-7"/><path fill="#615D56" d="M112 26c3 4-14 10-19 12 1-5 11-6 15-11"/><path fill="#6B6256" d="M157 517c10 6-4 10-2 15-2-2-6-2-4-5l7-7"/><path fill="#61504F" d="M288 192c4-1 8 0 12 3 1 3-20 1-9-1"/><path fill="#595A54" d="M244 58c8 2-11 11-12 9 3-3 6-7 9-8"/><path fill="#585958" d="M582 243c3 0 5 3 10 1-1 3-1 5 2 4-5 0-14 0-13-2"/><path fill="#47493F" d="M314 42c-4 2-5 6 1 9 3-1 7 11 9 5 1-8-8-5-9-12"/><path fill="#49402E" d="M230 232c-6 2-1 12-2 17 5-2 3-9 4-16"/><path fill="#A29F8F" d="M192 279c6 0 3 3 4 12-5 0-5-8-7-11"/><path fill="#5F5C54" d="M32 568c15-1-3 5 4 8-6 2-8 0-11 1 5-1 7-6 8-7"/><path fill="#8A9A9A" d="M398 445c4 3-2 15-5 16-1-8 3-7 2-13"/><path fill="#655F59" d="M411 58c11 0-4 6-2 9-4-3-6 0-10-1 9-2 6-1 12-7"/><path fill="#918E87" d="m266 188 18 7c-7 0-19-1-20-5"/><path fill="#64594E" d="M230 507c5 2 6 4 7 13-6-12-3-2-9-4 2-4 2-8 4-6"/><path fill="#5E615C" d="M117 558c3 4 0 9-4 11-1-2-5-4-3-6 4-3 2 1 6-5"/><path fill="#54555A" d="M577 234c4 2 1 3 9 3-2 8-22-1-7 0"/><path fill="#5A5754" d="M447 242c5-1 0 6 2 6-3 0-2 11-7 11 9-8-4-9 4-15"/><path fill="#63544C" d="M125 445c5 0 5 7 7 10-4-2-4-3-10 2 5-8 5-9 0-10"/><path fill="#565650" d="M16 150c12 3-8 9-11 11 1-4 10-7 10-8"/><path fill="#505A62" d="M565 260c10 2-7 8-12 9 2-2 6-3 9-9"/><path fill="#B4AC9C" d="M220 129c5 6 11 15 13 7-3-3-5-8-11-6"/><path fill="#605555" d="M524 282c3-1 4 1 6-1 4 6-5 2 5 6-7 2-18-1-8-3"/><path fill="#859BA3" d="M533 527c9 2-2 6 5 12-9-1-6-8-5-9"/><path fill="#5F5B5B" d="M529 190c4 1 7 2 11 0-2 8-28 3-7 2"/><path fill="#7F5012" d="M158 172c-2 6 8 12 13 11 0-6-8-4-11-10"/><path fill="#67635C" d="M357 48c7 6 4 8 3 12-4-1-2 2-7 0 4-2 3-5 5-8"/><path fill="#5D5A52" d="M352 59c5 2-14 13-13 8l11-7"/><path fill="#5F5B55" d="M23 558c5-3 0 5 6 2-8 3-6 4-11 11 0-4 1-10 3-13"/><path fill="#655D54" d="M82 77c8 2-11 9-14 10 5-7 6-5 11-9"/><path fill="#555A5D" d="M573 225c7-2 1 9-3 4 1 5 4 2 4 4-5 2-6-3-10-1 3-4 5-5 8-6"/><path fill="#454840" d="M196 21c-14 3-22 12-33 16 15-4 16-10 27-12 4 3 7 1 8 6-1-6-7-4-1-9"/><path fill="#6C6560" d="M53 71c6 4-10 13-13 11 3-3 7-6 12-7"/><path fill="#585A56" d="M205 378c-7 5-5 9-10 12 1-1-2-14 6-9"/><path fill="#A99E90" d="M58 96c9 3-5 9-8 7-4-7 3-3 7-6"/><path fill="#655B58" d="M484 182c3-4 6 1 8 1 0 2-3 1-4 5 2 0 2 2 5 3-9 0-10-8-5-7"/><path fill="#A89A7E" d="M178 217c5 5-5 10 1 17-6-3-7-10-2-13"/><path fill="#665855" d="M516 226c4-1 2 2 6 2-1 1-10 11-9-1"/><path fill="#5C5952" d="M228 399h2c-10 7 2 2 4 6-4 1-17 1-10-6"/><path fill="#6A5C5B" d="M472 246c6 2 2 5 7 8-6 3-13-8-7-6"/><path fill="#595751" d="M154 25c4 2 8 9 5 14-2-6-6-6-5-10"/><path fill="#695958" d="M583 192c2 2 2 7 3 9-4-3-6-1-8-1 6-1-6-9 5-6"/><path fill="#565B56" d="M128 33c12 2-8 5-3 10-5-1-3-3-5-4-1-6 4 2 6-4"/><path fill="#675654" d="M540 223c10-4 4 9 8 1 1 3-1 5-2 6-5-2-8-8-3-5"/><path fill="#654E3B" d="M175 452c-13 3 0 6-8 10-2 8-3 9-8 12 1-1 3-2 4 1-5 5-8 0-9 0 0 2-1 3 1 4-6-9-1 10-11 2 8 8-6 2 1 5 7-6 6-3 11-3v-2h1l-1-3c3 0 5 4 6-2 1-9 10-9 2-12 5-2 11-7 10-1 3-3-7-4-1-10"/><path fill="#706569" d="M512 263c2 5 0 8-5 8-5-5-7 1-12-3 3 11 1-2 11 6-3 2-7 7 1 8-3-1-5-4 0-3 2 7 5 0 7 5l-5-6c-1-3 4-12 6-9 0-1 3-3-1-3"/><path fill="#5B5A57" d="M212 10c7 2-9 7-12 10 2-6 6-7 10-9"/><path fill="#5D5C5B" d="M438 239c4 13-10 8-10 11 0-5 5-5 9-6"/><path fill="#5A5754" d="M336 100c1 2-11 10-12 8 1-6 5-6 8-8"/><path fill="#615451" d="M517 240c3-3 3 4 4 4-1 5-5 1-7 4-2-7-2-4 3-6"/><path fill="#575B57" d="m189 21 6-1c1 4 0 5-1 6-2-1-16 3-6-4"/><path fill="#5A5A54" d="M369 37c2 0 4 5 6 2-2 11-10 1-8 0"/><path fill="#77594B" d="M174 369c8 7-1 8-1 12-4-4 0-6 1-9"/><path fill="#775D50" d="M151 473c9 4 3 1 12 3 0 3-3 4-2 6-2-6-8 1-9-6"/><path fill="#979991" d="M210 188c1 1 5 11 3 12 0-4-11-5-4-10"/><path fill="#646962" d="M136 578c0 3 5 2 6 6-2 0-11 5-9-6"/><path fill="#6D6864" d="M0 549c3 7-2 15 0 29 0-5 4-19 1-29"/><path fill="#4B4740" d="M132 188c-2 6-8 1-4 5 1 5 1 8 4 9 2-5 0-8 0-12"/><path fill="#645B55" d="M57 542c11-2 2 6 6 9-9 3-2-8-7-5"/><path fill="#716E66" d="M221 202c-3 1-7 7-2 9 3-3 5-6 8-3-2-3 0-4-4-5"/><path fill="#645B4F" d="M130 63c7-2 3 7 8 9-8 2-6-5-9-6"/><path fill="#605351" d="M488 270c1 2 5 11 3 14 1-7-8-7-5-12"/><path fill="#AB978D" d="M7 443c3 2 1 4 2 10-3-3-4 0-8-5 5-2 5 3 4-5"/><path fill="#5E5C52" d="M194 370h1c7 0 0 6 4 2 0 6-12 7-6-1"/><path fill="#545952" d="M92 553c1 9-4 7-10 9 1-8 2-3 8-6"/><path fill="#595E5C" d="M180 5c10 2-7 11-10 9l10-7"/><path fill="#695652" d="M480 266c5 3 5 3 5 8-8 2-4-4-8-7"/><path fill="#5E5A58" d="M421 268c3-2 2 4 4 4-6 1 0 8-8 6-3-9 4 3 4-8"/><path fill="#565A56" d="M131 574c-1 5-2 8 1 13-7-5-6-8-5-11"/><path fill="#6A6369" d="M598 215c-20 12 11 5-10 14 1 3 7-6 10 0-2-4 2-8 0-14"/><path fill="#705C4C" d="M150 449c2-2 9 6-1 7l-1-6"/><path fill="#6F5E52" d="M167 516c3 2 0 8-1 11-3-2-5-6-1-11"/><path fill="#6C6461" d="M234 395c1 9-11 2-11 8-1 4 2-5 4 4 1 7-6-1-5 6 5 3 10-1 5-5 6-2-3-9 12-10"/><path fill="#645952" d="M179 508c14 5-5 2 5 10-2-3-8 0-6-5v-2"/><path fill="#758E93" d="M277 276c-6 1-13 6-20 6 8 1 19-1 23-6"/><path fill="#6E5F5B" d="M459 224c4-2 4 5 6 3-2 5-6 7-4 11-6-7 6-7-2-11"/><path fill="#919696" d="M248 237c4-1 2 11-2 9-1-4-5-3 1-6"/><path fill="#5C5C53" d="M105 587c2-4 2 3 3 0-1 3 1 5 5 4-7-2-12 3-10-4"/><path fill="#7F6353" d="M135 491c9 1 5 4 2 12 1-8-4-4 0-10"/><path fill="#60625B" d="M446 9c6-2 5 3 2 6-2-1-4 3-7-2l3-3"/><path fill="#6B625A" d="M233 17c15-3 3 7-5 7 3-1 4-6 6-6"/><path fill="#484D44" d="m178 0 4 6c-5 3-8 6-12 6 16-6 27-5 8-12"/><path fill="#585752" d="M189 378c6-2 8 6 2 8-3-2-4-4-1-5"/><path fill="#775949" d="M187 448c4 0 3 12-1 8-6-3 0-4 1-5"/><path fill="#655E54" d="m166 588 1-1c4 7 4-1 9-1-3 5-9 12-11 3"/><path fill="#615E54" d="M29 578c3-3 2 4 4 2-3 2 0 5 1 6-6-3-15-4-3-6"/><path fill="#665C57" d="M65 539c6 1-1 3 2 12-9-2-1-8-4-9"/><path fill="#605E54" d="M105 5c4 1 4 3 7 5-2-1-5 7-9 6 2-3 7-4 2-9"/><path fill="#AB9776" d="M172 237c5-1 3 8 4 11-6 1-5-6-4-8"/><path fill="#806252" d="M128 485c4-1 3 7 3 10-2-3-4-4-6-5v-1l1-1v-1"/><path fill="#7A9AAB" d="M513 494c8-1 10 3 1 8-3-2 4-4-1-5"/><path fill="#675B5A" d="M468 251c7 2-2 9 2 9h-5c1-3-1-10 4-6"/><path fill="#5D564F" d="M104 541c5 2-9 7-12 9l9-8"/><path fill="#876C5A" d="M114 512c5-1 3 9 12 5-4 4-7 1-9 2 0-1-3-3-3-5"/><path fill="#585958" d="M29 85c6 3-4 8-9 8 1-3 4-5 6-6"/><path fill="#6B6962" d="m24 564 7 1c-5 3 1 9-3 7-5 0-1-3-4-5"/><path fill="#655649" d="M284 434c8-1 4 6 0 8-2-2-5-3-3-6 2 2 5 5 4 0"/><path fill="#605950" d="M178 574c-2 10 7 2 7 5-4 7-9 3-10 0"/><path fill="#605957" d="M472 223c11 1-1 6 0 9-8-10 4-5 0-6"/><path fill="#5E595A" d="M445 265c11 1-6 5 2 9-4-3-6-2-8-3 4 1 3-4 4-5"/><path fill="#5B5B52" d="M37 513c2 0 4 10 0 10l-3-9"/><path fill="#61645D" d="M122 566c7 1 4 4 4 12-6-3 0-6-4-9"/><path fill="#7A6356" d="M158 402c5 1-1 5-3 8 5-2-9-6 1-7"/><path fill="#585C61" d="M562 232c10 5 0 7-3 9-1-4-1-7 4-5"/><path fill="#635E54" d="M24 577c7 3-5 9-9 5 2-2 6-5 8-2"/><path fill="#A2B2B3" d="M184 79c6 4 5 8 9 6 1-5-3-7-7-6"/><path fill="#675A57" d="M469 250c12 5 2 2 1 9 2-3-5-5 1-6"/><path fill="#57585B" d="M576 255c3 0 2 3 7 1-3 4-13 5-10 0"/><path fill="#705E57" d="M543 150c4-1 2 4 1 5-2 2-3 4-5 4-3-5 6-3 3-9"/><path fill="#646057" d="M58 516c5 0 5 7 7 11-2-2-6-8-9-8"/><path fill="#666665" d="M457 173c0 6 5 1 5 8-2-2-10-1-8-7"/><path fill="#5D5A56" d="M167 93c5-2 6 1 7 4-3 2-4 4-6 3v-5"/><path fill="#666664" d="M34 539c3 0 0 7-3 8-5-7 0-1 0-7"/><path fill="#675C53" d="M184 429c3 1 2 10 1 14-3-5-1-8-3-13"/><path fill="#595E58" d="M117 25c0 2 3 5 3 11-4-2-6-7-6-10"/><path fill="#51483E" d="m154 193-18 8c4 2 12-2 18-7"/><path fill="#575042" d="M44 579c2 14-9 0-14 13 2-6 9 1 11-5-3 7 0 6 5 8-7-5 7-18-2-13"/><path fill="#63584F" d="M51 29c1 5 3 8 1 12-2-4-4-5-3-9"/><path fill="#5C5B5C" d="M428 241c2-2 7 0 8 2-7 6-14-1-5 0"/><path fill="#494941" d="M91 57c-2 4 0 9 3 15 3 0 6-2 8-4-2 0-3 6-6 2 1-5-4-8-4-13"/><path fill="#5E5C57" d="M25 525c7 2 6 10 1 13l1-11"/><path fill="#67615B" d="M51 532c3 3-4 5-4 7l-5-2c4-4 4 0 6-5"/><path fill="#B4AB96" d="M196 221c-2 9 4 7-6 20 8-4 11-13 6-19"/><path fill="#685F57" d="M42 61c8 4-7 7-10 9 2-4 5-6 7-7"/><path fill="#665A52" d="M53 92c7 1-8 8-10 8l7-7"/><path fill="#676764" d="M299 4c13 0-3 6 0 7-6-2-3-4 1-5"/><path fill="#655F57" d="M47 549c2 0 2 8 3 9-4-2-1-4-6 0v-6"/><path fill="#4C4A40" d="M153 120c0 9 2 12 7 16 6-4-8-4-5-13"/><path fill="#5B6064" d="M408 201c7-1 6 8-1 6-3-3 1-2 2-3"/><path fill="#726052" d="M146 449c9 7-2 7-2 9-1-1-2-7 3-5"/><path fill="#7F9AA8" d="M520 505c1 1 3 12-5 8-1-6 1-1 3-5"/><path fill="#616055" d="M345 18c5-3 1 4 4 4-4 2-11-1-6-4"/><path fill="#625B52" d="M84 24c6-1-5 9-8 7 1-3 3-6 5-6"/><path fill="#695C4F" d="M184 431c5 1 10 1 5 6-2 1-5 1-4-4"/><path fill="#6D6D6E" d="M447 184c6 0 2 6 1 10-4-4 0-5-2-7"/><path fill="#656157" d="M47 529c11 0-2 11-5 5 3-1 2-3 5-4"/><path fill="#565145" d="M27 578c-30 8 7 5 5 6-3-4-3-2-8-7"/><path fill="#47483F" d="M363 33c-4 2 1 1 10 13-5-11-8-3-7-14"/><path fill="#5B6461" d="M197 403c7-2 4 6 8 6l-2 4c-1-5-3-4-5-8"/><path fill="#5F5C56" d="M139 1c6 0 7 6 8 8-7 1-3-5-6-5"/><path fill="#939A9D" d="M245 200c0 2 10 1 3 8-5 2-2-5-4-5"/><path fill="#6F665F" d="M168 582c2 6-3 5-1 11 6 1 4-5 8-5-8-4-1-4-8-3"/><path fill="#605C55" d="M170 536c2-1 1 4 5 2l-7 8c-2-3 2-5 2-7"/><path fill="#6A665A" d="M307 542c2 2-2 8-7 6l4-6"/><path fill="#795E54" d="M172 395c1 0 3 8 0 9 2-3-8-1-2-8"/><path fill="#9C9883" d="M256 263c3-3 6-1 6 2-2 4-10 3-6-3"/><path fill="#759BB7" d="M588 396c5 1-5 6-1 10-6-1-2-5-2-10"/><path fill="#444D44" d="M117 25c-5 6 5 14 6 17-3-4 6-5 8-6-3-1-6 1-8 3-7-4-2-9-7-11"/><path fill="#68635B" d="m41 556 7 4c-6-6-2 12-8-3"/><path fill="#645F59" d="M317 583c4-2 8 4 3 6 0-4-8 4-4-4"/><path fill="#494C40" d="M168 58c4 6 5 5 6 13h6c-7-1-4-8-9-14"/><path fill="#5E5858" d="M478 182c5-2 0 5 4 4-3 4-3 2-5 4-1-4-6-9 1-5"/><path fill="#757A7A" d="M390 519c-1 10-5 16-14 23 5 1 7-5 12-8l3-13"/><path fill="#5B595C" d="M537 249c8-1 2 4 8 4-4 3-10 1-9-1"/><path fill="#60605E" d="M100 557c9 7-2 5 0 9-3-3-2-4-1-5"/><path fill="#6B6E68" d="m98 573-3 6c-2-3 10 3 3 7 6-10 18-13-3-9"/><path fill="#61615F" d="M93 550c-3 5-11 6-11 11 8 0 10-2 10-8"/><path fill="#565757" d="M424 239c2-1 3 2 8 3-5 0-4 1-3 5-7-3-3-5-5-5"/><path fill="#5B6066" d="M545 254c2 0 3 7 9 4-6 5-8 4-11-2"/></svg>
