<svg xmlns="http://www.w3.org/2000/svg" fill="none" viewBox="0 0 908 882"><path fill="#282828" d="M895 441a441 441 0 1 1-882 0 441 441 0 0 1 882 0Z"/><path fill="#FFAF9B" d="M276 251c5 11 24 49 22 62-4 25-22 41-5 52 38 25 143 15 226 51 57 26 113 81 138 79 15-2 32-3 45 4 45 24 43 61 82 68 61 12 118 26 121 64 1 6 0 12-6 14s-29-15-50-20-54-10-86-21c-56-17-90-77-130-72-46 6-63 69-89 79-49 20-143 8-216 17-32 4-61 28-80 25-11-1-18-13-15-25s28-18 28-18-19 2-25-6c-6-7-8-18 0-24 12-9 51-7 71-9 7-1 15-12 15-12-16-7-52-22-79-29-48-13-78-5-126-16-34-7-60 5-93 10-20 3-25-9-21-20s27-20 42-26a52 52 0 0 1 13-3s9-13 20-20c11-8 28-9 28-9-2-9 1-21 4-30 8-22 45-33 45-41 0-15 3-32 3-32s-13-22-10-38 22-34 26-37l1-2 4-32a2 2 0 0 1 4-1l7 10 8 12a2 2 0 0 0 2 1 84 84 0 0 1 31-3 83 83 0 0 1 28 15 2 2 0 0 0 3 0l10-17a2 2 0 0 1 4 0Z"/><path stroke="#282828" stroke-linecap="round" stroke-linejoin="round" stroke-width="4" d="M158 343s-3 17-3 32c0 8-38 19-45 41a64 64 0 0 0-4 30m52-103 5 7m-5-7s-13-22-10-38 22-34 26-37l1-1 4-33a2 2 0 0 1 4-1l6 10 9 12a2 2 0 0 0 2 1 84 84 0 0 1 31-3 83 83 0 0 1 28 15 2 2 0 0 0 3 0l10-17a2 2 0 0 1 4 0c5 11 24 49 22 62-4 25-22 41-5 52 38 25 143 15 226 52 57 25 113 80 138 78 15-2 32-3 45 4 45 24 43 61 82 69 61 11 118 25 121 63 1 6 0 12-6 14s-29-15-50-20-54-10-86-21c-56-17-90-77-130-72-46 6-63 69-89 79-49 20-143 8-216 17-32 4-61 28-80 25-11-1-18-13-15-25s28-18 28-18m61-51a714 714 0 0 1 9 3c3 1 27 4 31 11s-4 13-11 14c-20 5-39 5-66 10-11 2-24 13-24 13m61-51c-16-7-52-22-79-29-48-13-78-5-126-16-34-7-60 5-93 10-20 3-25-9-21-20s27-20 42-26a52 52 0 0 1 13-3m265 84s-9 11-16 12c-20 2-59 0-71 9-8 6-6 17 0 24 6 8 25 6 25 6M106 446c3 12 11 20 11 24 0 10-33 2-59 5m48-29s-17 2-28 9-20 20-20 20"/><path fill-opacity=".8" d="M182 281c0 2-2 4-4 4s-3-2-3-4a4 4 0 1 1 7 0Z" class="black-path"/><path d="M180 278s0 0 0 0h0Zm-1 0s0 0 0 0h0Zm0 2s0 0 0 0h0Zm1 0s0 0 0 0h0Z" class="black-path"/><path fill-opacity=".8" d="m225 290-2 4-3 1-3-1-1-4c0-2 2-4 4-4s5 2 5 4Z" class="black-path"/><mask id="a" fill="#fff"><ellipse cx="220.4" cy="288.3" rx="2.1" ry="1.3"/></mask><ellipse cx="220.4" cy="288.3" fill="#282828" rx="2.1" ry="1.3"/><path fill="#282828" d="M219 288a3 3 0 0 1 1-2v8a7 7 0 0 0 4-1 5 5 0 0 0 3-5h-8Zm1-2h1a3 3 0 0 1 1 2h-8a5 5 0 0 0 3 5 7 7 0 0 0 3 1v-8Zm2 2a3 3 0 0 1-1 3h-1v-8a7 7 0 0 0-3 1 5 5 0 0 0-3 4h8Zm-2 3a3 3 0 0 1-1-3h8c0-2-2-3-3-4a7 7 0 0 0-4-1v8Z" mask="url(#a)"/><path fill-opacity=".6" d="m193 293-3-3-4 3 3 4 4-4Z" class="black-path"/><path d="m187 293 3-2-2 2a9 9 0 0 0 1 3l-2-3Z" class="black-path"/><style>.black-path{fill:#282828;stroke:#282828;stroke-linecap:round;stroke-linejoin:round;stroke-width:2}</style></svg>
